<mxfile host="app.diagrams.net" modified="2024-02-08T21:03:49.850Z" agent="Mozilla/5.0 (Windows NT 10.0; Win64; x64; rv:122.0) Gecko/20100101 Firefox/122.0" etag="GjuhanPRLThOEwNO3yy3" version="22.1.13" type="github">
  <diagram name="Page-1" id="BcD_z-Z6mWE41c7g1vkq">
    <mxGraphModel dx="3500" dy="1907" grid="0" gridSize="10" guides="1" tooltips="1" connect="1" arrows="1" fold="1" page="1" pageScale="1" pageWidth="2900" pageHeight="1500" math="0" shadow="0">
      <root>
        <mxCell id="0" />
        <mxCell id="1" parent="0" />
        <mxCell id="7eZKOLOASio0npsbyuK4-20" value="" style="rounded=0;whiteSpace=wrap;html=1;strokeWidth=3;fillStyle=cross-hatch;fillColor=#bac8d3;strokeColor=#23445d;fillOpacity=30;strokeOpacity=50;" vertex="1" parent="1">
          <mxGeometry x="2265" y="260" width="475" height="1114" as="geometry" />
        </mxCell>
        <mxCell id="7eZKOLOASio0npsbyuK4-21" value="" style="rounded=0;whiteSpace=wrap;html=1;strokeWidth=3;fillStyle=cross-hatch;fillColor=#bac8d3;strokeColor=#23445d;fillOpacity=30;strokeOpacity=50;" vertex="1" parent="1">
          <mxGeometry x="812" y="260" width="1426" height="1114" as="geometry" />
        </mxCell>
        <mxCell id="kBLxzkw_PutFiRmcld1j-1" value="" style="image;aspect=fixed;html=1;points=[];align=center;fontSize=12;image=img/lib/azure2/databases/SQL_Database.svg;" parent="1" vertex="1">
          <mxGeometry x="602.5" y="660" width="81" height="108" as="geometry" />
        </mxCell>
        <mxCell id="7eZKOLOASio0npsbyuK4-6" style="edgeStyle=orthogonalEdgeStyle;rounded=0;orthogonalLoop=1;jettySize=auto;html=1;exitX=1;exitY=0.5;exitDx=0;exitDy=0;entryX=0;entryY=0.5;entryDx=0;entryDy=0;fillColor=#e3c800;strokeColor=#B09500;strokeWidth=4;" edge="1" parent="1" source="kBLxzkw_PutFiRmcld1j-3" target="kBLxzkw_PutFiRmcld1j-6">
          <mxGeometry relative="1" as="geometry" />
        </mxCell>
        <mxCell id="kBLxzkw_PutFiRmcld1j-3" value="&lt;h1&gt;Other Vendor Database&lt;br&gt;&lt;/h1&gt;&lt;p&gt;Database, which collects information from specific industrial soft&lt;br&gt;&lt;/p&gt;" style="text;html=1;strokeColor=default;fillColor=none;spacing=5;spacingTop=-20;whiteSpace=wrap;overflow=hidden;rounded=0;perimeterSpacing=2;dashed=1;" parent="1" vertex="1">
          <mxGeometry x="543" y="788" width="200" height="130" as="geometry" />
        </mxCell>
        <mxCell id="kBLxzkw_PutFiRmcld1j-4" value="" style="image;aspect=fixed;html=1;points=[];align=center;fontSize=12;image=img/lib/azure2/databases/Data_Factory.svg;" parent="1" vertex="1">
          <mxGeometry x="903" y="668" width="108" height="108" as="geometry" />
        </mxCell>
        <mxCell id="kBLxzkw_PutFiRmcld1j-5" value="" style="image;aspect=fixed;html=1;points=[];align=center;fontSize=12;image=img/lib/azure2/databases/SQL_Database.svg;" parent="1" vertex="1">
          <mxGeometry x="1168" y="666" width="81" height="108" as="geometry" />
        </mxCell>
        <mxCell id="7eZKOLOASio0npsbyuK4-9" style="edgeStyle=orthogonalEdgeStyle;rounded=0;orthogonalLoop=1;jettySize=auto;html=1;exitX=1;exitY=0.5;exitDx=0;exitDy=0;entryX=0;entryY=0.5;entryDx=0;entryDy=0;fillColor=#e3c800;strokeColor=#B09500;strokeWidth=4;" edge="1" parent="1" source="kBLxzkw_PutFiRmcld1j-6" target="kBLxzkw_PutFiRmcld1j-7">
          <mxGeometry relative="1" as="geometry" />
        </mxCell>
        <mxCell id="kBLxzkw_PutFiRmcld1j-6" value="&lt;h1&gt;Operational Data Store (ODS) - Prod&lt;br&gt;&lt;/h1&gt;&lt;p&gt;Data Factory&lt;br&gt;&lt;/p&gt;" style="text;html=1;strokeColor=default;fillColor=none;spacing=5;spacingTop=-20;whiteSpace=wrap;overflow=hidden;rounded=0;perimeterSpacing=2;dashed=1;" parent="1" vertex="1">
          <mxGeometry x="853" y="788" width="200" height="130" as="geometry" />
        </mxCell>
        <mxCell id="7eZKOLOASio0npsbyuK4-12" style="edgeStyle=elbowEdgeStyle;rounded=0;orthogonalLoop=1;jettySize=auto;html=1;exitX=1;exitY=0.25;exitDx=0;exitDy=0;entryX=0;entryY=0.5;entryDx=0;entryDy=0;fillColor=#e3c800;strokeColor=#B09500;strokeWidth=3;" edge="1" parent="1" source="kBLxzkw_PutFiRmcld1j-7" target="kBLxzkw_PutFiRmcld1j-11">
          <mxGeometry relative="1" as="geometry" />
        </mxCell>
        <mxCell id="kBLxzkw_PutFiRmcld1j-7" value="&lt;h1&gt;ODS - Prod&lt;br&gt;&lt;/h1&gt;" style="text;html=1;strokeColor=default;fillColor=none;spacing=5;spacingTop=-20;whiteSpace=wrap;overflow=hidden;rounded=0;perimeterSpacing=2;dashed=1;" parent="1" vertex="1">
          <mxGeometry x="1121" y="788" width="200" height="130" as="geometry" />
        </mxCell>
        <mxCell id="kBLxzkw_PutFiRmcld1j-9" value="" style="image;aspect=fixed;html=1;points=[];align=center;fontSize=12;image=img/lib/azure2/databases/Data_Factory.svg;" parent="1" vertex="1">
          <mxGeometry x="1529" y="499" width="98" height="98" as="geometry" />
        </mxCell>
        <mxCell id="kBLxzkw_PutFiRmcld1j-10" value="" style="image;aspect=fixed;html=1;points=[];align=center;fontSize=12;image=img/lib/azure2/databases/Data_Factory.svg;" parent="1" vertex="1">
          <mxGeometry x="1538" y="952" width="98" height="98" as="geometry" />
        </mxCell>
        <mxCell id="7eZKOLOASio0npsbyuK4-14" style="edgeStyle=orthogonalEdgeStyle;rounded=0;orthogonalLoop=1;jettySize=auto;html=1;exitX=1;exitY=0.5;exitDx=0;exitDy=0;fillColor=#e3c800;strokeColor=#B09500;strokeWidth=3;" edge="1" parent="1" source="kBLxzkw_PutFiRmcld1j-11">
          <mxGeometry relative="1" as="geometry">
            <mxPoint x="1825" y="656" as="targetPoint" />
          </mxGeometry>
        </mxCell>
        <mxCell id="kBLxzkw_PutFiRmcld1j-11" value="&lt;h1&gt;Pre-Prod&lt;br&gt;&lt;/h1&gt;&lt;p&gt;Azure Data Factory&lt;br&gt;&lt;/p&gt;" style="text;html=1;strokeColor=default;fillColor=none;spacing=5;spacingTop=-20;whiteSpace=wrap;overflow=hidden;rounded=0;perimeterSpacing=2;dashed=1;" parent="1" vertex="1">
          <mxGeometry x="1484" y="616" width="200" height="80" as="geometry" />
        </mxCell>
        <mxCell id="7eZKOLOASio0npsbyuK4-15" style="edgeStyle=orthogonalEdgeStyle;rounded=0;orthogonalLoop=1;jettySize=auto;html=1;exitX=1;exitY=0.5;exitDx=0;exitDy=0;fillColor=#e3c800;strokeColor=#B09500;strokeWidth=3;" edge="1" parent="1" source="kBLxzkw_PutFiRmcld1j-13">
          <mxGeometry relative="1" as="geometry">
            <mxPoint x="1821" y="1106.4" as="targetPoint" />
          </mxGeometry>
        </mxCell>
        <mxCell id="kBLxzkw_PutFiRmcld1j-13" value="&lt;h1&gt;Prod&lt;br&gt;&lt;/h1&gt;&lt;p&gt;Azure Data Factory&lt;br&gt;&lt;/p&gt;" style="text;html=1;strokeColor=default;fillColor=none;spacing=5;spacingTop=-20;whiteSpace=wrap;overflow=hidden;rounded=0;perimeterSpacing=2;dashed=1;" parent="1" vertex="1">
          <mxGeometry x="1484" y="1066" width="200" height="80" as="geometry" />
        </mxCell>
        <mxCell id="kBLxzkw_PutFiRmcld1j-14" value="" style="image;aspect=fixed;html=1;points=[];align=center;fontSize=12;image=img/lib/azure2/databases/SQL_Database.svg;" parent="1" vertex="1">
          <mxGeometry x="1829" y="598" width="73.5" height="98" as="geometry" />
        </mxCell>
        <mxCell id="kBLxzkw_PutFiRmcld1j-15" value="" style="image;aspect=fixed;html=1;points=[];align=center;fontSize=12;image=img/lib/azure2/databases/SQL_Database.svg;" parent="1" vertex="1">
          <mxGeometry x="1821" y="1052" width="73.5" height="98" as="geometry" />
        </mxCell>
        <mxCell id="kBLxzkw_PutFiRmcld1j-16" value="" style="image;aspect=fixed;html=1;points=[];align=center;fontSize=12;image=img/lib/azure2/storage/Storage_Explorer.svg;" parent="1" vertex="1">
          <mxGeometry x="2082.3" y="469" width="58.4" height="68" as="geometry" />
        </mxCell>
        <mxCell id="kBLxzkw_PutFiRmcld1j-17" value="" style="image;aspect=fixed;html=1;points=[];align=center;fontSize=12;image=img/lib/azure2/storage/Storage_Explorer.svg;" parent="1" vertex="1">
          <mxGeometry x="2079.3" y="625" width="58.4" height="68" as="geometry" />
        </mxCell>
        <mxCell id="kBLxzkw_PutFiRmcld1j-21" value="" style="image;aspect=fixed;html=1;points=[];align=center;fontSize=12;image=img/lib/azure2/storage/Storage_Explorer.svg;" parent="1" vertex="1">
          <mxGeometry x="2076.3" y="962" width="58.4" height="68" as="geometry" />
        </mxCell>
        <mxCell id="kBLxzkw_PutFiRmcld1j-22" value="" style="image;aspect=fixed;html=1;points=[];align=center;fontSize=12;image=img/lib/azure2/storage/Storage_Explorer.svg;" parent="1" vertex="1">
          <mxGeometry x="2076.3" y="1109" width="58.4" height="68" as="geometry" />
        </mxCell>
        <mxCell id="7eZKOLOASio0npsbyuK4-1" value="&lt;h1&gt;Tabular Model 1&lt;br&gt;&lt;/h1&gt;" style="text;html=1;strokeColor=default;fillColor=none;spacing=5;spacingTop=-20;whiteSpace=wrap;overflow=hidden;rounded=0;perimeterSpacing=2;dashed=1;" vertex="1" parent="1">
          <mxGeometry x="2011.5" y="556" width="200" height="50" as="geometry" />
        </mxCell>
        <mxCell id="7eZKOLOASio0npsbyuK4-2" value="&lt;h1&gt;Tabular Model 2&lt;br&gt;&lt;/h1&gt;" style="text;html=1;strokeColor=default;fillColor=none;spacing=5;spacingTop=-20;whiteSpace=wrap;overflow=hidden;rounded=0;perimeterSpacing=2;dashed=1;" vertex="1" parent="1">
          <mxGeometry x="2008.5" y="712" width="200" height="50" as="geometry" />
        </mxCell>
        <mxCell id="7eZKOLOASio0npsbyuK4-3" value="&lt;h1&gt;Tabular Model 1&lt;br&gt;&lt;/h1&gt;" style="text;html=1;strokeColor=default;fillColor=none;spacing=5;spacingTop=-20;whiteSpace=wrap;overflow=hidden;rounded=0;perimeterSpacing=2;dashed=1;" vertex="1" parent="1">
          <mxGeometry x="2010" y="1040" width="200" height="50" as="geometry" />
        </mxCell>
        <mxCell id="7eZKOLOASio0npsbyuK4-4" value="&lt;h1&gt;Tabular Model 2&lt;br&gt;&lt;/h1&gt;" style="text;html=1;strokeColor=default;fillColor=none;spacing=5;spacingTop=-20;whiteSpace=wrap;overflow=hidden;rounded=0;perimeterSpacing=2;dashed=1;" vertex="1" parent="1">
          <mxGeometry x="2007" y="1196" width="200" height="50" as="geometry" />
        </mxCell>
        <mxCell id="7eZKOLOASio0npsbyuK4-13" style="edgeStyle=orthogonalEdgeStyle;rounded=0;orthogonalLoop=1;jettySize=auto;html=1;exitX=1;exitY=0.75;exitDx=0;exitDy=0;entryX=0.007;entryY=0.427;entryDx=0;entryDy=0;entryPerimeter=0;fillColor=#e3c800;strokeColor=#B09500;strokeWidth=3;" edge="1" parent="1" source="kBLxzkw_PutFiRmcld1j-7" target="kBLxzkw_PutFiRmcld1j-13">
          <mxGeometry relative="1" as="geometry" />
        </mxCell>
        <mxCell id="7eZKOLOASio0npsbyuK4-16" value="" style="shape=image;verticalLabelPosition=bottom;labelBackgroundColor=default;verticalAlign=top;aspect=fixed;imageAspect=0;image=data:image/png,iVBORw0KGgoAAAANSUhEUgAACAAAAAgACAYAAACyp9MwAAAABGdBTUEAALGPC/xhBQAAACBjSFJNAAB6JgAAgIQAAPoAAACA6AAAdTAAAOpgAAA6mAAAF3CculE8AAAABmJLR0QA/wD/AP+gvaeTAACAAElEQVR42uzdefSld13Y8c/3/u5v9n1+MxOGELICCmFVSoKUUkLCogdEidtBXIvWqpXWA6dVHKGVUqvHpe0Ra49H66k1llqLhgSU9HRBq7EeaVWUBgjZZ8tknZnfcr/9I5nJNstveZ7n3vt5Xi/OCGTufe69n+Av33me9/0+JQAAAADojXpDzBzbvePCxaXhxWVQL661XBIlnl2j7C5Rd8codkeJnVFi42NPiC0RMWtyAEDXy5Yocezx/zQfEcci4nBEHClRj4zq4N4yqF8cjEZfXIqZLzywuP1LV7z5/500NqDvihEAAAAA5HTvzfs2z8wsvTJqvLREvbKW8uKo8cKI2GA6AEAyixHx1xHxf0qpf1Zr+cz6cvIPt13z0BGjAfpEAAAAAACQxLHf2b5zfsO61w9Go9fUUq6OiJdGxNBkAICeqhHx2ajx6RrlfwxmRp+ce/2Ru4wFyEwAAAAAADDFDv3+3MvrqLypRH1TRLwqImZMBQDgrD4TNW6KEh+fu//wfy/Xx5KRAJkIAAAAAACmzJFP7XrhaGnwjoj4poh4nokAAKzK0Yj43RjFb86tO/zx8rpYNBJg2gkAAAAAAKbA3bfsn5tdmH9XlPiuiHiBiQAANLvcqrX8Sh0MfmnfNfd93jiAaSUAAAAAAJhghz4x99oo8b0R8baIWG8iAACtGkXEp2opH9lz9NBvuUUAMG0EAAAAAAATph6IweGr5t5SB+UflaivMhEAgO6VUr8Yo/iFmdmlj+x83bFjJgJMxc8uIwAAAACYDPWGWHdk1+7vqrW8NyIuMhEAgAlQ4v4Yxb8czi7+tBAAmPwfWQAAAACMVb01Zo/cv/ubapT3R8RlJgIAMJEeqqX862Fd/NCuN9z/gHEAk0gAAAAAADBGh2/e/bZayj+PiCtMAwBgOpZwJeqB3bNHPlJeF4vGAUwSAQAAAADAGBz+5O4vq7X8VES8yTQAAKZQib+qtbxn77WHbjQMYHJ+NAEAAADQmYO37NkyWBj90xrl+yJixkQAAKZbjfJbJerf23Pt4btNAxg3AQAAAABARw7+3p43llH9hYh4rmkAAKTyQI3yY3s+fejny4EYGQcwLgIAAAAAgJYd/eTO7Ut15ucj4p2mAQCQ2n9bqjPfdsF1933BKIBxEAAAAAAAtOjIJ3e9ajQa/FqUuMw0AAB64cGo8cN7rjv8i0YBdE0AAAAAANCCeksMj8zvPlBLeV9EzJgIAEDfFoTx7wdLo+/d/eajDxoG0BUBAAAAAEDD7r5l/9zs/PyvR4lrTAMAoNc+N1OX3r7ruvv/r1EAXRAAAAAAADTo0E1zL6+D+tGIcrFpAAAQEQ9HLd+197pDv2EUQNsGRgAAAADQjIM3735XHcSnXfwHAOBJtkSpv37w5j0fqtWXc4F2+SEDAAAAsEa1Rjn4ibkfKyXeH863AABw9oXjR09u3fjO51x953HDANrgD6QAAAAAa1BviHWHd8z9Uo14p2kAALAM/3N+cPKtF17z0BGjAJomAAAAAABYpbs/tn/TcP3J/xRRrjMNAABW4LMzi6M37H7z0TuNAmiSAAAAAABgFe69ed/mmbL02zXi9aYBAMDK1S/WmZlr9r3+4G1mATRFAAAAAACwQvffsmPHwsLsxyPqq0wDAIA1uLMM4vV7rjn810YBNGFgBAAAAADLd/fH9m9aWBz+Fxf/AQBowIV1FJ+67/f2XWoUQBMEAAAAAADLdMenL9w43DD/O1HjNaYBAEBDnh2jpVvu/v0dzzUKYK0EAAAAAADLUG+N2fUPn/ho1HidaQAA0KQScdFwaXjTPTdesMc0gLUQAAAAAAAsw+Gjcz8XEW8yCQAAWvKCmeHi7979sf2bjAJYLQEAAAAAwHkcvHnPj9SI7zEJAABa9pXD9Sd/pR5wDQ9YnWIEAAAAAGd36Ka5b64lfi2cRwEAoCulfHjvtYfeZxDAin98GAEAAADAmd13096XlDL6dETYhhUAgE7VWt+1741HftUkgJUQAAAAAACcwbHf2b5zfnb21oi41DQAABiD4zEor977hkN/ahTAcrl/CAAAAMDT1AMxmB8Ofz1c/AcAYHw2xqj+xtFP7txuFMByCQAAAAAAnubQ1XveF6VcZxIAAIzZFYujwb81BmC53AIAAAAA4EkO3Tz3ilHEp0vEOtMAAGAS1Frfte+NR37VJIDzEQAAAAAAPO7em/dtHsTSn0TE800DAIAJ8nCU8vK91x76nFEA5+IWAAAAAACPm4mlnwwX/wEAmDxbotZfrgdc2wPOzQ8JAAAAgIi47+O7rqoR7zYJAAAm1KsPXrX7e4wBOBe3AAAAAAB673M3Xr5++8yxP42ILzMNAAAm2EMzMXrh7uuO3mEUwJnYAQAAAADove0z9/9ouPgPAMDk27oUg39lDMDZ2AEAAAAA6LX7fm/fpWVp6S8iYr1pAAAwFUp5y95rD91oEMDT2QEAAAAA6LXB0tJPhYv/AABMk1p/tt4Q6wwCeMafcY0AAAAA6KtDN829rka8zSQAAJgylx/eNvd3jQF4OgEAAAAA0Eu1Rqkl/oVJAAAwlevZEu+//5YdO0wCeDIBAAAAANBLB2/e+/aIeLlJAAAwpXbOLwx/yBiAJxMAAAAAAL1TD8SglNH7TQIAgGlWarznnhsv2GMSwCkCAAAAAKB3Dl81d31EvNgkAACYcltmZpbeYwzAKQIAAAAAoHdqxHtNAQCAJKvb77v/lh07zAGIEAAAAAAAPXPfJ3ZdGxEvNQkAAJLYOj8//G5jACIiihEAAAAAfXLw43tujlKvNQkAANIocdeeBw5fWq6PecOAfhsaAQAAANAX99y064URozeYBAAAqdR49sGtu6+POPJrhgH95hYAAAAAQG/M1PLusCMiAAAJlVLebQqAP/ACAAAAvXDHDRduXL/t+F0RsdM0AADIaGZUX7j7zUf/wiSgv9wCAAAAAOiFdduOv6O6+A8AQGKLg/iOiPiHJgH95RYAAAAAQC/UEt9hCgAA5Fa+td4as+YA/SUAAAAAANI7dNPcs0qN15gEAADJ7Tl0eNfrjQH6SwAAAAAApLcUo28I50EAAOiBUZTrTQH6yx98AQAAgPRKlHeYAgAA/Vj7xtf++Q2xziSgnwQAAAAAQGqHPjG3PyKuMgkAAHpix57tO90GAHpKAAAAAACktrQ0elNEFJMAAKAvRjF4oylAPwkAAAAAgNRKFCc/AQDo1xq4xptMAfpJAAAAAACkVW+ImSjxt00CAICeueK+G/deZgzQPwIAAAAAIK2DW3e9MiJ2mQQAAL0zs3StIUD/CAAAAACAvEp5jSEAANBLNb7KEKB/BAAAAABAZq82AgAAekoAAD0kAAAAAABSqjVKRFxlEgAA9NRFd9286znGAP0iAAAAAABSOnTznssiYo9JAADQV7NVEAt9IwAAAAAAcqpLLzMEAAD6rbzEDKBfBAAAAABASrUMrjQFAAD6vSgOa2LomaERAAAAACnV+mJDAACg10viCGti6Bk7AAAAAABZvcgIAADouYuO3LhrmzFAfwgAAAAAgHTqLTGMiOeaBAAAPVeW6sylxgD9IQAAAAAA0rlvfvtzwq0PAQAg6mB0iSlAfwgAAAAAgHRqnb3YFAAAIKJGtTaGHhEAAAAAAOnMxOhiUwAAgIiIYgcA6BEBAAAAAJDOKMqzTAEAACJKhLUx9IgAAAAAAEin1LLbFAAAIKJEWBtDjwgAAAAAgHxKnTMEAACIqBHWxtAjAgAAAAAgnVqrbzkBAMBjrI2hRwQAAAAAQDolYpspAABARERsNwLoDwEAAAAAkFBZbwYAABAREdbG0CMCAAAAACCfUtcZAgAARETEsB5wTRD6wv+zAwAAAPnUIgAAAIDHffG1F1sfQ08IAAAAAIB8aswaAgAAPGb74gNuAwA9IQAAAAAA8ilRDAEAAB5fHj9crY+hJwQAAAAAAAAAAJCAAAAAAAAAAAAAEhAAAAAAAAAAAEACQyMAAAAA0qlGAAAAQP8IAAAAAIB0XP8HAACgj9wCAAAAAAAAAAASEAAAAAAAAAAAQAICAAAAAAAAAABIQAAAAAAAAAAAAAkIAAAAAAAAAAAgAQEAAAAAAAAAACQgAAAAAAAAAACABAQAAAAAAAAAAJCAAAAAAAAAAAAAEhAAAAAAAAAAAEACAgAAAAAAAAAASEAAAAAAAAAAAAAJCAAAAAAAAAAAIAEBAAAAAAAAAAAkIAAAAAAAAAAAgAQEAAAAAAAAAACQgAAAAAAAAAAAABIQAAAAAAAAAABAAkMjAAAAANIZRUQxBgAAAPrFDgAAAAAAAAAAkIAAAAAAAAAAAAASEAAAAAAAAAAAQAICAAAAAAAAAABIQAAAAAAAAAAAAAkIAAAAAAAAAAAgAQEAAAAAAAAAACQgAAAAAAAAAACABAQAAAAAAAAAAJCAAAAAAAAAAAAAEhAAAAAAAAAAAEACAgAAAAAAAAAASEAAAAAAAAAAAAAJCAAAAAAAAAAAIAEBAAAAAAAAAAAkIAAAAAAAAAAAgASGRgAAAABkU40AAABOO2YE0Bt2AAAAAAAAAACABAQAAAAAAAAAAJCAWwAAAAAAObkPAAAAAD1jBwAAAAAAAAAASEAAAAAAAAAAAAAJCAAAAAAAAAAAIAEBAAAAAAAAAAAkIAAAAAAAAAAAgAQEAAAAAAAAAACQgAAAAAAAAAAAABIQAAAAAAAAAABAAgIAAAAAAAAAAEhAAAAAAAAAAAAACQgAAAAAAAAAACABAQAAAAAAAAAAJCAAAAAAAAAAAIAEBAAAAAAAAAAAkIAAAAAAAAAAAAASEAAAAAAAAAAAQAICAAAAAAAAAABIQAAAAAAAAAAAAAkIAAAAAAAAAAAggaERAAAAAOlUIwAAAKB/7AAAAAAAAAAAAAkIAAAAAAAAAAAgAQEAAAAAAAAAACQgAAAAAAAAAACABIZGAAAAAOQziohiDAAAAPSKHQAAAAAAAAAAIAEBAAAAAAAAAAAkIAAAAAAAAAAAgAQEAAAAAAAAAACQgAAAAAAAAAAAABIQAAAAAAAAAABAAgIAAAAAAAAAAEhgaAQAAABARtUIAAAA6Bk7AAAAAAAAAABAAgIAAAAAAAAAAEhAAAAAAAAAAAAACQgAAAAAAAAAACABAQAAAAAAAAAAJCAAAAAAAAAAAIAEhkYAAAAApFONAAAAgP6xAwAAAAAAAAAAJCAAAAAAAAAAAIAEBAAAAAAAAAAAkIAAAAAAAAAAAAASEAAAAAAAAAAAQAICAAAAAAAAAABIQAAAAAAAAAAAAAkIAAAAAAAAAAAgAQEAAAAAAAAAACQgAAAAAAAAAACABAQAAAAAAAAAAJCAAAAAAAAAAAAAEhAAAAAAAAAAAEACAgAAAAAAAAAASEAAAAAAAAAAAAAJCAAAAAAAAAAAIAEBAAAAAAAAAAAkIAAAAAAAAAAAgAQEAAAAAAAAAACQwNAIAAAAgHSqEQAAANA/dgAAAAAAAAAAgAQEAAAAAAAAAACQgAAAAAAAAAAAABIQAAAAAAAAAABAAgIAAAAAAAAAAEhAAAAAAAAAAAAACQgAAAAAAAAAACABAQAAAAAAAAAAJDA0AgAAACCbkREAAADQQ3YAAAAAAAAAAIAEBAAAAAAAAAAAkIAAAAAAAAAAAAASEAAAAAAAAAAAQAICAAAAAAAAAABIQAAAAAAAAAAAAAkIAAAAAAAAAAAgAQEAAAAAAAAAACQgAAAAAAAAAACABAQAAAAAAAAAAJDA0AgAAACAdKoRAAAA0D92AAAAAAAAAACABAQAAAAAAAAAAJCAAAAAAAAAAAAAEhAAAAAAAAAAAEACAgAAAAAAAAAASEAAAAAAAAAAAAAJCAAAAAAAAAAAIAEBAAAAAAAAAAAkIAAAAAAAAAAAgAQEAAAAAAAAAACQgAAAAAAAAAAAABIQAAAAAAAAAABAAgIAAAAAAAAAAEhAAAAAAAAAAAAACQgAAAAAAAAAACABAQAAAAAAAAAAJCAAAAAAAAAAAIAEBAAAAAAAAAAAkIAAAAAAAAAAAAASGBoBAAAAkE41AgAAAPrHDgAAAAAAAAAAkIAAAAAAAAAAAAASEAAAAAAAAAAAQAICAAAAAAAAAABIYGgEAAAAQDbVCAAAAOghOwAAAAAAAAAAQAICAAAAAAAAAABIQAAAAAAAAAAAAAkIAAAAAAAAAAAgAQEAAAAAAAAAACQgAAAAAAAAAACABAQAAAAAAAAAAJCAAAAAAAAAAAAAEhAAAAAAAAAAAEACAgAAAAAAAAAASEAAAAAAAAAAAAAJCAAAAAAAAAAAIAEBAAAAAAAAAAAkIAAAAAAAAAAAgASGRgAAAACkM4qIYgwAABBhbQx9YgcAAAAAAAAAAEhAAAAAAAAAAAAACQgAAAAAAAAAACABAQAAAAAAAAAAJCAAAAAAAAAAAIAEBAAAAAAAAAAAkMDQCAAAAICcqhEAAADQK3YAAAAAAAAAAIAEBAAAAAAAAAAAkIAAAAAAAAAAAAASEAAAAAAAAAAAQAICAAAAAAAAAABIQAAAAAAAAAAAAAkIAAAAAAAAAAAgAQEAAAAAAAAAACQgAAAAAAAAAACABAQAAAAAAAAAAJCAAAAAAAAAAAAAEhgaAQAAAJBSNQIAAIiIiGIE0BcCAAAAACAd1/4BAADoI7cAAAAAAAAAAIAEBAAAAAAAAAAAkIAAAAAAAAAAAAASEAAAAAAAAAAAQAICAAAAAAAAAABIQAAAAAAAAAAAAAkIAAAAAAAAAAAgAQEAAAAAAAAAACQgAAAAAAAAAACABAQAAAAAAAAAAJCAAAAAAAAAAAAAEhAAAAAAAAAAAEACAgAAAAAAAAAASEAAAAAAAAAAAAAJCAAAAAAAAAAAIAEBAAAAAAAAAAAkIAAAAAAAAAAAgAQEAAAAAAAAAACQwNAIAAAAgHSqEQAAANA/dgAAAAAAAAAAgAQEAAAAAAAAAACQgAAAAAAAAAAAABIQAAAAAAAAAABAAgIAAAAAAAAAAEhAAAAAAAAAAAAACQgAAAAAAAAAACABAQAAAAAAAAAAJCAAAAAAAAAAAIAEBAAAAAAAAAAAkIAAAAAAAAAAAAASEAAAAAAAAAAAQAICAAAAAAAAAABIQAAAAAAAAAAAAAkIAAAAAAAAAAAgAQEAAAAAAAAAACQwNAIAAAAgm2oEAAAA9JAdAAAAAAAAAAAgAQEAAAAAAAAAACTgFgAAAABAPu4BAAAAQA/ZAQAAAAAAAAAAEhAAAAAAAAAAAEACAgAAAAAAAAAASEAAAAAAAAAAAAAJCAAAAAAAAAAAIAEBAAAAAAAAAAAkIAAAAAAAAAAAgAQEAAAAAAAAAACQgAAAAAAAAAAAABIQAAAAAAAAAABAAgIAAAAAAAAAAEhAAAAAAAAAAAAACQgAAAAAAAAAACABAQAAAAAAAAAAJCAAAAAAAAAAAIAEBAAAAAAAAAAAkIAAAAAAAAAAAAASEAAAAAAAAAAAQAICAAAAAAAAAABIYGgEAAAAQDrVCAAAAOgfOwAAAAAAAAAAQAICAAAAAAAAAABIQAAAAAAAAAAAAAkIAAAAAAAAAAAgAQEAAAAAAAAAACQgAAAAAAAAAACABAQAAAAAAAAAAJCAAAAAAAAAAAAAEhAAAAAAAAAAAEACAgAAAAAAAAAASEAAAAAAAAAAAAAJCAAAAAAAAAAAIIGhEQAAAADZVCMAAACgh+wAAAAAAAAAAAAJCAAAAAAAAAAAIAEBAAAAAAAAAAAkIAAAAAAAAAAAgAQEAAAAAAAAAACQgAAAAAAAAAAAABIYGgEAAACQTjUCAAAA+scOAAAAAAAAAACQgAAAAAAAAAAAABIQAAAAAAAAAABAAgIAAAAAAAAAAEhAAAAAAAAAAAAACQgAAAAAAAAAACABAQAAAAAAAAAAJCAAAAAAAAAAAIAEBAAAAAAAAAAAkMDQCAAAAIB8qhEAAADQO3YAAAAAAAAAAIAEBAAAAAAAAAAAkIAAAAAAAAAAAAASEAAAAAAAAAAAQAICAAAAAAAAAABIQAAAAAAAAAAAAAkIAAAAAAAAAAAgAQEAAAAAAAAAACQgAAAAAAAAAACABIZGAAAAAKRTjQAAAID+sQMAAAAAAAAAACQgAAAAAAAAAACABAQAAAAAAAAAAJCAAAAAAAAAAAAAEhAAAAAAAAAAAEACAgAAAAAAAAAASEAAAAAAAAAAAAAJCAAAAAAAAAAAIIGhEQAAAADZVCMAAACgh+wAAAAAAAAAAAAJCAAAAAAAAAAAIAEBAAAAAAAAAAAkIAAAAAAAAAAAgAQEAAAAAAAAAACQgAAAAAAAAAAAABIQAAAAAAAAAABAAgIAAAAAAAAAAEhAAAAAAAAAAAAACQgAAAAAAAAAACCBoREAAAAA6VQjAACA044ZAfSFHQAAAAAAAAAAIAEBAAAAAAAAAAAkIAAAAAAAAAAAgAQEAAAAAAAAAACQgAAAAAAAAAAAABIQAAAAAAAAAABAAgIAAAAAAAAAAEhAAAAAAAAAAAAACQgAAAAAAAAAACABAQAAAAAAAAAAJCAAAAAAAAAAAIAEBAAAAAAAAAAAkIAAAAAAAAAAAAASEAAAAAAAAAAAQAICAAAAAAAAAABIQAAAAAAAAAAAAAkIAAAAAAAAAAAgAQEAAAAAAAAAACQgAAAAAAAAAACABIZGAAAAAKRUjQAAAIB+sQMAAAAAAAAAACQgAAAAAAAAAACABAQAAAAAAAAAAJCAAAAAAAAAAAAAEhgaAQAAAJBRNQIAAAB6xg4AAAAAAAAAAJCAAAAAAAAAAAAAEhAAAAAAAAAAAEACAgAAAAAAAAAASEAAAAAAAAAAAAAJCAAAAAAAAAAAIAEBAAAAAAAAAAAkIAAAAAAAAAAAgAQEAAAAAAAAAACQgAAAAAAAAAAAABIQAAAAAAAAAABAAgIAAAAAAAAAAEhAAAAAAAAAAAAACQyNAAAAAEhnZAQAAAD0jx0AAAAAAAAAACABAQAAAAAAAAAAJCAAAAAAAAAAAIAEBAAAAAAAAAAAkIAAAAAAAAAAAAASEAAAAAAAAAAAQAICAAAAAAAAAABIQAAAAAAAAAAAAAkIAAAAAAAAAAAgAQEAAAAAAAAAACQgAAAAAAAAAACABAQAAAAAAAAAAJCAAAAAAAAAAAAAEhAAAAAAAAAAAEACAgAAAAAAAAAASEAAAAAAAAAAAAAJCAAAAAAAAAAAIAEBAAAAAAAAAAAkIAAAAAAAAAAAgASGRgAAAACkU40AAACA/rEDAAAAAAAAAAAkYAcAAAAAIJ2REQAAwGnFCKA37AAAAAAAAAAAAAkIAAAAAAAAAAAgAQEAAAAAAAAAACQgAAAAAAAAAACABAQAAAAAAAAAAJCAAAAAAAAAAAAAEhAAAAAAAAAAAEACAgAAAAAAAAAASEAAAAAAAAAAAAAJCAAAAAAAAAAAIAEBAAAAAAAAAAAkMDQCAAAAIJ9qBAAAcFoxAugJOwAAAAAAAAAAQAICAAAAAAAAAABIQAAAAAAAAAAAAAkIAAAAAAAAAAAgAQEAAAAAAAAAACQwNAIAAAAgnWoEAAAA9I8dAAAAAAAAAAAgAQEAAAAAAAAAACQgAAAAAAAAAACABAQAAAAAAAAAAJCAAAAAAAAAAAAAEhAAAAAAAAAAAEACAgAAAAAAAAAASEAAAAAAAAAAAAAJCAAAAAAAAAAAIAEBAAAAAAAAAAAkIAAAAAAAAAAAgAQEAAAAAAAAAACQgAAAAAAAAAAAABIQAAAAAAAAAABAAgIAAAAAAAAAAEhAAAAAAAAAAAAACQgAAAAAAAAAACCBoREAAAAA2VQjAACA04oRQG/YAQAAAAAAAAAAErADAAAAAJCPLQAAAADoITsAAAAAAAAAAEACAgAAAAAAAAAASEAAAAAAAAAAAAAJCAAAAAAAAAAAIAEBAAAAAAAAAAAkIAAAAAAAAAAAgAQEAAAAAAAAAACQgAAAAAAAAAAAABIQAAAAAAAAAABAAgIAAAAAAAAAAEhgaAQAAABRjAByqdUMIP0/vP3TGwAAnkEAAAAATDun/wGgh9Ya+ggIAADISAAAAABMMqfmAYBWLDcgEAoAADBNBAAAAMC4Oa0OAEysc4UC4gAAACaNAAAAAOiKU+QAQCpnigNEAQAAjJMAAAAAaINT3wBAL51txwBhAAAAXRAAAAAAa+V0NgDAeTw9DBAEAADQBgEAAACwGk5ZAwCsgSAAAIA2CAAAAIDlcEoaAKBFTw4CxAAAAKyWAAAAADgbp56B6VWNAJjiH2F2BwAAYJUEAAAAwJM5vQwAMGHsDgAAwHIJAAAAAKeRAQCmhBgAAIBzEQAAAMCY1Ht/cvN8PX7xaLHsGZSYKxF7apTdUeqWiBjUWrabUqK/37U6RQ8dOn7vX+yto0WDgLUYLcZotBhRR7E0fzxGC8djtHAyRgvHY/HEg7F08pE42/02/EOvq/XF4/M2cAAAHicAAACAFtVay8mDP35JWRxeGbW+OEq8KGpcUktcPL90Yk9EicHg8cc+6f9GRJTiBtaZODEP3dq8/8sNAdpe54wWY+nEg7F4/MFYfPT+mH/4UCw8eCgWHjkco6WFyfjnb2/WnNYcAAD0aw0MAACdqIc+vPXkwvxVpcbVJeLVNeKVEbHNZACA/iyIaiw8ejROPnBPzN9/Z5x84J5YeOTIxL/tbCdKhQAAPNlgVHZe8u3HjpkE5GcHAAAAWINaDwwW7hm8rNZyTYm4Zn5h/rWlxmzE2TbEBQBIrpSY3bw7Zjfvjtj/ooiIWJp/NE7ef0ecOHp7HD/4+Viaf3jy1nXn+1hTt049/bcDAIA+LceNAAAAVqbWA8OTd5fXRcxcH1HfWiL2mAoAwHIXU6M4+cA98eh9fx2P3vfZWDr5yFR/nGk6wSoGAOgvOwBAf1jyAQDAMs3f8YG/MZoZfFvU+nUu+gMANKDWOHHsrjh+z1/GI/f9ZYwW51N8rEk/6SoEAOgfAQD0h6UeAACcQz1yYNvCycE31lq+JyJeZiIAAC2tu0aLcfzQbfHwnZ+JE0dvT/f5JvFErBAAoD8EANAfQyMAAIBnOnHfgUsHi4MfnD9RvjMiNpsIAEC7ymAYm/Y9Pzbte37MP3QwHrr91nj03r+KWpdSfL769M87Ce+pigAAANKtq40AAACeMH/nP3lVjfrDUeJtETEwEQCA8Vk68VA8ePufxCN3/VmMlhbSfs5JOEkrBADIzQ4A0B+WdQAAEBEn7/jAlTFTfjRqfL11MgDAZFmaPx4P3v7H8dDt/zvqaPEpv5ftwvW4P44QACAnAQD0h+UcAAC9dvLun3hB1KUPRcRbrY8BACbb0slH4oHP/0E8fNdnoo5GazrWNFzoHudbFAIA5CIAgP6wjAMAoJfq7R/aOT9cfG9E/FBErDMRAIDpsfDI0Tj6V/81jh/+fGuvMWkXwMfxdkQAAHnMCACgNyzhAADolVoPDBbumnl3LfHBiNhtIgAA0+vRQ7fF0c9+KhaPP9Dp6477wnjXLy8EAJh+AgDoj6ERAADQFyfuOHD5wj2DX6ylvs40AACm36Y9l8bG3RfFsdv+IB744q0RddTJ69b6zL/W5UXyUy/f1UvWKgIAAJgWAgAAANKrt35kdv6Cg++LUv9xrbHeRAAA8iiDYey84jWxae8VceTPb475hw+PZ835tCigiwvmXYYApz6fEAAAYMLXx0YAAEBmx+/94CVlqf67EvFq0wAAyK3WpXjg8/8rjn3+D8/8Nf0x6urCeUn0WQBojlsAQH8MjAAAgKzm7/zAtw6W6mdc/AcA6IdSZmLHZVfHBa/4+phZv2Wi3lutT/3V2uvEEzsDtP1ZAACYwDWxEQAAkE09eGDL/PzML0XUbzANAIB+Wpp/NA595sY4cfT2iX+vbX6jvkzxewegOTPVDgDQF3YAAAAglRN3fPCK+fnBp138BwDot5l1m+KCV7w9dlx6VUSUJ74af7ZfY9TmzgBtfzw7AQAATBYBAAAAaZy484NfXUr944i40jQAAIgyiB2XXx17X/I1MRjOnvuxExIHtBUD1A7eMwAA4ycAAAAghRN3fPAHS9T/HBHbTQMAgCfbtO+KuOCV3xwzG7au7gBjCgOavrBuNwAAgPwEAAAATLVab5iZv+sDP1tK/ZmImDERAADOZN3Wudj/qm+Jddv2NrgYjU6CgKZ3BWjz7YoAAADGSwAAAMDUqp/7ufXzd3/2N2uNHzANAADOZ2b95rjgK78hNuy8sKUFarQeBDQdArT1HgEAGA8BAAAAU6nefWDT/KZjvx01vtY0AABYrsFwXez7iq+LTXsv62DRGq0FAU2FAG21Ck3fvgAAgGWud40AAIBpU+/9yc0Lo8HHosZ1pgEAwEqVwTD2vPRrYvO+53W8kI3Gr7g3GQK08pFFAAAAnRoaAQAA06QePLBlfv7RmyPiatMAAGC1ShnE3IvfHPUzNR6573OP/bVOF7ZPfjMNHK6e+lxrf0tNz6HWtb0vAACWzw4AAABMjfrnB9bNL5T/GC7+AwDQgDIYxJ6XvDk27rn0sfXmWX61v9Bt7sWa2BGgrVsCAADQPgEAAABTod76kdn57YOP2vYfAIAmlTIT+1761bFh13POvhaNDsOACQkB2viMIgAAgPYJAAAAmHi11jL/rHt/OaJ+tWkAANC0MhjGvpe9NdZt3bOydWq0GAQ0dOBJ2w1ABAAA0C4BAAAAE2/+rh//QNT4FpMAAKAtg+G6uOAVb4+ZDVtXfYzWgoA1HrCJ3QAa/TgiAACA9ta1RgAAwCSbv+vHvz2i/IhJAADQtpn1m+OCV7w9BsP1jRyv8RhgjCFA01GDCAAAoB0CAAAAJtbC3Qe+qtb4iEkAANCVdVt2x54r3xgRpdHjNhoDNBACrOWlG5uJCAAAoHECAAAAJtLDXzhwwWhU/kNEzJoGAABd2rT3sth+6Stbu0DdWAywhoOIAAAAchIAAAAwceqtH5kdDssNEfFs0wAAYBx2XX51bJy75PS2+U/+1ejaN8YXAqz1lgCNzUAEAADQGAEAAAATZ+GCez9cSrzGJAAAGJtSYu9L3hgzG7Y847faCAIa2RWg490ARAAAAJNnaAQAAEySE3f9+BtGNf6+SQAAMG6D2Y2x9yVviXv+6Dcj6uisj3v6xetS1va6pw5XOnzyqc+w0vdeV/s+AQBohQAAAICJ8eDdB+ZiVH8lnEMEAGBCbNi5P3Zc8vI49vlbl/2cJwcBa4kB1hwCrOKJtY4vAljNawMA8FQCAAAAJsa6pfg3EfEskwAAYJLsuPzqOH7oS3HywYMrfm4TMUBd7fPXcEsAEQAAwHQaGAEAAJPg5JcOfGNEvM0kAACYNKXMxNyV10UpM2s6Tq1P/FrL87uwmtepY3xtAAAeIwAAAGDsHrzzJ3bXQfyMSQAAMKnWbZ2L7Ze8vLHjrSUG6CoEEAEAAEwfAQAAAGO3fjT/01Fjn0kAADDJdlz+qhhu2RU1mrvQHTHZIcBqXsO1ewCA8REAAAAwVse/dOBv1hLfahIAAEy6MhjG3Atee/q/16f9Wqu1hABtG0cEYBcAAICVEwAAADA2tR4YlEH8tEkAADAtNs5dHJv2Xnrm9W00EwOs6lv3He0GsKLHj+E1AQD6TgAAAMDYnLizfGfUeIVJAAAwTXa/4LVRBsNzPqaJGGC1IUCbRAAAAJNNAAAAwFjUQx/eWkr9oEkAADBtZjftiG0XvXj5a99YWwyw0hCg7d0AxhEBAACwPAIAAADGYv74iR+IGvtMAgCAabTz0lfGYLhuxc/rOgRoS9cRgF0AAACWRwAAAEDn6m3/bPuo1PeYBAAA02qwbmNsu+ilq18Tx+pjgJWEAG3uBtD1RXkRAADA+Q2NAACArp1Yf+IflBq7TAIAgGm2/dKviAdu/7MYLZ1c03FOXdcuK31ejSil+ce29h5W8RkBAFgZAQAAAJ2qt713+8laf9AkAACYdjPDdbH9uS+Jo7f90em/tpaL7KsJAU59K345r9tWBLDSz7iWtzAJnwEAYJK5BQAAAJ06ObvxuyNim0kAAJDB9ue+NMrgie9Zndpyfy1b76/m1gAruSVA01Z6zNrx6wEA9IkAAACAztRb/85slPr9JgEAQBYz6zfF1me/4Oxr4A5DgD5FAAAAnJkAAACAzszvu+D6iLjIJAAAyGTHJa847770a9kVYKURwHJeYy1hwrmO2RW7AAAAnJkAAACALpef32cGAABks27zzti4+8JlP341F9+nZTeAlRzPrQAAAJo3NAIAALpw8ksHXlSjXmUSAABktO05V8bxw19a0XNOXcA+z+YBT33O4/9elnn85Rx7uY9byeda7vHqMj8LAGvlpy30hR0AAADoRC31u00BAICstuy7LGbWbVzdWnmVOwI0eexpvR2AXQAAAJ5KAAAAQOvqFw5siCjvNAkAALIqZSa27v/yta2ba3tb6I8jAmjjcwAAcG4CAAAAWjc/HL0lou40CQAAMtuy/wWnL+Kv5WL6Sp5fY2W7ATTxmGjw9Z78Obp4HQCA7IZGAABA20a1XO9OcwAAZLdh296Y3bQjFh45FhFPXJguq1wM17r859ZY3t2dl3PMlbxuk58BgBb5WQy9YQcAAABaVe8+sKlEeYtJAADQB1sveN4z18Rr2BVgpbsBLPeYTTym8T87rOW5dgEAAIgIOwAAANCy+YV4c5TRZpMAAKAPtjzreXH0tj866++vdleA5X6T/tR18NLQ8ZrQxk4G4/5MAACTyg4AAAC0q9SvMQQAAPpi/ba5GG7cet7HrWZHgKZ3AzjfsZr8Vr1v6AMAdEMAAABAa2qNUqO+wSQAAOiTTXueu5I186pCgGU9roFjuRUAAMB0EQAAANCahdsPvCwinmUSAAD0yea5i1f8nD5EACs5juv4AACrIwAAAKA1dbD0RlMAAKBvNs1dFKWs/NTrSncDWO7jpzUCAABg5QQAAAC0pkb5W6YAAEDfDIbrYv22PatfR7ewG8A03g6gdjQ/AIBUa1EjAACgDbW+YyYiXmkSAAD00YZd+6M+/q/VradXvhvAeR8zMX9W8L8PAIC2CAAAAGjFwl0vvDIitpsEAAB9tGHH/tP/ea0hQJOPrWs8Rte3ArALAADAyggAAABoxWg0usoUAADoq0279j/jr602BFjJbgDTFAEAANA8AQAAAK0oUb7CFAAA6KuZ9ZtjuGHLGX+v7d0AmrhA38VFfrsAAAA0TwAAAEArRlFfbAoAAPTZ+q1zZ/29tewG0MTj1npt3MV1AIDJJAAAAKBxtb5jpkR8uUkAANBn67fNnX/tvIoQoKsIoItbAdgFAACgWUMjAACgaSfvfv7lEXWTSQAA0Gfrt8wt+7E1apQoy398jShl7Y+rEed81eW+DgAAk8EOAAAANG8pnm8IAAD03eyWnSt6/DTuBDANuwAAAPSJAAAAgObVcrEhAADQd7Mbt618Kb3CWwI0FQGsafk/4Vfm3QYAAOgTAQAAAM0rAgAAAJhZtzEGw9lVPbeNCODcr9f+a4zz+AAAfSEAAACgBfUSMwAAgIjZDdtXv6puOAKY9FsBLG8mq3yewAAA6ImhEQAA0LRay4XFHToBACCGG7bEyYcOP/ZfyirW1lGjLPOJtUaUsrbH1NW9zYb+HHH+9w8AwHnWn0YAAEDTStQ9pgAAABGD2Y1PfG19lVfXu44AVvvcri7gjzNSAJhafnBCf9afRgAAQAt2GwEAAEQM12946l+osap97Ju+HcC5X2t82tyq320AAIA+EAAAANCo+rnvXx8RW0wCAAAiBsONZ1k4r2Kt3WAEsJaL4ed6rovsAABjXn8aAQAATXp0dusuUwAAgMfMrNtw9t9sOQI477Fqo2+tUzoDAIAzEwAAANDwAnOwwRQAAODx9fFg5twPWMUtAZYbAbR5K4A2dwFwGwAAgDWsP40AAIBGF5h1uN4UAADgcTPD5T1uTBGAC+IAALkMjQAAgGZXmPPrYqQzBQCAiIgyGCz/2n6NiLL8Y9eoUVbyhLMdp0aUsvK3dM7nneP31vqeVjkuAIBecGYWAIBGldHMrCkAAMDj6+Pz3QLg6VrYCcC3/AEA+kMAAABAwyvM0YwhAADAY8pqvgbfwgX7tdwKoK72eRMaHggiAIDMBAAAAAAAAJOmruShOa9oL+dCvWv5AABPJQAAAAAAAJhEDUcAdgEAAMhPAAAAAAAAMKk6jgB6M1ZzAACSEgAAAAAAABAR7ewC0Nb7Wc77AgDoGwEAAAAAAEBLascHmcRdAHzbHgCgOwIAAAAAAIAW1Yk5yDJfygV7AICpNTQCAACatBgRxRgAACAinrhuX5tYJy/zIDVqlPM8sNaIUpp9C6s95nlfcxnHXc1823q/AADjZAcAAAAAAIAO1E5fa22v1vQuAHYVAADohh0AAABogbN7AABwprXxmncCaGQrgccPNUW7AAAAsDx2AAAAAAAA6FDt6AA1UZhrBwEAgOWxAwAAAM1aCJkpAACcMoozXrBv8Iv8rWn62/xt7w6wmpnasQAAyMapWQAAAACAMagdPPl8uwCs9pv1tYVjAgCwdgIAAAAAAADOyMV8AIDpIgAAAAAAABiTOrYnP+kwHV7kX8triREAAM5PAAAAAAAAMEa19ePXqXzfWd4TAECXBAAAAAAAANOqgyveq/nm/TR9W9/OAgBAJgIAAAAAAIAxG/cuAC6CAwDkIAAAAAAAAJgAtfMnjuc9iw0AANojAAAAAAAAYCqIBwAAzk0AAAAAAAAwIdrcBWAttwFYzYV3F+sBALo3NAIAAJrnTB8AADC+P40UYwAAesoOAAAAAAAAE6R6vwAArJIAAAAAAAAggwZuA3DO5zZ4pX/Sbg/gdgUAQBYCAAAAAACACTOu69FNXwhv48K6i/UAAGcnAAAAAAAAAACABAQAAAAAAABZtHwbgDW8LAAAHRAAAAAAAABMIBfVzQ4AYKUEAAAAAAAAnFbr6n6vydeZtM8NADAtBAAAAAAAABMqwzVpF9YBALojAAAAAAAAyKQHF9xFBQAAZzY0AgAAGudkHAAAPLE2rpP4tmqUUqzpAQCSsQMAAAAAAABrphkAABg/OwAAANACp/4AAKCptXGNiNLJk5b39FojSvF3FgBgEgkAAAAAAABaJI89x2xajAnW2EAAAEwltwAAAAAAAKBVVQUBANAJAQAAAAAAQA9VV+XPMBMzAACmmwAAAAAAAGDCuS4NAMByCAAAAAAAAGiEUAEAYLwEAAAAAAAAGSW/Gm+7fgCAZxIAAAAAAADwDK6vAwBMHwEAAAAAAAAr4tv3AACTSQAAAAAAAAAAAAkIAAAAAAAApkAbX7qvE/BVfrsJAAA0Z2gEAAA0ayF0pgAAcIqr26cnUSNK6X76xegBgB5xZhYAAAAAAAAAEhAAAAAAAAAAAEACAgAAAAAAAAAASEAAAAAAAACQVe3+6dXUAQDGRgAAAAAAAAAAAAkIAAAAAAAAAAAggaERAADQOHt+AgCA9TEAAJ2zAwAAAAAAACtWhQ0AABNHAAAAAAAAAAAACQgAAAAAAAAAACABAQAAAAAAAFPJbQgAAJ5qaAQAADTPWTgAALA2BgCga3YAAAAAAADosepr9E+bhxkAANNLAAAAAAAAwFi56A4A0AwBAAAAAAAAnXChHwCgXQIAAAAAAAAAAEhAAAAAAAAAMCV8gR4AgHMRAAAAAAAAAABAAkMjAACgab6VBAAAAADQPTsAAAAAAAAAAEACAgAAAAAAAAAASEAAAAAAAABAWm5RBgD0iQAAAAAAACAzV8ABAHpjaAQAADTPGUYAAAAAgK7ZAQAAAAAAAAAAErADAAAAAABAiyZhf6wyBe8RAIC1EwAAANA8Zw8BAOAxoxpRp3uBXOP8AQEAAJPBLQAAAAAAAAAAIAEBAAAAAAAAjbIpGADAeAgAAAAAAAAAACABAQAAAAAAAAAAJCAAAAAAAAAAAIAEBAAAAAAAAAAAkIAAAAAAAAAAAAASGBoBAADNq0YAAADWxgAAdMwOAAAAAAAAAACQgAAAAAAAAAAAABIQAAAAAAAAAABAAgIAAAAAAAAAAEhAAAAAAAAAAAAACQgAAAAAAAAAACABAQAAAAAAAAAAJCAAAAAAAAAAAIAEBAAAAAAAAAAAkIAAAAAAAAAAAAASGBoBAACNq0YAAADWxgAAdE0AAABAC5zlBACA02tjy2MAADriFgAAAAAAAAAAkIAAAAAAAAAAAAASEAAAAAAAAAAAQAICAAAAAAAAAABIQAAAAAAAAAAAAAkIAAAAAAAAAAAgAQEAAAAAAAAAACQgAAAAAAAAAACABAQAAAAAAAAAAJCAAAAAAAAAAAAAEhgaAQAAzVoInSkAAAAAQPecmQUAAAAAAACABAQAAAAAAAAAAJCAAAAAAAAAAAAAEhgaAQAAAABAO+rjvwBgnI4ZAfSGHQAAAAAAAAAAIAEBAAAAAAAAAAAkIAAAAAAAAAAAgASGRgAAQKMWQmYKAACnVCMAAKA7AgAAAAAAgDaJAAAYt2NGAH3hu1kAAAAAAAAAkIAAAAAAAAAAAAAScAsAAABaYI9TAACwNgYAoGt2AAAAAAAAAACABAQAAAAAAAAAAJCAAAAAAAAAAAAAEhAAAAAAAAAAAEACAgAAAAAAAAAASGBoBAAANK0aAQAAWBsDANA5OwAAAAAAAAAAQAICAAAAAAAAAABIQAAAAAAAAAAAAAkIAAAAAAAAAAAgAQEAAAAAAAAAACQwNAIAAJpXjQAAAKyNAQDomB0AAAAAAAAAACABAQAAAAAAAAAAJCAAAAAAAAAAAIAEhkYAAEDj3OYUAAAAAKBzAgAAAAAAgLbUaD6QLat8HwAApOcWAAAAAAAAAACQgAAAAAAAAAAAABIQAAAAAAAAAABAAgIAAAAAAAAAAEhAAAAAAAAAAAAACQyNAACA5lUjAAAAa2MAADpmBwAAAAAAAAAASEAAAAAAAAAAAAAJCAAAAAAAAAAAIAEBAAAAAAAAAAAkMDQCAAAAAID2VCMAAKAjdgAAAAAAAAAAgAQEAAAAAAAAAACQgAAAAAAAAAAAABIQAAAAAAAAAABAAgIAAAAAAAAAAEhAAAAAAAAAAAAACQyNAACA5lUjAAAAAADomAAAAIDmuf4PAADWxgAAdE4AAAAAAADQJhEAAAAdGRgBAAAAAAAAAEw/AQAAAAAAAAAAJCAAAAAAAAAAAIAEBAAAAAAAAAAAkIAAAAAAAAAAAAASEAAAAAAAAAAAQAICAAAAAAAAAABIQAAAAAAAAAAAAAkIAAAAAAAAAAAggaERAADQrMWIKMYAAAAREVGNAACAztgBAAAAAAAAAAASEAAAAAAAAAAAQAICAAAAAAAAAABIQAAAAAAAAAAAAAkIAAAAAAAAAAAgAQEAAAAAAAAAACQgAAAAAAAAAACABAQAAAAAAAAAAJDA0AgAAGhcNQIAALA2BgCgawIAAAAAAIA29TUCKOYBANA1AQAAAC1wRg8AAKyNAQDomgAAAAAAAKBVkxABlCl4jwAArNXACAAAAAAAAABg+gkAAAAAAAAAACABtwAAAKBxNg8FAABrYwAAuicAAAAAAABokQgAAICuuAUAAAAAAAAAACQgAAAAAAAAAACABAQAAAAAAAAAAJCAAAAAAAAAAAAAEhAAAAAAAAAAAEACAgAAAAAAAAAASGBoBAAANK8aAQAAAABAx+wAAAAAAAAAAAAJCAAAAAAAAAAAIAEBAAAAAAAAAAAkIAAAAAAAAAAAgASGRgAAQOOqEQAAAAAAdE0AAAAAAADQJoEsAAAdcQsAAAAAAAAAAEhAAAAAAAAAAAAACQgAAAAAAAAAACABAQAAAAAAAAAAJCAAAAAAAAAAAIAEhkYAAEDzqhEAAIC1MQAAHbMDAAAAAAAAAAAkIAAAAAAAAAAAgAQEAAAAAAAAAACQgAAAAAAAAAAAABIQAAAAAAAAAABAAgIAAAAAAAAAAEhAAAAAAAAAAAAACQgAAAAAAAAAACABAQAAAAAAAAAAJCAAAAAAAAAAAIAEhkYAAECzFkJnCgAAp1QjAACgM87MAgAAAAAAAEACdgAAAKBZixFRjAEAACLCBgAAAHRKAAAAAAAA0JYaIgAAADrjFgAAAAAAAAAAkIAAAAAAAAAAAAAScAsAAAAAAIAWTcMdAMqEf4Yy5fMFAOiKHQAAAAAAAAAAIAEBAAAAAAAAAAAkIAAAAAAAAAAAgAQEAAAAAAAAAACQgAAAAAAAAAAAABIYGgEAAM2rRgAAAAAA0DE7AAAAAAAAAABAAgIAAAAAAAAAAEhAAAAAAAAAAAAACQgAAAAAAAAAACABAQAAAAAAAAAAJCAAAAAAAAAAAIAEBAAAAAAAAAAAkIAAAAAAAAAAAAASEAAAAAAAAAAAQAJDIwAAoHHVCAAAwNoYAICuCQAAAGiBs5wAAHB6bWx5DABAR9wCAAAAAAAAAAASEAAAAAAAAAAAQAJuAQAAQKMWQmUKAACn2P0fAIAuOTcLAAAAAAAAAAkIAAAAAAAAAAAgAQEAAAAAAAAAACQgAAAAAAAAAACABAQAAAAAAAAAAJCAAAAAAAAAAAAAEhAAAAAAAAAAAEACAgAAAAAAAAAASGBoBAAANK8aAQAAWBsDANAxOwAAAAAAAAAAQAICAAAAAAAAAABIQAAAAAAAAAAAAAkIAAAAAAAAAAAgAQEAAAAAAAAAACQgAAAAAAAAAACABIZGAABA46oRAABAREStlscAAHRHAAAAAAAA0CYFAAAAHXELAAAAAAAAAABIQAAAAAAAAAAAAAkIAAAAAAAAAAAggaERAADQPDc5BQAAa2MAALpmBwAAAAAAAAAASEAAAAAAAAAAAAAJCAAAAAAAAAAAIAEBAAAAAAAAAAAkIAAAAAAAAAAAgAQEAAAAAAAAAACQgAAAAAAAAAAAABIQAAAAAAAAAABAAgIAAAAAAAAAAEhAAAAAAAAAAAAACQyNAACAZi2EzhQAAAAAoHvOzAIAAAAAAABAAgIAAAAAAAAAAEhAAAAAAAAAAAAACQyNAACAxlUjAAAAAADomgAAAAAAAKAtNXIEsuUcnw8AgInhFgAAAAAAAAAAkIAAAAAAAAAAAAASEAAAAAAAAAAAQAICAAAAAAAAAABIYGgEAAAAAABtqg0fr0zAewAAYBLZAQAAAAAAAAAAErADAAAALfDtIgAAsDYGAKBrdgAAAAAAAAAAgAQEAAAAAAAAAACQgAAAAAAAAAAAABIQAAAAAAAAAABAAgIAAAAAAAAAAEhAAAAAAAAAAAAACQgAAAAAAAAAACCBoREAAAAAALSnGgEAAB2xAwAAAAAAAAAAJCAAAAAAAAAAAIAE3AIAAIBmLYTMFAAATrH/PwAAHRIAAADQuOosJwAAnF4dAwBAVwQAAAAAAABt0gAAMG7FCKAvbM4KAAAAAAAAAAkIAAAAAAAAAAAgAQEAAAAAAAAAACQgAAAAAAAAAACABAQAAAAAAAAAAJCAAAAA/j97dxOr6XneBfy63/c57znzPeNxbCe24klMnLaEwI6kKkJClIZFpYKUElUskPgoVYuEFJAqFmgk1DhxolTKAqWCBYuuugDEEoSEgC3LsIlI6zqe45gkHn/NzHnPx83CYycljmOPz/ucc/737ycdxXJkZ+Yf2ff9vO//uS4AAAAAAIAACgAAAAAAAAAAEEABAAAAAAAAAAACKAAAAAAAAAAAQIBJBAAAHL8uAgAAAACAmZkAAAAAAAAAAAABFAAAAAAAAAAAIIACAAAAAAAAAAAEUAAAAAAAAAAAgAAKAAAAAAAAAAAQQAEAAAAAAAAAAAIoAAAAAAAAAABAgEkEAAAcuy4CAABwNwYAYG4mAAAAAAAAAABAABMAAAAAAAA2yRQAAE5aEwGMwgQAAAAAAAAAAAhgAgAAABvgFScAAHA3BgBgbiYAAAAAAAAAAEAABQAAAAAAAAAACKAAAAAAAAAAAAABFAAAAAAAAAAAIIACAAAAAAAAAAAEUAAAAAAAAAAAgAAKAAAAAAAAAAAQQAEAAAAAAAAAAAJMIgAAAAAA2JwuAgAAZmICAAAAAAAAAAAEUAAAAAAAAAAAgABWAAAAcMz2S88UAADeYgEAAADz8cksAAAAAAAAAARQAAAAAAAAAACAAAoAAAAAAAAAABBgEgEAAMfOmlMAAAAAgNmZAAAAAAAAAAAAAUwAAAAAAADYpNMwIaudgV8jAAAfmAkAAAAAAAAAABBAAQAAAAAAAAAAAigAAAAAAAAAAEAABQAAAAAAAAAACDCJAACA49dFAAAA7sYAAMzMBAAAAAAAAAAACKAAAAAAAAAAAAABFAAAAAAAAAAAIIACAAAAAAAAAAAEUAAAAAAAAAAAgAAKAAAAAAAAAAAQQAEAAAAAAAAAAAIoAAAAAAAAAABAAAUAAAAAAAAAAAgwiQAAgOPWRQAAAO7GAADMzgQAAAAAAAAAAAhgAgAAABvgPScAAAAAgLkpAAAAcPx8/w8AAO7GAADMTgEAAAAAAGBTeikBAAAwm4UIAAAAAAAAAODsUwAAAAAAAAAAgAAKAAAAAAAAAAAQQAEAAAAAAAAAAAIoAAAAAAAAAABAAAUAAAAAAAAAAAigAAAAAAAAAAAAASYRAAAAAABsRr//AwAAc1AAAABgA3zECQAA7sYAAMzNCgAAAAAAAAAACKAAAAAAAAAAAAABFAAAAAAAAAAAIIACAAAAAAAAAAAEUAAAAAAAAAAAgAAKAAAAAAAAAAAQQAEAAAAAAAAAAAIoAAAAAAAAAABAgEkEAAAcuy4CAABwNwYAYG4mAAAAAAAAAABAABMAAAAAAADOElMFAAD4KRQAAAA4Zgdl0BQAALzFt/UAAMzHJ7MAAAAAAAAAEEABAAAAAAAAAAACKAAAAAAAAAAAQAAFAAAAAAAAAAAIoAAAAAAAAAAAAAEUAAAAAAAAAAAggAIAAAAAAAAAAASYRAAAAAAAcJZ0EQAA8I5MAAAAAAAAAACAAAoAAAAAAAAAABBAAQAAAAAAAAAAAkwiAADg+NlJCgAAAAAwNxMAAAAAAAAAACCAAgAAAAAAAAAABFAAAAAAAAAAAIAACgAAAAAAAAAAEGASAQAAx2q/1EwBAAAAAE6Aj2YBAAAAAAAAIIAJAAAAAAAAm9RFAADAPEwAAAAAAAAAAIAACgAAAAAAAAAAEEABAAAAAAAAAAACTCIAAOD4WXIKAABv3Y0TbsfNzR8A4EwwAQAAAAAAAAAAAigAAAAAAAAAAEAABQAAAAAAAAAACKAAAAAAAAAAAAABFAAAAAAAAAAAIIACAAAAAAAAAAAEUAAAAAAAAAAAgAAKAAAAAAAAAAAQYBIBAADHrYsAAADcjQEAmJ0JAAAAAAAAAAAQQAEAAAAAAAAAAAJYAQAAwAYYdAoAAO7GAADMzQQAAAAAAAAAAAhgAgAAAMfPS04AAOBuDADA7EwAAAAAAAAAAIAAJgAAAAAAAGySKQAAAMzEBAAAAAAAAAAACKAAAAAAAAAAAAABFAAAAAAAAAAAIIACAAAAAAAAAAAEUAAAAAAAAAAAgAAKAAAAAAAAAAAQQAEAAAAAAAAAAAJMIgAA4Ph1EQAAgLsxAAAzMwEAAAAAAAAAAAIoAAAAAAAAAABAAAUAAAAAAAAAAAigAAAAAAAAAAAAARQAAAAAAAAAACCAAgAAAAAAAAAABFAAAAAAAAAAAIAACgAAAAAAAAAAEEABAAAAAAAAAAACTCIAAODYdREAAIC7MQAAc1MAAADgmO2XQVMAAAAAAPNTAACoqv7tb2zvndt/shaHNxa1uNGr36hWj1XVw9XrelVdb9Wv9mqr+3/J1apqkgMA5r209Op1dP+Pj6ofHlY/2q86uv+fh/vVD9fVD/fq6GDvzT/XvXYIACd7fjuOATh57RUZwCgUAIDxnrtvfe3hvdb/cuvtL1arT1fvn17X3ida1VTVqr81m6///8/rvu8HAE5Ya9Vqef+Pl9UWW1W18y4Xn15HB3fqaP9u9f27dbR/p/r6jer9SJYAAAAAgRQAgHh3vvuVJ6a2+OW+aL9Uvf/iuvonW6/2ZgVfPgBAsNZqsXWhFlsXfvTneq+j/Tt1tH79zZ97r1XvB7ICAAAACKAAAMTp/Y+W97733F9dHNbnqvXPVbW/0N/8L4QDANBaLVYXarG6UFWPVvVeh/uv19G9V+vo3it1tH9HRgAAAABnlAIAEKH3m4uD3Yu/2Kt/fr373K8vqh57c2K/sf0AAO+qtVquLtVydanq8uPVD9d1dO92Hd55uQ7Xr8kHAAAA4AxRAADOtHvPf/3PteXR31/v9r9X1R+TCADAB9OWq1peeKSWFx6pvn+3Du58vw7v/KD6kTUBAAAAAKedAgBw5vR+c1q/eP5vtarf7P3gr5XX/AEANqJt7dTWlSdq68pH6vDu7Tp84/t1uGcqAAAAAMBppQAAnBn9pZsX9w/O/8Z6t3+xqp7uIgEAmMmilucequW5h+po/04dvv5SHdz9YVV3IwMAAAA4TRQAgFOvP/fMtfXW4ovrg/bbVXXVC/8AACdnsXW+Ftdu1HTpI3Xw+ot18Mb3q0oRAAAAAOA0UAAATq3+0s2L6/1zv71u7Xer6qpEAABOjzatauvqR2u69FgdvLZbB3d+YCIAAAAAwAlTAABOnd7/YGtv99XfWh/0f1mtrksEAOD0astVbV19sqaLj9b+Ky/U4b3bQgEAAAA4IQoAwKly74Wv/vX17iu/36o+JQ0AgLOjTTu1uv5UHe29Wvu3n6+jg7tCAYCqsioHAIA5KQAAp8Kd737lieWy/evq/VelAQBwdi22L9f2I79QB2+8VAevvlC9HwkFAAAAYCYLEQAnqffe1ree/UfLRftW9fLlPwBAgtZquvhobT/yqVpsX5YHAAAAwEwUAIATc+97z3x8b/dr/71X/UFV+WQYACBMm1a1/fDTtXXtY9UWS4EAAAAAbJgCAHAi9naf/Xw7XP6vVv2XpAEAkG06f722H/mFWq4uCgMAAABggyYRAHPqf/z7V9c7+9+sXn9HGgAA42jL7Vo9/Mk6eG239l/frepdKAAAAADHTAEAmM3erS/93LrW/756/bw0AAAG1Kqmyx+utn2x1i9/p+rwQCYAAAAAx0gBAJjF3gtf/kJV+7dVdUEaAABjW25fqp0P/Xytf/CdOlq/IRAAshl6AwDAjBQAgM0+4/abi/Wtc1+uVv9cGgAAvKUtV7X9oU/W+uU/qcM7PxQIAAAAwDFQAAA2pn/7G9vrW3f/XVV9QdsdAICf1Gp17UYdTDu1/+pueUUSgFiOOAAAZqIAAGzmuXb3Sx9aH939T1X1GWkAAPDTtZoufbhquar9l58r35AAAAAAPDgFAODYvfEnv/fh9dHyv1TVn5cGAADv6eH0/PVaLKZa//D/VO9HAgEgiHIbAADzWYgAOE53d5+5Ma2m/1G+/AcA4P0+oO5cqa3rT1dbLIUBAAAA8AAUAIBjc++Fr3xycdT+Z/V6ShoAADyI5fbFWl3/RLWmBAAAAADwfikAAMfi7q0vf7RV/eeq9rg0AAD4QA+qq4u1evjpas0jKwAAAMD74dMU4AO7892vPLHo7b9V1UelAQDAsTysri7U6vonqloTBgAAAMB7pAAAfCCvvfjVR5at/mtVfUwaAAAc6wPr9qXafugpJQAAAACA90gBAHhg/fmvn1sdHv3HqnpaGgAAbOShdedqbV15UhAAAAAA78EkAuBB9H5zsX5h/YdV9VlpAACw0QfXC9fr6PBuHbz2PWEAAAAAvAsTAIAHsr977tlq9bclAQDAHFaXH6/luWuCAAAAAHgXCgDA+7Z368u/0Xv/oiQAAJhPq9W1G7XYOi8KAAAAgJ9CAQB4X/ae/+qnq9e/kQQAAHNrbVHbDz1VbWGbHQAAAMA7UQAA3rP+3DPXqh3+h6ry2hUAACeiTataXbshCAAAAIB34LUJ4D1bT+2bVfVxSQAAcJKWO1dquvhoHbz+ojAAAAAAfowJAMB7sr71zD+oql+XBAAAp8HqyuO1WF0QBAAAAMCPMQEA+Jnu/emzT/V+9HVJAABwerRaXf1Y7f3f/129H4kDgFOtiwCAE3+CAkahAAC8+wNq/6Pl+tZ3/rCqLkkDAIDTZLG1U1uXn6j17T8VBgAAAEBZAQD8DHu7f/xPquozkgAA4DSaLj5Sy9VFQQAAAACUAgDwLu7e+tqTrfd/JQkAAE6zrYdueLwFAAAAKCsAgHex6PvfrCqvUwEAcLrvrdN2bV1+tPZf3RUGAKdTFwEAAPPwigTwjvZufenXqupzkgAA4CyYLj1WbVoJAgAAABiaAgDwE/q3bq6qt2clAQDAWdHaolZXHhcEAAAAMDQFAOAnrK+u/mlVfUISAACcJctzD9Vy+5IgAAAAgGEpAAB/Rn/+6w9Va/9CEgAAnEVbVx6vqiYIAAAAYEgKAMCfsW57/6x6XZEEAABn8iF3daGWO66zAAAAwJgmEQBv6be+9vC67/+OJAAAOMu2rnykDu+9LAgATokuAgAAZmMCAPC2/dr/3aqyNBUAgLP9oLt1rpbnrgkCAAAAGI4CAFBVVf25Z671Xr8pCQAAEmxd/rAQAAAAgOEoAABVVbXear9VVRclAQBAxMPu1vlabBtuBQAAAIxFAQCo/q2bq6r+O5IAACDJ1qVHhQAAAAAMZRIBsH9l5wvVuxmpAABEWe5cqcXWuTravysMAE5YFwEAALNQAACqt6N/LAUAACIfes9fr/Ur3xUEAAAAMAQrAGBwey/+3qeq6rOSAAAg0fLC9WqtCQIAAAAYggIADK4dtn8oBQAAYu+7i6mW564JAgAAABiCAgAMrH/7G9u96u9KAgCAZNOF60IAAAAAhqAAAAPbO//6r1TVQ5IAACD6wXf7crXFliAAAACAeJMIYFytt89X64IAACD/4ffc1dp//SVBADC/7rMXAADmYwIAjPrs+e1vbNei/6okAAAY4uH33DUhAAAAAPEUAGBQe+df/RvV64okAAAYwXLnUtXSGgAAAAAgmxUAMKq2+JtlAh0AACM9AG9froM7PxAEAPPzGQwAADNRAIBBtaP6FSkAADCSxc6VKgUAAAAAIJgVADCgvVtf+rmq+rgkAAAYyXLnSlVrggAAAABimQAAA+qH/Zd97gkAwGjaYlGL6Xwd7b8hDAAAACCSCQAwoNbaX5ECAABDPgTvXBACAAAAEEsBAIbUPysDAABGtFxdFAIAAAAQSwEABnN395kbVfWEJAAAGJECAAAAAJBMAQBG+4f+6OgzUgAAYFjLrWrLbTkAAAAAkRQAYDx/SQQAAAz9ILx1TggAAABApEkEMJhenxYCAAAjW6zO1eG9lwUBwEy6CAAAmI0JADAeBQAAAMZ+EDYBAAAAAAilAAAD6c89c62qHpcEAABDPwgrAAAAAAChrACAgey3w6eqmiAAABham7arWqvqRjIDsHm9LAEAAGA+JgDASA+ci/qYFAAAoFVbbIkBAAAAiKMAAAPprd2QAgAAVC2mbSEAAAAAcawAgIEsjurJ3gydAwCAtlwJAQAAAIhjAgAMpC/6R6QAAABVtbQCAAAAAMhjAgAMpFddb2IAAIBatGWV4VgAzMF5AwDAjEwAgIG0o3pYCgAAUCYAAAAAAJEUAGAgrdV1KQAAQFVbGIgHAAAA5PGJBwykV12WAgAAVNVCHx6AmfSyBgAAgNkoAMBYtkUAAABV1Rbl2xgAAAAgjVceYBC935z8Mw8AAG9q1YQAAAAAxPFlIIxit1ZCAACAt56GFQAAAACAPAoAMIq7O1tCAACANzWPwwAAAECgSQQwiMW91v0jDwAAVVXVqwsBAAAAiOPbQBiKDzkBAMDtGADnDQAAqcw8BAAAAAAAAIAACgAAAAAAAAAAEEABAAAAAAAAAAACKAAAAAAAAAAAQAAFAAAAAAAAAAAIMIkAAACAMXURAOC8AQAgigkAAAAAAAAAABBAAQAAAAAAAAAAAigAAAAAAAAAAEAABQAAAAAAAAAACDCJAAAAgCF1EQAAAABZFABgKD7hBAAAd2MAAAAglQIAAAAAAMAm6Z0BADCThQgAAAAAAAAA4OxTAAAAAAAAAACAAFYAwEiMmwMAAHdjAAAAIJYJAAAAAAAAAAAQwAQAAAAABmUMAADOGwAAspgAAAAAAAAAAAABFAAAAAAAAAAAIIACAAAAAAAAAAAEmEQAAAAAALA5XQQAAMxEAQA8bgIAgLsxAAAAQAArAAAAAAAAAAAggAIAAAAAAAAAAARQAAAAAAAAAACAAAoAAAAAAAAAABBAAQAAAAAAAAAAAigAAAAAAAAAAECASQQAAACMqYsAAAAAiKIAAAAAwJh8/w+A8wYAgDBWAAAAAAAAAABAABMAAAAAAAA2yRQAAABmYgIAAAAAAAAAAAQwAQCGom4OAADuxgAAAEAqEwAAAAAAAAAAIIACAAAAAAAAAAAEUAAAAAAAAAAAgAAKAAAAAAAAAAAQQAEAAAAAAAAAAAJMIgAAAGBMXQQAOG8AAIhiAgAAAAAAAAAABFAAAAAAAAAAAIAACgAAAAAAAAAAEEABAAAAAAAAAAACTCKAkXQRAACAuzEAAAAQygQAAAAAAAAAAAigAAAAAAAAAAAAARQAAAAAAAAAACDAJAIAAACG1EUAgPMGAIAsJgAAAAAAAAAAQAAFAAAAAAAAAAAIYAUAAAAAgzKTGYA5jpvuyAEAYDYmAAAAAAAAAABAAAUAAAAAAAAAAAhgBQAAAADD6WUaMwDznTkAADAXBQDwxAkAAO7GAAAAAAEUAGAoPuUEAAB3YwCcOgAApFqIAAAAAAAAAADOPgUAAAAAAAAAAAigAAAAAAAAAAAAARQAAAAAAAAAACCAAgAAAAAAAAAABJhEAAAAwHj6/R8AAACAHCYAAAAAAAAAAEAABQAAAAAAAAAACKAAAAAAAAAAAAABJhEAAAAAAGxKv/8DAACbpwAAwz1wAgAA7sYAAABAIgUAAAAAxqQDAIDzBgCAMAsRAAAAAAAAAMDZpwAAAAAAAAAAAAGsAAAAAAAA2KTjXgPQNvBraA/417dj/Gv6A/76+gYys7oBSNNEAKMwAQAAAAAAAAAAAigAAAAAAAAAAEAAKwAAAAAYlNm+ADhvAADIYgIAAAAAAAAAAARQAAAAAAAAAACAAAoAAAAAAAAAABBAAQAAAAAAAAAAAkwigJF0EQAAgLsxAAAAEMoEAAAAAAAAAAAIoAAAAAAAAAAAAAEUAAAAAAAAAAAggAIAAAAAAAAAAARQAAAAAAAAAACAAAoAAAAAAAAAABBgEgEAAABj6iIAwHkDAEAUEwAAAAAAAAAAIIAJAAAAAIynlxcyAQAAgDgmAAAAAAAAAABAABMAYChecQIAAAAAAIBUCgAAAAAAAJvknQwATloTAYxCAQAAAAAA4AzRJwAA4KdZiAAAAAAAAAAAzj4FAAAAAAAAAAAIoAAAAAAAAAAAAAEmEcBALIgDAAB3YwAAACCWAgAAAACD0gIAwHkDAEAWKwAAAAAAAAAAIIACAAAAAAAAAAAEUAAAAAAAAAAAgAAKAAAAAAAAAAAQYBIBjKSLAAAA3I0BAACAUCYAAAAAAAAAAEAABQAAAAAAAAAACKAAAAAAAAAAAAABFAAAAAAAAAAAIIACAAAAAAAAAAAEmEQAAADAkLoIAHDeAACQRQEAAACAQflGBgAAAMhiBQAAAAAAAAAABDABAAAAgCF5/x8Ahw4AAGlMAAAAAAAAAACAACYAwFDUzQEAwN0YAAAASGUCAAAAAAAAAAAEUAAAAAAAAAAAgAAKAAAAAAAAAAAQQAEAAAAAAAAAAAIoAAAAAAAAAABAAAUAAAAAAAAAAAigAAAAAAAAAAAAASYRAAAAMKYuAgCcNwAARDEBAAAAAAAAAAACKAAAAAAAAAAAQAAFAAAAAAAAAAAIMIkARmLnHAAAuBsDAAAAqUwAAAAAAAAAAIAACgAAAAAAAAAAEMAKAAAAAMZkCwAAcxw3PfvIaY5aAIBTxQQAAAAAAAAAAAigAAAAAAAAAAAAAawAAAAAAADYlF5m4QMAMBsFAAAAAAbl2xgAnDcAAGSxAgAAAAAAAAAAAigAAAAAAAAAAEAABQAAAAAAAAAACDCJAEZxu6q2xQAAAFVlHzMAAACQSAEARuIzTgAAcDcGAAAAYlkBAAAAAAAAAAABFAAAAAAAAAAAIIACAAAAAAAAAAAEUAAAAAAAAAAAgAAKAAAAAAAAAAAQQAEAAAAAAAAAAAJMIgAAAGA8/f4PAAAAQA4TAAAAAAAAAAAggAIAAAAAAAAAAASwAgAAAIAx2QAAAAAAhFEAgKH4hBMAANyNAQAAgFRWAAAAAAAAAABAAAUAAAAAAAAAAAhgBQAAAAAAwCbZPAMAwExMAAAAAAAAAACAAAoAAAAAAAAAABBAAQAAAAAAAAAAAigAAAAAAAAAAECASQQAAACMqYsAAOcNAABRTAAAAAAAAAAAgAAKAAAAAAAAAAAQwAoAGIqRcwAA4G4MAAAApDIBAAAAAAAAAAACKAAAAAAAAAAAQAAFAAAAAAAAAAAIoAAAAAAAAAAAAAEmEQAAAAAAbE4XAQAn7LYIYBgmAAAAAAAAAABAAAUAAAAAAAAAAAhgBQAAAABD6t1AZgCcNwAAZFEAgEHcrqodMQAAQFXZxQyAkweA0dwWAQzCCgAAAAAAAAAACGACAAAAAADAJhkAAADATBQAwNMmAAAAAAAAEMAKAAAAAAAAAAAIoAAAAAAAAAAAAAEUAAAAAAAAAAAggAIAAAAAAAAAAARQAAAAAAAAAACAAAoAAAAAAAAAABBgEgEMpIsAAAAAAAAAUikAAAAAMCgNWQCcNwAAZLECAAAAAAAAAAACKAAAAAAAAAAAQAArAGAoRs4BAIC7MQAAAJDKBAAAAAAAAAAACKAAAAAAAAAAAAABFAAAAAAAAAAAIIACAAAAAAAAAAAEmEQAAADAkLoIAHDeAACQxQQAAAAAAAAAAAigAAAAAAAAAAAAAawAAAAAYFBmMgMw03HjyAEAYCYmAAAAAAAAAABAAAUAAAAAAAAAAAigAAAAAAAAAAAAASYRwEgsnAMAAHdjAAAAIJUJAAAAAAAAAAAQQAEAAAAAAAAAAAIoAAAAAAAAAABAAAUAAAAAAAAAAAgwiQAAAAAAYHO6CAAAmIkJAAAAAAAAAAAQQAEAAAAAAAAAAAJYAQAAAMCgDGQGwHkDAEAWEwAAAAAAAAAAIIACAAAAAAAAAAAEsAIAhmLkHAAAuBsDAAAAqUwAAAAAAAAAAIAAJgAAAAAwJkMAAHDeAAAQxgQAAAAAAAAAAAigAAAAAAAAAAAAAawAAAAAAADYJGsAAACYiQkAAAAAAAAAABBAAQAAAAAAAAAAAigAAAAAAAAAAECASQQAAACMyUJmAJw3AABkMQEAAAAAAAAAAAIoAAAAAAAAAABAACsAYChGzgEAgLsxAAAAkMoEAAAAAAAAAAAIYAIAjMRLTgAA4G4MAAAAxDIBAAAAAAAAAAACKAAAAAAAAAAAQAAFAAAAAAAAAAAIoAAAAAAAAAAAAAEmEQAAADCiLgIAnDcAAIRRAAAAAGBAvXwlAwAAAKSxAgAAAAAAAAAAApgAAAAAwHgMAAAAAAACKQDAUHzCCQAA7sYAAABAKisAAAAAAAAAACCACQAAAAAAAJtk8AwAJ+22CGAUJgAAAAAAAAAAQAAFAAAAAAAAAAAIoAAAAAAAAAAAAAEUAAAAAAAAAAAgwCQCAAAAAIDN6cf892un4NcAAMDpZAIAAAAAAAAAAAQwAQAAAIBBeRcSAOcNAABZTAAAAAAAAAAAgAAKAAAAAAAAAAAQwAoAGIqRcwAA4G4MAAAApDIBAAAAAAAAAAACKAAAAAAAAAAAQAAFAAAAAAAAAAAIoAAAAAAAAAAAAAEUAAAAAAAAAAAgwCQCAAAAhtRFAIDzBgCALCYAAAAAAAAAAEAABQAAAAAAAAAACGAFAAAAAIMykxkA5w0AAFkUAAAAAAAANkkHAACAmSgAgKdNAAAAAAAAIMBCBAAAAAAAAABw9ikAAAAAAAAAAEAABQAAAAAAAAAACKAAAAAAAAAAAAABFAAAAAAAAAAAIIACAAAAAAAAAAAEUAAAAAAAAAAAgAAKAAAAAAAAAAAQYBIBDKSLAAAAfnQ3dkEGYLZDBwAAZmECAAAAAAAAAAAEUAAAAAAAAAAAgABWAMBQjJwDAAB3YwAAACCVCQAAAAAAAAAAEEABAAAAAAAAAAACWAEAAADAmGwBAMB5AwBAGBMAAAAAAAAAACCAAgAAAAAAAAAABFAAAAAAAAAAAIAAkwgAAAAAADakV1XvcgAAYBYKAAAAAAAAG9Lv/wAAwBwUAAAAABiUr2MAAACALAsRAAAAAAAAAMDZZwIADMUbTgAA4G4MAAAApDIBAAAAAAAAAAACKAAAAAAAAAAAQAAFAAAAAAAAAAAIoAAAAAAAAAAAAAEUAAAAAAAAAAAgwCQCAAAARtRFAIDzBgCAMCYAAAAAAAAAAEAABQAAAAAAAAAACKAAAAAAAAAAAAABJhEAAAAwJluZAXDeAACQxQQAAAAAAAAAAAhgAgAMReMcAADevhu7HgMAAABhTAAAAAAAAAAAgAAKAAAAAAAAAAAQQAEAAAAAAAAAAAJMIgAAAAAAOEO6CAAAeGcmAAAAAAAAAABAAAUAAAAAAAAAAAigAAAAAAAAAAAAARQAAAAAAAAAACDAJAIAAADG1EUAgPMGAIAoJgAAAAAAAAAAQAATAGAoGucAAOBuDAAAAKQyAQAAAAAAAAAAAigAAAAAAAAAAEAABQAAAAAAAAAACDCJAAZizSkAALgbAwAAALFMAAAAAAAAAACAAAoAAAAAAAAAABBAAQAAAAAAAAAAAigAAAAAAAAAAECASQQAAAAMqYsAAOcNAABZFAAAAAAYUC/fyAAw56kDAABzsAIAAAAAAAAAAAKYAABD0TcHAAB3YwAAACCVAgAAAAAAwCbpnQEAMBMrAAAAAAAAAAAggAIAAAAAAAAAAARQAAAAAAAAAACAAAoAAAAAAAAAABBAAQAAAAAAAAAAAigAAAAAAAAAAEAABQAAAAAAAAAACDCJAAAAgDF1EQDgvAEAIIoJAAAAAAAAAAAQwAQAGMbtqtoWAwAAVJW3MQEAAIBEJgAAAAAAAAAAQAAFAAAAAAAAAAAIoAAAAAAAAAAAAAEUAAAAAAAAAAAggAIAAAAAAAAAAASYRAAAAMCQuggAcN4AAJDFBAAAAAAAAAAACKAAAAAAAAAAAAABFAAAAAAAAAAAIMAkAgAAAMZkKTMAM503p+HIaY5FAIARmAAAAAAAAAAAAAFMAIChqHIDAAAAAABAKhMAAAAAAAAAACCAAgAAAAAAAAAABFAAAAAAAAAAAIAACgAAAAAAAAAAEGASAQAAACPqIgAAAADCmAAAAAAAAAAAAAFMAICBeMMJAADcjQEAAIBcJgAAAAAAAAAAQAAFAAAAAAAAAAAIYAUAjMScUwAA+LG7sQsyALMdOgAAMAsFAPDACQAA7sYA4NQBACCAFQAAAAAAAAAAEMAEAAAAAMbkdUwAnDcAAIQxAQAAAAAAAAAAAigAAAAAAAAAAEAABQAAAAAAAAAACDCJAAAAAABgQ/r9HwAAmIEJAAAAAAAAAAAQQAEAAAAAAAAAAAIoAAAAAAAAAABAgEkEAAAAjMlCZgAAACCLCQAAAAAAAAAAEMAEABiKN5wAAMDdGAAAAEhlAgAAAAAAAAAABFAAAAAAAAAAAIAACgAAAAAAAAAAEEABAAAAAAAAAAACKAAAAAAAAAAAQAAFAAAAAAAAAAAIoAAAAAAAAAAAAAEUAAAAAAAAAAAggAIAAAAAAAAAAASYRAAAAMBwelX1LgcAZjp0AABgHgoA4IETAADcjQEAAAACWAEAAAAAAAAAAAEUAAAAAAAAAAAggBUAAAAAAACbZPMMAAAzMQEAAAAAAAAAAAIoAAAAAAAAAABAAAUAAAAAAAAAAAgwiQAAAAAAYFP6/R8AANg8EwAAAAAAAAAAIIACAAAAAAAAAAAEUAAAAAAAAAAAgACTCAAAABiTfcwAOG8AAMiiAAAeOAEAwN0YAAAAIIACAAAAAADAhvRSOwMAYD4LEQAAAAAAAADA2acAAAAAAAAAAAABFAAAAAAAAAAAIMAkAhiIhXMAAOBuDAAAAMQyAQAAAAAAAAAAApgAAAAAwJhMAQDAeQMAQBgTAAAAAAAAAAAggAIAAAAAAAAAAASwAgAAAIAB9TKTGQAAAEijAABD8QEnAAC4GwPg2HkAzZEKEPnvcSCOFQAAAAAAAAAAEEABAAAAAAAAAAACKAAAAAAAAAAAQIBJBAAAAIzIymIAnDcAAKQxAQAAAAAAAAAAAigAAAAAAAAAAEAABQAAAAAAAAAACKAAAAAAAAAAAAABFAAAAAAAAAAAIIACAAAAAAAAAAAEmEQAAADAmLoIAHDeAAAQRQEAPHACAIC7MQAAAEAAKwAAAAAAAAAAIIACAAAAAAAAAAAEUAAAAAAAAAAAgACTCAAAABhSFwEAzhsAALKYAAAAAAAAAAAAARQAAAAAAAAAACCAAgAAAAAAAAAABJhEAAAAAACwIf3+DwCcpCYCGIUJAAAAAAAAAAAQwAQAAAAABuV1TACcNwAAZFEAAA+cAAAAAAAAQAArAAAAAAAAAAAggAIAAAAAAAAAAASwAgAAAAAAYIMsZQQAYC4mAAAAAAAAAABAAAUAAAAAAAAAAAigAAAAAAAAAAAAARQAAAAAAAAAACCAAgAAAAAAAAAABFAAAAAAAAAAAIAACgAAAAAAAAAAEGASAQAAAGPqIgAAAACiKADASLoPOAEA4O27sesxAAAAEMYKAAAAAAAAAAAIoAAAAAAAAAAAAAEUAAAAAAAAAAAggAIAAAAAAAAAAASYRAAAAAAAsEFdBAAAzMMEAAAAAAAAAAAIoAAAAAAAAAAAAAEUAAAAAAAAAAAggAIAAAAAAAAAAARQAAAAAAAAAACAAJMIAAAAGFMXAQDOGwAAoigAgAdOAABwNwYAAAAIYAUAAAAAAAAAAARQAAAAAAAAAACAAAoAAAAAAAAAABBAAQAAAAAAAAAAAigAAAAAAAAAAEAABQAAAAAAAAAACKAAAAAAAAAAAAABJhEAAAAwpC4CAJw3AABkMQEAAAAAAAAAAAKYAAAAAMCgvJIJgPMGAIAsCgDggRMAANyNAQAAAAJYAQAAAAAAAAAAAUwAAAAAYDi9zAAAYL4zx6EDAMBcTAAAAAAAAAAAgAAmAAAAAAAAbNBpGADQTuDX2Gb632pn5P8DAIA5mAAAAAAAAAAAAAEUAAAAAAAAAAAggAIAAAAAAAAAAARQAAAAAAAAAACAAAoAAAAAAAAAABBAAQAAAAAAAAAAAkwiAAAAYExdBAA4bwAAiKIAAB44AQDA3RgAAAAggBUAAAAAAAAAABBAAQAAAAAAAAAAAigAAAAAAAAAAEAABQAAAAAAAAAACDCJAAAAgCF1EQDgvAEAIIsCAHjgBAAAAAAAAAJYAQAAAAAAAAAAARQAAAAAAAAAACCAAgAAAAAAAAAABJhEAAAAAACwQV0EAADMQwEAPG0CAMCgd2P3YwAAACCLFQAAAAAAAAAAEEABAAAAAAAAAAACKAAAAAAAAAAAQAAFAAAAAAAAAAAIMIkAAAAAAGCTuggAAJiFCQAAAAAAAAAAEEABAAAAAAAAAAACKAAAAAAAAAAAQAAFAAAAAAAAAAAIoAAAAAAAAAAAAAEmEQAAADCefv8HAOY4cwAAYB4KAOCBEwAA3I0BAAAAAlgBAAAAAAAAAAABTAAAAABgTIYAAAAAAGFMAAAAAAAAAACAAAoAAAAAAAAAABDACgAAAAAAgA2ydQaAk9ZEAMMwAQAAAAAAAAAAApgAAAAAAACwKb3GHQHQ3iUTAAA2wgQAAAAAAAAAAAigAAAAAAAAAAAAARQAAAAAAAAAACDAJAIYiQVrAADgfgyA8wYAgFQmAAAAAAAAAABAAAUAAAAAAAAAAAigAAAAAAAAAAAAARQAAAAAAAAAACCAAgAAAAAAAAAABFAAAAAAAAAAAIAACgAAAAAAAAAAEEABAAAAAAAAAAACKAAAAAAAAAAAQAAFAAAAAAAAAAAIMIkAAACA4fT7PwAwx5kDAAAzUQCAYdyuqm0xAABAVWkAAAAAAIkUAGAUt6tqRwwAAFBVVd3X/wAAAECehQgAAAAAAAAA4OxTAAAAAAAAAACAAFYAwECMOAUAAHdjABw8AADkMgEAAAAAAAAAAAIoAAAAAAAAAABAAAUAAAAAAAAAAAigAAAAAAAAAAAAARQAAAAAAAAAACCAAgAAAAAAAAAABJhEACPpIgAAgLfvxu7HAMx15gAAwDxMAAAAAAAAAACAAAoAAAAAAAAAABBAAQAAAAAAAAAAAigAAAAAAAAAAEAABQAAAAAAAAAACKAAAAAAAAAAAAABJhEAAAAwpC4CAGY4brojB4CT10QAwzABAAAAAAAAAAACKAAAAAAAAAAAQAAFAAAAAAAAAAAIoAAAAAAAAAAAAAEmEcBIuggAAODtu7H7MQAznTnHfeS0Bzz6AACIZwIAAAAAAAAAAARQAAAAAAAAAACAAAoAAAAAAAAAABBAAQAAAAAAAAAAAigAAAAAAAAAAEAABQAAAAAAAAAACKAAAAAAAAAAAAABFAAAAAAAAAAAIIACAAAAAAAAAAAEUAAAAAAAAAAAgACTCGAkXQQAAPD23dj9GIC5zhwAAJiHCQAAAAAAAAAAEEABAAAAAAAAAAACKAAAAAAAAAAAQIBJBAAAAAzJSmYAnDcAAIQxAQAAAAAAAAAAAigAAAAAAAAAAEAABQAAAAAAAAAACDCJAAZi5xwAALgbAwAAALEUAAAAAAAANqWX4hkAJ++2CGAUVgAAAAAAAAAAQAAFAAAAAAAAAAAIYAUADMW8OQAA+NHd2P0YAAAAyGICAAAAAAAAAAAEUAAAAAAAAAAAgAAKAAAAAAAAAAAQQAEAAAAAAAAAAAIoAAAAAAAAAABAAAUAAAAAAAAAAAigAAAAAAAAAAAAASYRAAAAAABsThcBAAAzMQEAAAAAAAAAAAIoAAAAAAAAAABAACsAYCgGzgEAwFt3Y7djAOY5cQAAYD4KAAAAAAyoV3VfyQAw05kDAAAzsQIAAAAAAAAAAAIoAAAAAAAAAABAAAUAAAAAAAAAAAigAAAAAAAAAAAAASYRAAAAAABsUBcBAADzMAEAAAAAAAAAAAIoAAAAAAAAAABAAAUAAAAAAAAAAAigAAAAAAAAAAAAARQAAAAAAAAAACDAJAIYSRcBAAC4HwPgvAEAIJQJAAAAAAAAAAAQQAEAAAAAAAAAAAIoAAAAAAAAAABAgEkEAAAAAACb1EUAAMAsTAAAAAAAAAAAgAAKAAAAAAAAAAAQQAEAAAAAAAAAAAIoAAAAAAAAAABAgEkEAAAADKmLAADnDQAAWUwAAAAAAAAAAIAAJgDAUFTOAQDA3RgAAABIpQAAAADAoJQAAAAAgCxWAAAAAAAAAABAABMAYCRecAIAAHdjAJw7AADEMgEAAAAAAAAAAAIoAAAAAAAAAABAAAUAAAAAAAAAAAigAAAAAAAAAAAAARQAAAAAAAAAACCAAgAAAAAAAAAABJhEAAAAAACwOV0EAADMxAQAAAAAAAAAAAhgAgAMRd8cAADcjQEAAIBUCgAAAAAMSgkAAOcNAABZrAAAAAAAAAAAgAAKAAAAAAAAAAAQQAEAAAAAAAAAAAIoAAAAAAAAAABAgEkEAAAADKmLAADnDQAAWUwAAAAAAAAAAIAACgAAAAAAAAAAEEABAAAAAAAAAAACKAAAAAAAAAAAQIBJBDCSLgIAAHA3BsCxAwBAKAUAAAAABuXbGACcNwAAZLECAAAAAAAAAAACKAAAAAAAAAAAQAAFAAAAAAAAAAAIoAAAAAAAAAAAAAEUAAAAAAAAAAAggAIAAAAAAAAAAARQAAAAAAAAAACAAAoAAAAAAAAAABBAAQAAAAAAAAAAAkwiAAAAYERdBAA4bwAACKMAAB45AQDA3RgAAAAggAIAAAAAg1ICAMB5AwBAFgUAAAAAxuT7GAAAACDMQgQAAAAAAAAAcPYpAAAAAAAAAABAAAUAAAAAAAAAAAigAAAAAAAAAAAAARQAAAAAAAAAACDAJAIAAAAAgA3p939Ou/Yefh8AAJx6CgAw2gMnAADgbgwAAABEsgIAAAAAAAAAAAKYAABD8ZoTAAC4GwMw94nj1AEAYC4mAAAAAAAAAABAABMAAAAAGJT3MQEAAIAsJgAAAAAAAAAAQAAFAAAAAAAAAAAIoAAAAAAAAAAAAAEUAAAAAAAAAAAggAIAAAAAAAAAAARQAAAAAAAAAACAAAoAAAAAAAAAABBAAQAAAAAAAAAAAkwiAAAAYDj9/g8AzHHmAADATBQAwBMnAAC4GwMAAAAEUAAAAABgQEYAADDnmQMAAPNYiAAAAAAAAAAAzj4FAAAAAAAAAAAIoAAAAAAAAAAAAAEmEQAAAAAAbFAXAQAA8zABAAAAAAAAAAACKAAAAAAAAAAAQAAFAAAAAAAAAAAIoAAAAAAAAAAAAAEUAAAAAAAAAAAgwCQCGEkXAQAAAAAAAIQyAQAAAAAAAAAAApgAAAAAwKBMyALAeQMAQBYTAAAAAAAAAAAggAIAAAAAAAAAAARQAAAAAAAAAACAAAoAAAAAAAAAABBAAQAAAAAAAAAAAkwiAAAAYEhdBAA4bwAAyGICAAAAAAAAAAAEUAAAAAAAAAAAgAAKAAAAAAAAAAAQYBIBjMTSOQAAcDcGAAAAUikAAAAAMCglAACcOAAAZFEAAAAAAADYJA0AAABmshABAAAAAAAAAJx9JgDASLTNAQDA3RgAAACIZQIAAAAAAAAAAARQAAAAAAAAAACAAAoAAAAAAAAAABBAAQAAAAAAAAAAAkwiAAAAYERdBAA4bwAACGMCAAAAAAAAAAAEMAEAhqJzDgAA7sYAAABAKhMAAAAAAAAAACCACQAAAAAMyhQAAJw3AABkUQAAj5sAAAAAbJRPZQAAmIcVAAAAAAAAAAAQwAQAAAAAxuRlTACcNwAAhDEBAAAAAAAAAAACKAAAAAAAAAAAQAAFAAAAAAAAAAAIoAAAAAAAAAAAAAEmEQAAAAAAbEi//wMAADMwAQAAAAAAAAAAApgAAMO4XVXbYgAAgKryKiYAAACQyAQAAAAAAAAAAAhgAgAAAACDMgUAAOcNAABZTAAAAAAAAAAAgAAKAAAAAAAAAAAQQAEAAAAAAAAAAAIoAAAAAAAAAABAAAUAAAAAAAAAAAigAAAAAAAAAAAAARQAAAAAAAAAACCAAgAAAAAAAAAABJhEACPpIgAAAHdjAAAAIJQJAAAAAAAAAAAQwAQAAAAAxtRNAQBglgPnTMydaT/zdwEAwFlgAgAAAAAAAAAABFAAAAAAAAAAAIAACgAAAAAAAAAAEEABAAAAAAAAAAACTCIAAAAAADhDeujvqw34ewY4Df+OBaKYAAAAAAAAAAAAARQAAAAAAAAAACCAAgAAAAAAAAAABJhEAAOxKw0AANyNAQAAgFgKADAUn3ICAIC7MQAAAJDKCgAAAAAAAAAACGACAAAAAIMyBQAAAADIYgIAAAAAAAAAAARQAAAAAAAAAACAAAoAAAAAAAAAABBAAQAAAAAAAAAAAigAAAAAAAAAAEAABQAAAAAAAAAACDCJAAAAgCF1EQDgvAEAIIsJAAAAAAAAAAAQwAQAGIrKOQAAuBsDAAAAqUwAAAAAAAAAAIAACgAAAAAAAAAAEMAKAAAAAAbUyxoAAOY7cwAAYB4KAAAAAAAAm6QDAMBJayKAUVgBAAAAAAAAAAABFAAAAAAAAAAAIIACAAAAAAAAAAAEUAAAAAAAAAAAgACTCAAA4P+1d/cxllf1GcCfc+fuAu7uCG7SaKINWo2JCIXdQZTqH9iiFnkxRW3TatqoaSlJrSZNNDY2mzSmL4nWl9oqNVptsbJTMLUvijRKK6LCDqsgWVFeFsFKlYXdmd0WmNl7+kexRWRhZ3fmzsw5n8//u7+ZJ7lzzr3nud8D9KiKAAAAAGiMCQAAAAAAAAAA0AAFAAAAAAAAAABogCsAoCuGnAIAAAAAAECrTAAAAAAAAAAAgAaYAAAAAECnTMgCwHoDAEBbFAAAAAAAAJZJjQoAACtvrwigG64AAAAAAAAAAIAGKAAAAAAAAAAAQANcAQAAAECfzGMGwHoDAEBjTAAAAAAAAAAAgAYoAAAAAAAAAABAAxQAAAAAAAAAAKABCgAAAAAAAAAA0IChCKAnVQQAAGBvDAAAADRKAQAAAAAAYDnpnQEAMCauAAAAAAAAAACABpgAAAAAQKd8HRMAAABoiwkAAAAAAAAAANAABQAAAAAAAAAAaIArAKAnJpwCAIC9MQAAANAsEwAAAAAAAAAAoAEKAAAAAAAAAADQAAUAAAAAAAAAAGiAAgAAAAAAAAAANEABAAAAAAAAAAAaMBQB9KSKAAAA7I0BAACARpkAAAAAAAAAAAANUAAAAAAAAAAAgAa4AgAAAIA+VdcAADCWBUcEAACMjQkAAAAAAAAAANAABQAAAAAAAAAAaIACAAAAAAAAAAA0QAEAAAAAAAAAABqgAAAAAAAAAAAADRiKAAAAAABgGVURAAAwHiYAAAAAAAAAAEADTACArqibAwCAvTEAAADQKhMAAAAAAAAAAKABCgAAAAAAAAAA0ABXAAAAANAp1wAAYL0BAKAtJgAAAAAAAAAAQANMAAAAAAAAWEZmAAAAMC4mAAAAAAAAAABAAxQAAAAAAAAAAKABCgAAAAAAAAAA0AAFAAAAAAAAAABogAIAAAAAAAAAADRAAQAAAAAAAAAAGjAUAfSkigAAAJKkVttjAMa05ogAAIDxUQAAAAAAAFg2NVoAAACMiysAAAAAAAAAAKABJgAAAADQKd/GBAAAANpiAgAAAAAAAAAANEABAAAAAAAAAAAa4AoAAAAAAIDlUtP2rTPlCX53AADGSgEAAACALjmTAMB6AwBAa1wBAAAAAAAAAAANUAAAAAAAAAAAgAYoAAAAAAAAAABAA4YigJ64dQ4AAOyNAQAAgFYpAEBPfMYJAAAAAAAAzXIFAAAAAAAAAAA0wAQAAAAAOmVEFgDWGwAA2mICAAAAAAAAAAA0QAEAAAAAAAAAABqgAAAAAAAAAAAADVAAAAAAAAAAAIAGKAAAAAAAAAAAQAOGIgAAAKBLVQQAWG8AAGiLCQAAAAAAAAAA0AAFAAAAAAAAAABogCsAoCtmzgEAgL0xAAAA0CoTAAAAAAAAAACgAQoAAAAAAAAAANAAVwAAAADQoRrXAAAwtjXHkgMAwJiYAAAAAAAAAAAADVAAAAAAAAAAAIAGuAIAAAAAAGAZuQEAAIBxMQEAAAAAAAAAABqgAAAAAAAAAAAADVAAAAAAAAAAAIAGKAAAAAAAAAAAQAOGIoCeVBEAAAAAAABAo0wAAAAAAAAAAIAGKAAAAAAAAAAAQAMUAAAAAAAAAACgAUMRAAAA0KcqAgCsNwAANEUBAAAAgD45jwHAegMAQGNcAQAAAAAAAAAADVAAAAAAAAAAAIAGKAAAAAAAAAAAQAMUAAAAAAAAAACgAQoAAAAAAAAAANAABQAAAAAAAAAAaMBQBNCTKgIAALA3BqDHZadYGgEAemACAAAAAAAAAAA0QAEAAAAAAAAAABrgCgAAAAA6ZdYxAAAA0BYTAAAAAAAAAACgAQoAAAAAAAAAANAABQAAAAAAAAAAaMBQBNARV5wCAIC9MQAAANAsEwAAAAAAAAAAoAEKAAAAAAAAAADQAAUAAAAAAAAAAGjAUATQExedAgCAvTEAAADQKhMAAAAAAAAAAKABJgAAAADQJ0MAAAAAgMaYAAAAAAAAAAAADTABAAAAgE4ZAQCA9QYAgLaYAAAAAAAAAAAADVAAAAAAAAAAAIAGuAIAAACA7tQYyAzA+NYcAAAYFwUAAAAAAIA1RKkAAIBDUQAAAAAAAFguxs4AADBGAxEAAAAAAAAAwNqnAAAAAAAAAAAADXAFAHTFvDkAALA3BgAAAFqlAACdqAfnap1YLwgAAIjjfwAAoC8bD3gbBL1wBQB04oRkXgoAAAAAANCf4YY8KAXogwIA9GJu00NCAAAAAACA/vzbiXFGAJ1wBQB0opx19cLczheNovgDAAAPMwETAOsNAF1Y2LYtIzFAHxwEQl+M+AEAAAAAgL44G4COKABAT0r2CQEAAAAAALqyVwTQDwUA6EnNvUIAAAAAAICuOBuAjigAQF/2iAAAAAAAAPpRnQ1AVxQAoCelavkBAAAAAEBHSoqzAejIUATQkVruEQIAAPxofywCAKw3AHSxFv2nEKAfCgDQkZLR7poiCAAAcBoDAAB0opTRHVKAfrgCADpSa3ZLAQAAAAAA+jEqUQCAjigAQFcv+LpbCgAAAAAA0I9B8eVA6Oo1LwLox/xw/W1SAAAAAACAbtRScrsYoB9DEUA/jj/lmvvnbnjhXSl5hjQAAKCKAAAAaN3ucy7NrBigHwoA0JlSyo01VQEAAAAAYFx0zgBYuTXoJiFAX1wBAN0Z3SgDAAAAAABoXx0UZwLQGQUA6G2xr7HYAwAAAABAB0r1pUDojQIAdGY4WnetFAAAAAAAoH2DYb4iBejsdS8C6MtxU9d8NzV3SQIAAAAAAJq2+5xLc7cYoC8KANAnUwAAAAAAAKBlpVwjBOiPAgB0+cq36AMAAAAAQMvqaPRlKUB/hiKADhf9HPx8SREEAABd74oBAABaNlFylRSgPyYAQIcmT73u20m9TRIAAAAAANCemtxyzmVxDgAdMgEAejUqV6bkYkEAANAlAwAAAICGDVI+540P9Pr6B7o0GtR/kQIAAAAAALSn1tFnpQB9MgEAOjW5/sBV+x/ceH+SE6QBAECffBsGAOsNAE26/79qvigG6JMJANCpctLND9XkHyUBAAAAAADtqCmXv3Y6D0kC+qQAAD1vAkrdLgUAAAAAAGjHYDDy2T90zBUA0LGHrwHYk2SzNAAA6I6JzABYbwBobdmp+cGG7xv/Dz0zAQA6Vk66+aHU/K0kAAAAAACgAaV8/KyrsyAI6JcJAGA38OGk/q4cAAAAAJaHIQAAjEvJ6GNSgL6ZAACd27T1q7uSeq0kAAAAAABgTfvSuZdllxigbyYAACkpH6qpZ0oCAIB++C4mAADQ3PucD8sAUAAAsmG08Kn9g4l3JXmGNAAAAACWmuIZAMu+1Nz9tOOzXRCAAgCQMjUzP3vDCz5Ykj+WBgAAAMASc/4PwDIryXunLsm8JICBCIAkmX+o/GWSWUkAAAAAAMCaMntMzUfEACQKAMDDNr/wa7Olxv1AAAAAAACwhtTkz8+ezj5JAIkrAIBHGC3kT8owF6VkkzQAAGhbjXnMAIxvzQGAZbNvfc27xQD8iAkAwP+ZPOO6PRnk/ZIAAAAAAIA14c9eMZ37xAD8iAIA8GMOTqx/d5K9kgAAAAAAgFXtvmNr3isG4JEUAIAfc/wp19xfkj+UBAAAAAAArF6lZNvZ09knCeCRFACAn7BhdPADqblFEgAAAAAAsCrteuqT8yExAI+mAK1C3pAAAAdQSURBVAD8hDI1M1+T35MEAAAAAACsPiV569QlmZcE8GgKAMBjmtx63T+Vmn+WBAAAAAAArCqfPnd7rhQD8FiGIgAOZaIevHghg2+mZJM0AAAAAABgxc1OLOTNYgAOxQQA4JCOm5r5bkr5fUkAAAAAAMCq8LZzrsjdYgAORQEAeFwbT7vug0mulQQAAAAAAKygmi/NPC+XCAJ4PAoAwOMqJaODB/P6JLPSAAAAAACAFbF/lLxh27aMRAE8nqEIgCdy/OnX3z47c/pbSslHpQEAQDNqlQEA41hwRADA0Su56ILtuVUQwBNRAAAOy+TW6z82d8PpL0vyK9IAAKAFjmMAAIA1Yvq8y3KpGIDD4QoA4LAtlPnfToqGIQAAAAAAjMctE+vyJjEAh0sBADhsJ5z29b11dPC81MxJAwAAAAAAltX+OpELz7k0s6IADpcCALAok1Mz30qpvykJAAAAAABYNrUmbzz/73KzKIDFUAAAFm3Tlh2fKqX+qSQAAAAAAGDp1eSPzt+e7ZIAFmsoAuBIbDh1x9v37zz96Ul+VRoAAAAAj6OKAIDDV2q2zzw/75QEcCQUAIAj24CU1PrFDW/c/+T9JyY5UyIAAKwtTmIAAIBV6ZoNG/Pr27ZlJArgSLgCADhi5ayrH6ijekGSXdIAAAAAAICjcvP8Ql511l/nAVEAR0oBADgqk1Mz904M1p2dktulAQAAAAAAR+S20URe9kufzh5RAEdDAQA4ak869SvfGx6sZ9XkTmkAAAAAAMCi3F2Tsy/4VP5DFMDRUgAAlsRxUzPfzWDwsiR3SwMAAAAAAA7LXRnlpedP5w5RAEthKAJgqUyeet23//uG0168kIl/TfJsiQAAsLpVEQAAACvpjjLKL5x7uSt2gaVjAgCwpI7bsvPOslBekuQmaQAAAAAAwGPaleQlDv+BpaYAACy5jS+4/p46qi9N8mVpAAAAAADA/6vJv69LXnzedL4nDWCpKQAAy2JyaubejZv2/nxSPikNAAAAAABIUjK9aUNe/orp3CcMYDkMRQAs2z7mObc+WGted2Dn1jtrLW9PUqQCAMCqUEUAAACM+V1IybvO3Z4/KN6RAMvIBABgWZWSunHLzDtqyauS7JMIAAAAAACdmUvy2vO2550O/4HlZgIAMBaTW3Z8Zvb6qTPKoF6RlOdJBAAAAOhBjZOeRyuPkxVAg27JKBeef3luFgUwDgoAwNhMnr7jlj1fPeNF69ct/EWSX5MIAAArplanDACMac0RAUCvSs3HRw/ldy74TOakAYyLAgAwVptf+LXZJK+b27H1H1Ly4SQnSAUAAAAAgIbMlpqLz/v7XCoKYNwGIgBWwqapmelhGZ2WkqulAQAAAABAI75QkpMd/gMrxQQAYMUct2XnnbXmpQd2Tr2+1vqeJJulAgAAAADAGrQ3ydvOm85fFRfAACtIAQBYUaWkJjs+cWDH1qtGpX4gKRdKBQCA8fCZHAAAsCQum0je8srp3CMKYKUpAACrwoapme8nefXcjq1npeS9SU6RCgAAAAAAq9iuQclbz92eK0UBrBYDEQCryaapmS9uvO1ZW1JzcZIfSgQAAAAAgFXmB6m56IHkZIf/wGpTRACsVvd845QNG+fXvamWvCPJT0kEAIClcvCBB3PfTd8UBADLbt8Pk+/MrPzPUZ7gk+CyDP9vWeyzypH9fIf1sy/yF/TBOXAI99XkA+uOyXvOuTSz4gBWI/sYYPXvqHZsffK6Ut+SUt6cmqdIBACAo6UAAMC4KAAs4lkKAMDqdW9N3r/umLzPwT+w2tnHAGtG/c6zjzkwd/wv11rfkeS5EgEA4EgpAAAwLgoAi3iWAgCw+txRS9537LH5yMv/JgfEAawFAxEAa0V5zq0Pbtyy4xMbb3vWSSnl1Uk+n2QkGQAAAAAAlsiollxZkwtveH6efcF03ufwH1hLFBmBNW3vN0555sT8ujck+Y2U+nSJAABwOP53AsDNggBg2ZkAsIhnmQAArKSau5J8bKLmo6+8IncKBFir7GOANvZmNYO5ma1nlsHoNanlNUmeJhUAAA5FAQCAcVEAWMSzFACA8bs3NZ8dJZ/4+sn5wrZtJs4Ca599DNCcuv01E3M/c9uZg1J/sdbyiiSn+nsHAMAjKQAAMC4KAIt4lgIAsPxqSnam5nOl5LMzJ+Vah/5Aa+xjgObtv+70p2a4cHat5cWp5edS6vP8/QMA6JsCAADjogCwiGcpAABLb5RkV5JrUvLlieSqV07nHrEALbOPAfp7433ti54yPPaBMw6OBj9bklNS6slJnptknXQAAPqgAADAuCgALOJZCgDA0fydS+aTfKvW3JSSG5PcOFifr577ydwvHaCzv4cA1B1b1+1Lfno4GJ04Gg2eWUo9sSRPq7VsTqmbk2xOMpnkSQ//k8kkE5IDAFibFAAAGBcFgEU8SwEAeNS2PclsktTkQKmZS8meJHtSc28t+X4p2V1qdpeaO763OXf91iWZFxvQu/8BpCADzsvaqoQAAAAldEVYdGRhdGU6Y3JlYXRlADIwMjEtMDUtMDNUMTk6MjY6MDgrMDA6MDBw8VcFAAAAJXRFWHRkYXRlOm1vZGlmeQAyMDIxLTA1LTAzVDE5OjI2OjA4KzAwOjAwAazvuQAAAABJRU5ErkJggg==;" vertex="1" parent="1">
          <mxGeometry x="2436" y="559.5" width="110" height="110" as="geometry" />
        </mxCell>
        <mxCell id="7eZKOLOASio0npsbyuK4-17" value="" style="shape=image;verticalLabelPosition=bottom;labelBackgroundColor=default;verticalAlign=top;aspect=fixed;imageAspect=0;image=data:image/png,iVBORw0KGgoAAAANSUhEUgAACAAAAAgACAYAAACyp9MwAAAABGdBTUEAALGPC/xhBQAAACBjSFJNAAB6JgAAgIQAAPoAAACA6AAAdTAAAOpgAAA6mAAAF3CculE8AAAABmJLR0QA/wD/AP+gvaeTAACAAElEQVR42uzdefSld13Y8c/3/u5v9n1+MxOGELICCmFVSoKUUkLCogdEidtBXIvWqpXWA6dVHKGVUqvHpe0Ra49H66k1llqLhgSU9HRBq7EeaVWUBgjZZ8tknZnfcr/9I5nJNstveZ7n3vt5Xi/OCGTufe69n+Av33me9/0+JQAAAADojXpDzBzbvePCxaXhxWVQL661XBIlnl2j7C5Rd8codkeJnVFi42NPiC0RMWtyAEDXy5Yocezx/zQfEcci4nBEHClRj4zq4N4yqF8cjEZfXIqZLzywuP1LV7z5/500NqDvihEAAAAA5HTvzfs2z8wsvTJqvLREvbKW8uKo8cKI2GA6AEAyixHx1xHxf0qpf1Zr+cz6cvIPt13z0BGjAfpEAAAAAACQxLHf2b5zfsO61w9Go9fUUq6OiJdGxNBkAICeqhHx2ajx6RrlfwxmRp+ce/2Ru4wFyEwAAAAAADDFDv3+3MvrqLypRH1TRLwqImZMBQDgrD4TNW6KEh+fu//wfy/Xx5KRAJkIAAAAAACmzJFP7XrhaGnwjoj4poh4nokAAKzK0Yj43RjFb86tO/zx8rpYNBJg2gkAAAAAAKbA3bfsn5tdmH9XlPiuiHiBiQAANLvcqrX8Sh0MfmnfNfd93jiAaSUAAAAAAJhghz4x99oo8b0R8baIWG8iAACtGkXEp2opH9lz9NBvuUUAMG0EAAAAAAATph6IweGr5t5SB+UflaivMhEAgO6VUr8Yo/iFmdmlj+x83bFjJgJMxc8uIwAAAACYDPWGWHdk1+7vqrW8NyIuMhEAgAlQ4v4Yxb8czi7+tBAAmPwfWQAAAACMVb01Zo/cv/ubapT3R8RlJgIAMJEeqqX862Fd/NCuN9z/gHEAk0gAAAAAADBGh2/e/bZayj+PiCtMAwBgOpZwJeqB3bNHPlJeF4vGAUwSAQAAAADAGBz+5O4vq7X8VES8yTQAAKZQib+qtbxn77WHbjQMYHJ+NAEAAADQmYO37NkyWBj90xrl+yJixkQAAKZbjfJbJerf23Pt4btNAxg3AQAAAABARw7+3p43llH9hYh4rmkAAKTyQI3yY3s+fejny4EYGQcwLgIAAAAAgJYd/eTO7Ut15ucj4p2mAQCQ2n9bqjPfdsF1933BKIBxEAAAAAAAtOjIJ3e9ajQa/FqUuMw0AAB64cGo8cN7rjv8i0YBdE0AAAAAANCCeksMj8zvPlBLeV9EzJgIAEDfFoTx7wdLo+/d/eajDxoG0BUBAAAAAEDD7r5l/9zs/PyvR4lrTAMAoNc+N1OX3r7ruvv/r1EAXRAAAAAAADTo0E1zL6+D+tGIcrFpAAAQEQ9HLd+197pDv2EUQNsGRgAAAADQjIM3735XHcSnXfwHAOBJtkSpv37w5j0fqtWXc4F2+SEDAAAAsEa1Rjn4ibkfKyXeH863AABw9oXjR09u3fjO51x953HDANrgD6QAAAAAa1BviHWHd8z9Uo14p2kAALAM/3N+cPKtF17z0BGjAJomAAAAAABYpbs/tn/TcP3J/xRRrjMNAABW4LMzi6M37H7z0TuNAmiSAAAAAABgFe69ed/mmbL02zXi9aYBAMDK1S/WmZlr9r3+4G1mATRFAAAAAACwQvffsmPHwsLsxyPqq0wDAIA1uLMM4vV7rjn810YBNGFgBAAAAADLd/fH9m9aWBz+Fxf/AQBowIV1FJ+67/f2XWoUQBMEAAAAAADLdMenL9w43DD/O1HjNaYBAEBDnh2jpVvu/v0dzzUKYK0EAAAAAADLUG+N2fUPn/ho1HidaQAA0KQScdFwaXjTPTdesMc0gLUQAAAAAAAsw+Gjcz8XEW8yCQAAWvKCmeHi7979sf2bjAJYLQEAAAAAwHkcvHnPj9SI7zEJAABa9pXD9Sd/pR5wDQ9YnWIEAAAAAGd36Ka5b64lfi2cRwEAoCulfHjvtYfeZxDAin98GAEAAADAmd13096XlDL6dETYhhUAgE7VWt+1741HftUkgJUQAAAAAACcwbHf2b5zfnb21oi41DQAABiD4zEor977hkN/ahTAcrl/CAAAAMDT1AMxmB8Ofz1c/AcAYHw2xqj+xtFP7txuFMByCQAAAAAAnubQ1XveF6VcZxIAAIzZFYujwb81BmC53AIAAAAA4EkO3Tz3ilHEp0vEOtMAAGAS1Frfte+NR37VJIDzEQAAAAAAPO7em/dtHsTSn0TE800DAIAJ8nCU8vK91x76nFEA5+IWAAAAAACPm4mlnwwX/wEAmDxbotZfrgdc2wPOzQ8JAAAAgIi47+O7rqoR7zYJAAAm1KsPXrX7e4wBOBe3AAAAAAB673M3Xr5++8yxP42ILzMNAAAm2EMzMXrh7uuO3mEUwJnYAQAAAADove0z9/9ouPgPAMDk27oUg39lDMDZ2AEAAAAA6LX7fm/fpWVp6S8iYr1pAAAwFUp5y95rD91oEMDT2QEAAAAA6LXB0tJPhYv/AABMk1p/tt4Q6wwCeMafcY0AAAAA6KtDN829rka8zSQAAJgylx/eNvd3jQF4OgEAAAAA0Eu1Rqkl/oVJAAAwlevZEu+//5YdO0wCeDIBAAAAANBLB2/e+/aIeLlJAAAwpXbOLwx/yBiAJxMAAAAAAL1TD8SglNH7TQIAgGlWarznnhsv2GMSwCkCAAAAAKB3Dl81d31EvNgkAACYcltmZpbeYwzAKQIAAAAAoHdqxHtNAQCAJKvb77v/lh07zAGIEAAAAAAAPXPfJ3ZdGxEvNQkAAJLYOj8//G5jACIiihEAAAAAfXLw43tujlKvNQkAANIocdeeBw5fWq6PecOAfhsaAQAAANAX99y064URozeYBAAAqdR49sGtu6+POPJrhgH95hYAAAAAQG/M1PLusCMiAAAJlVLebQqAP/ACAAAAvXDHDRduXL/t+F0RsdM0AADIaGZUX7j7zUf/wiSgv9wCAAAAAOiFdduOv6O6+A8AQGKLg/iOiPiHJgH95RYAAAAAQC/UEt9hCgAA5Fa+td4as+YA/SUAAAAAANI7dNPcs0qN15gEAADJ7Tl0eNfrjQH6SwAAAAAApLcUo28I50EAAOiBUZTrTQH6yx98AQAAgPRKlHeYAgAA/Vj7xtf++Q2xziSgnwQAAAAAQGqHPjG3PyKuMgkAAHpix57tO90GAHpKAAAAAACktrQ0elNEFJMAAKAvRjF4oylAPwkAAAAAgNRKFCc/AQDo1xq4xptMAfpJAAAAAACkVW+ImSjxt00CAICeueK+G/deZgzQPwIAAAAAIK2DW3e9MiJ2mQQAAL0zs3StIUD/CAAAAACAvEp5jSEAANBLNb7KEKB/BAAAAABAZq82AgAAekoAAD0kAAAAAABSqjVKRFxlEgAA9NRFd9286znGAP0iAAAAAABSOnTznssiYo9JAADQV7NVEAt9IwAAAAAAcqpLLzMEAAD6rbzEDKBfBAAAAABASrUMrjQFAAD6vSgOa2LomaERAAAAACnV+mJDAACg10viCGti6Bk7AAAAAABZvcgIAADouYuO3LhrmzFAfwgAAAAAgHTqLTGMiOeaBAAAPVeW6sylxgD9IQAAAAAA0rlvfvtzwq0PAQAg6mB0iSlAfwgAAAAAgHRqnb3YFAAAIKJGtTaGHhEAAAAAAOnMxOhiUwAAgIiIYgcA6BEBAAAAAJDOKMqzTAEAACJKhLUx9IgAAAAAAEin1LLbFAAAIKJEWBtDjwgAAAAAgHxKnTMEAACIqBHWxtAjAgAAAAAgnVqrbzkBAMBjrI2hRwQAAAAAQDolYpspAABARERsNwLoDwEAAAAAkFBZbwYAABAREdbG0CMCAAAAACCfUtcZAgAARETEsB5wTRD6wv+zAwAAAPnUIgAAAIDHffG1F1sfQ08IAAAAAIB8aswaAgAAPGb74gNuAwA9IQAAAAAA8ilRDAEAAB5fHj9crY+hJwQAAAAAAAAAAJCAAAAAAAAAAAAAEhAAAAAAAAAAAEACQyMAAAAA0qlGAAAAQP8IAAAAAIB0XP8HAACgj9wCAAAAAAAAAAASEAAAAAAAAAAAQAICAAAAAAAAAABIQAAAAAAAAAAAAAkIAAAAAAAAAAAgAQEAAAAAAAAAACQgAAAAAAAAAACABAQAAAAAAAAAAJCAAAAAAAAAAAAAEhAAAAAAAAAAAEACAgAAAAAAAAAASEAAAAAAAAAAAAAJCAAAAAAAAAAAIAEBAAAAAAAAAAAkIAAAAAAAAAAAgAQEAAAAAAAAAACQgAAAAAAAAAAAABIQAAAAAAAAAABAAkMjAAAAANIZRUQxBgAAAPrFDgAAAAAAAAAAkIAAAAAAAAAAAAASEAAAAAAAAAAAQAICAAAAAAAAAABIQAAAAAAAAAAAAAkIAAAAAAAAAAAgAQEAAAAAAAAAACQgAAAAAAAAAACABAQAAAAAAAAAAJCAAAAAAAAAAAAAEhAAAAAAAAAAAEACAgAAAAAAAAAASEAAAAAAAAAAAAAJCAAAAAAAAAAAIAEBAAAAAAAAAAAkIAAAAAAAAAAAgASGRgAAAABkU40AAABOO2YE0Bt2AAAAAAAAAACABAQAAAAAAAAAAJCAWwAAAAAAObkPAAAAAD1jBwAAAAAAAAAASEAAAAAAAAAAAAAJCAAAAAAAAAAAIAEBAAAAAAAAAAAkIAAAAAAAAAAAgAQEAAAAAAAAAACQgAAAAAAAAAAAABIQAAAAAAAAAABAAgIAAAAAAAAAAEhAAAAAAAAAAAAACQgAAAAAAAAAACABAQAAAAAAAAAAJCAAAAAAAAAAAIAEBAAAAAAAAAAAkIAAAAAAAAAAAAASEAAAAAAAAAAAQAICAAAAAAAAAABIQAAAAAAAAAAAAAkIAAAAAAAAAAAggaERAAAAAOlUIwAAAKB/7AAAAAAAAAAAAAkIAAAAAAAAAAAgAQEAAAAAAAAAACQgAAAAAAAAAACABIZGAAAAAOQziohiDAAAAPSKHQAAAAAAAAAAIAEBAAAAAAAAAAAkIAAAAAAAAAAAgAQEAAAAAAAAAACQgAAAAAAAAAAAABIQAAAAAAAAAABAAgIAAAAAAAAAAEhgaAQAAABARtUIAAAA6Bk7AAAAAAAAAABAAgIAAAAAAAAAAEhAAAAAAAAAAAAACQgAAAAAAAAAACABAQAAAAAAAAAAJCAAAAAAAAAAAIAEhkYAAAAApFONAAAAgP6xAwAAAAAAAAAAJCAAAAAAAAAAAIAEBAAAAAAAAAAAkIAAAAAAAAAAAAASEAAAAAAAAAAAQAICAAAAAAAAAABIQAAAAAAAAAAAAAkIAAAAAAAAAAAgAQEAAAAAAAAAACQgAAAAAAAAAACABAQAAAAAAAAAAJCAAAAAAAAAAAAAEhAAAAAAAAAAAEACAgAAAAAAAAAASEAAAAAAAAAAAAAJCAAAAAAAAAAAIAEBAAAAAAAAAAAkIAAAAAAAAAAAgAQEAAAAAAAAAACQwNAIAAAAgHSqEQAAANA/dgAAAAAAAAAAgAQEAAAAAAAAAACQgAAAAAAAAAAAABIQAAAAAAAAAABAAgIAAAAAAAAAAEhAAAAAAAAAAAAACQgAAAAAAAAAACABAQAAAAAAAAAAJDA0AgAAACCbkREAAADQQ3YAAAAAAAAAAIAEBAAAAAAAAAAAkIAAAAAAAAAAAAASEAAAAAAAAAAAQAICAAAAAAAAAABIQAAAAAAAAAAAAAkIAAAAAAAAAAAgAQEAAAAAAAAAACQgAAAAAAAAAACABAQAAAAAAAAAAJDA0AgAAACAdKoRAAAA0D92AAAAAAAAAACABAQAAAAAAAAAAJCAAAAAAAAAAAAAEhAAAAAAAAAAAEACAgAAAAAAAAAASEAAAAAAAAAAAAAJCAAAAAAAAAAAIAEBAAAAAAAAAAAkIAAAAAAAAAAAgAQEAAAAAAAAAACQgAAAAAAAAAAAABIQAAAAAAAAAABAAgIAAAAAAAAAAEhAAAAAAAAAAAAACQgAAAAAAAAAACABAQAAAAAAAAAAJCAAAAAAAAAAAIAEBAAAAAAAAAAAkIAAAAAAAAAAAAASGBoBAAAAkE41AgAAAPrHDgAAAAAAAAAAkIAAAAAAAAAAAAASEAAAAAAAAAAAQAICAAAAAAAAAABIYGgEAAAAQDbVCAAAAOghOwAAAAAAAAAAQAICAAAAAAAAAABIQAAAAAAAAAAAAAkIAAAAAAAAAAAgAQEAAAAAAAAAACQgAAAAAAAAAACABAQAAAAAAAAAAJCAAAAAAAAAAAAAEhAAAAAAAAAAAEACAgAAAAAAAAAASEAAAAAAAAAAAAAJCAAAAAAAAAAAIAEBAAAAAAAAAAAkIAAAAAAAAAAAgASGRgAAAACkM4qIYgwAABBhbQx9YgcAAAAAAAAAAEhAAAAAAAAAAAAACQgAAAAAAAAAACABAQAAAAAAAAAAJCAAAAAAAAAAAIAEBAAAAAAAAAAAkMDQCAAAAICcqhEAAADQK3YAAAAAAAAAAIAEBAAAAAAAAAAAkIAAAAAAAAAAAAASEAAAAAAAAAAAQAICAAAAAAAAAABIQAAAAAAAAAAAAAkIAAAAAAAAAAAgAQEAAAAAAAAAACQgAAAAAAAAAACABAQAAAAAAAAAAJCAAAAAAAAAAAAAEhgaAQAAAJBSNQIAAIiIiGIE0BcCAAAAACAd1/4BAADoI7cAAAAAAAAAAIAEBAAAAAAAAAAAkIAAAAAAAAAAAAASEAAAAAAAAAAAQAICAAAAAAAAAABIQAAAAAAAAAAAAAkIAAAAAAAAAAAgAQEAAAAAAAAAACQgAAAAAAAAAACABAQAAAAAAAAAAJCAAAAAAAAAAAAAEhAAAAAAAAAAAEACAgAAAAAAAAAASEAAAAAAAAAAAAAJCAAAAAAAAAAAIAEBAAAAAAAAAAAkIAAAAAAAAAAAgAQEAAAAAAAAAACQwNAIAAAAgHSqEQAAANA/dgAAAAAAAAAAgAQEAAAAAAAAAACQgAAAAAAAAAAAABIQAAAAAAAAAABAAgIAAAAAAAAAAEhAAAAAAAAAAAAACQgAAAAAAAAAACABAQAAAAAAAAAAJCAAAAAAAAAAAIAEBAAAAAAAAAAAkIAAAAAAAAAAAAASEAAAAAAAAAAAQAICAAAAAAAAAABIQAAAAAAAAAAAAAkIAAAAAAAAAAAgAQEAAAAAAAAAACQwNAIAAAAgm2oEAAAA9JAdAAAAAAAAAAAgAQEAAAAAAAAAACTgFgAAAABAPu4BAAAAQA/ZAQAAAAAAAAAAEhAAAAAAAAAAAEACAgAAAAAAAAAASEAAAAAAAAAAAAAJCAAAAAAAAAAAIAEBAAAAAAAAAAAkIAAAAAAAAAAAgAQEAAAAAAAAAACQgAAAAAAAAAAAABIQAAAAAAAAAABAAgIAAAAAAAAAAEhAAAAAAAAAAAAACQgAAAAAAAAAACABAQAAAAAAAAAAJCAAAAAAAAAAAIAEBAAAAAAAAAAAkIAAAAAAAAAAAAASEAAAAAAAAAAAQAICAAAAAAAAAABIYGgEAAAAQDrVCAAAAOgfOwAAAAAAAAAAQAICAAAAAAAAAABIQAAAAAAAAAAAAAkIAAAAAAAAAAAgAQEAAAAAAAAAACQgAAAAAAAAAACABAQAAAAAAAAAAJCAAAAAAAAAAAAAEhAAAAAAAAAAAEACAgAAAAAAAAAASEAAAAAAAAAAAAAJCAAAAAAAAAAAIIGhEQAAAADZVCMAAACgh+wAAAAAAAAAAAAJCAAAAAAAAAAAIAEBAAAAAAAAAAAkIAAAAAAAAAAAgAQEAAAAAAAAAACQgAAAAAAAAAAAABIYGgEAAACQTjUCAAAA+scOAAAAAAAAAACQgAAAAAAAAAAAABIQAAAAAAAAAABAAgIAAAAAAAAAAEhAAAAAAAAAAAAACQgAAAAAAAAAACABAQAAAAAAAAAAJCAAAAAAAAAAAIAEBAAAAAAAAAAAkMDQCAAAAIB8qhEAAADQO3YAAAAAAAAAAIAEBAAAAAAAAAAAkIAAAAAAAAAAAAASEAAAAAAAAAAAQAICAAAAAAAAAABIQAAAAAAAAAAAAAkIAAAAAAAAAAAgAQEAAAAAAAAAACQgAAAAAAAAAACABIZGAAAAAKRTjQAAAID+sQMAAAAAAAAAACQgAAAAAAAAAACABAQAAAAAAAAAAJCAAAAAAAAAAAAAEhAAAAAAAAAAAEACAgAAAAAAAAAASEAAAAAAAAAAAAAJCAAAAAAAAAAAIIGhEQAAAADZVCMAAACgh+wAAAAAAAAAAAAJCAAAAAAAAAAAIAEBAAAAAAAAAAAkIAAAAAAAAAAAgAQEAAAAAAAAAACQgAAAAAAAAAAAABIQAAAAAAAAAABAAgIAAAAAAAAAAEhAAAAAAAAAAAAACQgAAAAAAAAAACCBoREAAAAA6VQjAACA044ZAfSFHQAAAAAAAAAAIAEBAAAAAAAAAAAkIAAAAAAAAAAAgAQEAAAAAAAAAACQgAAAAAAAAAAAABIQAAAAAAAAAABAAgIAAAAAAAAAAEhAAAAAAAAAAAAACQgAAAAAAAAAACABAQAAAAAAAAAAJCAAAAAAAAAAAIAEBAAAAAAAAAAAkIAAAAAAAAAAAAASEAAAAAAAAAAAQAICAAAAAAAAAABIQAAAAAAAAAAAAAkIAAAAAAAAAAAgAQEAAAAAAAAAACQgAAAAAAAAAACABIZGAAAAAKRUjQAAAIB+sQMAAAAAAAAAACQgAAAAAAAAAACABAQAAAAAAAAAAJCAAAAAAAAAAAAAEhgaAQAAAJBRNQIAAAB6xg4AAAAAAAAAAJCAAAAAAAAAAAAAEhAAAAAAAAAAAEACAgAAAAAAAAAASEAAAAAAAAAAAAAJCAAAAAAAAAAAIAEBAAAAAAAAAAAkIAAAAAAAAAAAgAQEAAAAAAAAAACQgAAAAAAAAAAAABIQAAAAAAAAAABAAgIAAAAAAAAAAEhAAAAAAAAAAAAACQyNAAAAAEhnZAQAAAD0jx0AAAAAAAAAACABAQAAAAAAAAAAJCAAAAAAAAAAAIAEBAAAAAAAAAAAkIAAAAAAAAAAAAASEAAAAAAAAAAAQAICAAAAAAAAAABIQAAAAAAAAAAAAAkIAAAAAAAAAAAgAQEAAAAAAAAAACQgAAAAAAAAAACABAQAAAAAAAAAAJCAAAAAAAAAAAAAEhAAAAAAAAAAAEACAgAAAAAAAAAASEAAAAAAAAAAAAAJCAAAAAAAAAAAIAEBAAAAAAAAAAAkIAAAAAAAAAAAgASGRgAAAACkU40AAACA/rEDAAAAAAAAAAAkYAcAAAAAIJ2REQAAwGnFCKA37AAAAAAAAAAAAAkIAAAAAAAAAAAgAQEAAAAAAAAAACQgAAAAAAAAAACABAQAAAAAAAAAAJCAAAAAAAAAAAAAEhAAAAAAAAAAAEACAgAAAAAAAAAASEAAAAAAAAAAAAAJCAAAAAAAAAAAIAEBAAAAAAAAAAAkMDQCAAAAIJ9qBAAAcFoxAugJOwAAAAAAAAAAQAICAAAAAAAAAABIQAAAAAAAAAAAAAkIAAAAAAAAAAAgAQEAAAAAAAAAACQwNAIAAAAgnWoEAAAA9I8dAAAAAAAAAAAgAQEAAAAAAAAAACQgAAAAAAAAAACABAQAAAAAAAAAAJCAAAAAAAAAAAAAEhAAAAAAAAAAAEACAgAAAAAAAAAASEAAAAAAAAAAAAAJCAAAAAAAAAAAIAEBAAAAAAAAAAAkIAAAAAAAAAAAgAQEAAAAAAAAAACQgAAAAAAAAAAAABIQAAAAAAAAAABAAgIAAAAAAAAAAEhAAAAAAAAAAAAACQgAAAAAAAAAACCBoREAAAAA2VQjAACA04oRQG/YAQAAAAAAAAAAErADAAAAAJCPLQAAAADoITsAAAAAAAAAAEACAgAAAAAAAAAASEAAAAAAAAAAAAAJCAAAAAAAAAAAIAEBAAAAAAAAAAAkIAAAAAAAAAAAgAQEAAAAAAAAAACQgAAAAAAAAAAAABIQAAAAAAAAAABAAgIAAAAAAAAAAEhgaAQAAABRjAByqdUMIP0/vP3TGwAAnkEAAAAATDun/wGgh9Ya+ggIAADISAAAAABMMqfmAYBWLDcgEAoAADBNBAAAAMC4Oa0OAEysc4UC4gAAACaNAAAAAOiKU+QAQCpnigNEAQAAjJMAAAAAaINT3wBAL51txwBhAAAAXRAAAAAAa+V0NgDAeTw9DBAEAADQBgEAAACwGk5ZAwCsgSAAAIA2CAAAAIDlcEoaAKBFTw4CxAAAAKyWAAAAADgbp56B6VWNAJjiH2F2BwAAYJUEAAAAwJM5vQwAMGHsDgAAwHIJAAAAAKeRAQCmhBgAAIBzEQAAAMCY1Ht/cvN8PX7xaLHsGZSYKxF7apTdUeqWiBjUWrabUqK/37U6RQ8dOn7vX+yto0WDgLUYLcZotBhRR7E0fzxGC8djtHAyRgvHY/HEg7F08pE42/02/EOvq/XF4/M2cAAAHicAAACAFtVay8mDP35JWRxeGbW+OEq8KGpcUktcPL90Yk9EicHg8cc+6f9GRJTiBtaZODEP3dq8/8sNAdpe54wWY+nEg7F4/MFYfPT+mH/4UCw8eCgWHjkco6WFyfjnb2/WnNYcAAD0aw0MAACdqIc+vPXkwvxVpcbVJeLVNeKVEbHNZACA/iyIaiw8ejROPnBPzN9/Z5x84J5YeOTIxL/tbCdKhQAAPNlgVHZe8u3HjpkE5GcHAAAAWINaDwwW7hm8rNZyTYm4Zn5h/rWlxmzE2TbEBQBIrpSY3bw7Zjfvjtj/ooiIWJp/NE7ef0ecOHp7HD/4+Viaf3jy1nXn+1hTt049/bcDAIA+LceNAAAAVqbWA8OTd5fXRcxcH1HfWiL2mAoAwHIXU6M4+cA98eh9fx2P3vfZWDr5yFR/nGk6wSoGAOgvOwBAf1jyAQDAMs3f8YG/MZoZfFvU+nUu+gMANKDWOHHsrjh+z1/GI/f9ZYwW51N8rEk/6SoEAOgfAQD0h6UeAACcQz1yYNvCycE31lq+JyJeZiIAAC2tu0aLcfzQbfHwnZ+JE0dvT/f5JvFErBAAoD8EANAfQyMAAIBnOnHfgUsHi4MfnD9RvjMiNpsIAEC7ymAYm/Y9Pzbte37MP3QwHrr91nj03r+KWpdSfL769M87Ce+pigAAANKtq40AAACeMH/nP3lVjfrDUeJtETEwEQCA8Vk68VA8ePufxCN3/VmMlhbSfs5JOEkrBADIzQ4A0B+WdQAAEBEn7/jAlTFTfjRqfL11MgDAZFmaPx4P3v7H8dDt/zvqaPEpv5ftwvW4P44QACAnAQD0h+UcAAC9dvLun3hB1KUPRcRbrY8BACbb0slH4oHP/0E8fNdnoo5GazrWNFzoHudbFAIA5CIAgP6wjAMAoJfq7R/aOT9cfG9E/FBErDMRAIDpsfDI0Tj6V/81jh/+fGuvMWkXwMfxdkQAAHnMCACgNyzhAADolVoPDBbumnl3LfHBiNhtIgAA0+vRQ7fF0c9+KhaPP9Dp6477wnjXLy8EAJh+AgDoj6ERAADQFyfuOHD5wj2DX6ylvs40AACm36Y9l8bG3RfFsdv+IB744q0RddTJ69b6zL/W5UXyUy/f1UvWKgIAAJgWAgAAANKrt35kdv6Cg++LUv9xrbHeRAAA8iiDYey84jWxae8VceTPb475hw+PZ835tCigiwvmXYYApz6fEAAAYMLXx0YAAEBmx+/94CVlqf67EvFq0wAAyK3WpXjg8/8rjn3+D8/8Nf0x6urCeUn0WQBojlsAQH8MjAAAgKzm7/zAtw6W6mdc/AcA6IdSZmLHZVfHBa/4+phZv2Wi3lutT/3V2uvEEzsDtP1ZAACYwDWxEQAAkE09eGDL/PzML0XUbzANAIB+Wpp/NA595sY4cfT2iX+vbX6jvkzxewegOTPVDgDQF3YAAAAglRN3fPCK+fnBp138BwDot5l1m+KCV7w9dlx6VUSUJ74af7ZfY9TmzgBtfzw7AQAATBYBAAAAaZy484NfXUr944i40jQAAIgyiB2XXx17X/I1MRjOnvuxExIHtBUD1A7eMwAA4ycAAAAghRN3fPAHS9T/HBHbTQMAgCfbtO+KuOCV3xwzG7au7gBjCgOavrBuNwAAgPwEAAAATLVab5iZv+sDP1tK/ZmImDERAADOZN3Wudj/qm+Jddv2NrgYjU6CgKZ3BWjz7YoAAADGSwAAAMDUqp/7ufXzd3/2N2uNHzANAADOZ2b95rjgK78hNuy8sKUFarQeBDQdArT1HgEAGA8BAAAAU6nefWDT/KZjvx01vtY0AABYrsFwXez7iq+LTXsv62DRGq0FAU2FAG21Ck3fvgAAgGWud40AAIBpU+/9yc0Lo8HHosZ1pgEAwEqVwTD2vPRrYvO+53W8kI3Gr7g3GQK08pFFAAAAnRoaAQAA06QePLBlfv7RmyPiatMAAGC1ShnE3IvfHPUzNR6573OP/bVOF7ZPfjMNHK6e+lxrf0tNz6HWtb0vAACWzw4AAABMjfrnB9bNL5T/GC7+AwDQgDIYxJ6XvDk27rn0sfXmWX61v9Bt7sWa2BGgrVsCAADQPgEAAABTod76kdn57YOP2vYfAIAmlTIT+1761bFh13POvhaNDsOACQkB2viMIgAAgPYJAAAAmHi11jL/rHt/OaJ+tWkAANC0MhjGvpe9NdZt3bOydWq0GAQ0dOBJ2w1ABAAA0C4BAAAAE2/+rh//QNT4FpMAAKAtg+G6uOAVb4+ZDVtXfYzWgoA1HrCJ3QAa/TgiAACA9ta1RgAAwCSbv+vHvz2i/IhJAADQtpn1m+OCV7w9BsP1jRyv8RhgjCFA01GDCAAAoB0CAAAAJtbC3Qe+qtb4iEkAANCVdVt2x54r3xgRpdHjNhoDNBACrOWlG5uJCAAAoHECAAAAJtLDXzhwwWhU/kNEzJoGAABd2rT3sth+6Stbu0DdWAywhoOIAAAAchIAAAAwceqtH5kdDssNEfFs0wAAYBx2XX51bJy75PS2+U/+1ejaN8YXAqz1lgCNzUAEAADQGAEAAAATZ+GCez9cSrzGJAAAGJtSYu9L3hgzG7Y847faCAIa2RWg490ARAAAAJNnaAQAAEySE3f9+BtGNf6+SQAAMG6D2Y2x9yVviXv+6Dcj6uisj3v6xetS1va6pw5XOnzyqc+w0vdeV/s+AQBohQAAAICJ8eDdB+ZiVH8lnEMEAGBCbNi5P3Zc8vI49vlbl/2cJwcBa4kB1hwCrOKJtY4vAljNawMA8FQCAAAAJsa6pfg3EfEskwAAYJLsuPzqOH7oS3HywYMrfm4TMUBd7fPXcEsAEQAAwHQaGAEAAJPg5JcOfGNEvM0kAACYNKXMxNyV10UpM2s6Tq1P/FrL87uwmtepY3xtAAAeIwAAAGDsHrzzJ3bXQfyMSQAAMKnWbZ2L7Ze8vLHjrSUG6CoEEAEAAEwfAQAAAGO3fjT/01Fjn0kAADDJdlz+qhhu2RU1mrvQHTHZIcBqXsO1ewCA8REAAAAwVse/dOBv1hLfahIAAEy6MhjG3Atee/q/16f9Wqu1hABtG0cEYBcAAICVEwAAADA2tR4YlEH8tEkAADAtNs5dHJv2Xnrm9W00EwOs6lv3He0GsKLHj+E1AQD6TgAAAMDYnLizfGfUeIVJAAAwTXa/4LVRBsNzPqaJGGC1IUCbRAAAAJNNAAAAwFjUQx/eWkr9oEkAADBtZjftiG0XvXj5a99YWwyw0hCg7d0AxhEBAACwPAIAAADGYv74iR+IGvtMAgCAabTz0lfGYLhuxc/rOgRoS9cRgF0AAACWRwAAAEDn6m3/bPuo1PeYBAAA02qwbmNsu+ilq18Tx+pjgJWEAG3uBtD1RXkRAADA+Q2NAACArp1Yf+IflBq7TAIAgGm2/dKviAdu/7MYLZ1c03FOXdcuK31ejSil+ce29h5W8RkBAFgZAQAAAJ2qt713+8laf9AkAACYdjPDdbH9uS+Jo7f90em/tpaL7KsJAU59K345r9tWBLDSz7iWtzAJnwEAYJK5BQAAAJ06ObvxuyNim0kAAJDB9ue+NMrgie9Zndpyfy1b76/m1gAruSVA01Z6zNrx6wEA9IkAAACAztRb/85slPr9JgEAQBYz6zfF1me/4Oxr4A5DgD5FAAAAnJkAAACAzszvu+D6iLjIJAAAyGTHJa847770a9kVYKURwHJeYy1hwrmO2RW7AAAAnJkAAACALpef32cGAABks27zzti4+8JlP341F9+nZTeAlRzPrQAAAJo3NAIAALpw8ksHXlSjXmUSAABktO05V8bxw19a0XNOXcA+z+YBT33O4/9elnn85Rx7uY9byeda7vHqMj8LAGvlpy30hR0AAADoRC31u00BAICstuy7LGbWbVzdWnmVOwI0eexpvR2AXQAAAJ5KAAAAQOvqFw5siCjvNAkAALIqZSa27v/yta2ba3tb6I8jAmjjcwAAcG4CAAAAWjc/HL0lou40CQAAMtuy/wWnL+Kv5WL6Sp5fY2W7ATTxmGjw9Z78Obp4HQCA7IZGAABA20a1XO9OcwAAZLdh296Y3bQjFh45FhFPXJguq1wM17r859ZY3t2dl3PMlbxuk58BgBb5WQy9YQcAAABaVe8+sKlEeYtJAADQB1sveN4z18Rr2BVgpbsBLPeYTTym8T87rOW5dgEAAIgIOwAAANCy+YV4c5TRZpMAAKAPtjzreXH0tj866++vdleA5X6T/tR18NLQ8ZrQxk4G4/5MAACTyg4AAAC0q9SvMQQAAPpi/ba5GG7cet7HrWZHgKZ3AzjfsZr8Vr1v6AMAdEMAAABAa2qNUqO+wSQAAOiTTXueu5I186pCgGU9roFjuRUAAMB0EQAAANCahdsPvCwinmUSAAD0yea5i1f8nD5EACs5juv4AACrIwAAAKA1dbD0RlMAAKBvNs1dFKWs/NTrSncDWO7jpzUCAABg5QQAAAC0pkb5W6YAAEDfDIbrYv22PatfR7ewG8A03g6gdjQ/AIBUa1EjAACgDbW+YyYiXmkSAAD00YZd+6M+/q/VradXvhvAeR8zMX9W8L8PAIC2CAAAAGjFwl0vvDIitpsEAAB9tGHH/tP/ea0hQJOPrWs8Rte3ArALAADAyggAAABoxWg0usoUAADoq0279j/jr602BFjJbgDTFAEAANA8AQAAAK0oUb7CFAAA6KuZ9ZtjuGHLGX+v7d0AmrhA38VFfrsAAAA0TwAAAEArRlFfbAoAAPTZ+q1zZ/29tewG0MTj1npt3MV1AIDJJAAAAKBxtb5jpkR8uUkAANBn67fNnX/tvIoQoKsIoItbAdgFAACgWUMjAACgaSfvfv7lEXWTSQAA0Gfrt8wt+7E1apQoy398jShl7Y+rEed81eW+DgAAk8EOAAAANG8pnm8IAAD03eyWnSt6/DTuBDANuwAAAPSJAAAAgObVcrEhAADQd7Mbt618Kb3CWwI0FQGsafk/4Vfm3QYAAOgTAQAAAM0rAgAAAJhZtzEGw9lVPbeNCODcr9f+a4zz+AAAfSEAAACgBfUSMwAAgIjZDdtXv6puOAKY9FsBLG8mq3yewAAA6ImhEQAA0LRay4XFHToBACCGG7bEyYcOP/ZfyirW1lGjLPOJtUaUsrbH1NW9zYb+HHH+9w8AwHnWn0YAAEDTStQ9pgAAABGD2Y1PfG19lVfXu44AVvvcri7gjzNSAJhafnBCf9afRgAAQAt2GwEAAEQM12946l+osap97Ju+HcC5X2t82tyq320AAIA+EAAAANCo+rnvXx8RW0wCAAAiBsONZ1k4r2Kt3WAEsJaL4ed6rovsAABjXn8aAQAATXp0dusuUwAAgMfMrNtw9t9sOQI477Fqo2+tUzoDAIAzEwAAANDwAnOwwRQAAODx9fFg5twPWMUtAZYbAbR5K4A2dwFwGwAAgDWsP40AAIBGF5h1uN4UAADgcTPD5T1uTBGAC+IAALkMjQAAgGZXmPPrYqQzBQCAiIgyGCz/2n6NiLL8Y9eoUVbyhLMdp0aUsvK3dM7nneP31vqeVjkuAIBecGYWAIBGldHMrCkAAMDj6+Pz3QLg6VrYCcC3/AEA+kMAAABAwyvM0YwhAADAY8pqvgbfwgX7tdwKoK72eRMaHggiAIDMBAAAAAAAAJOmruShOa9oL+dCvWv5AABPJQAAAAAAAJhEDUcAdgEAAMhPAAAAAAAAMKk6jgB6M1ZzAACSEgAAAAAAABAR7ewC0Nb7Wc77AgDoGwEAAAAAAEBLascHmcRdAHzbHgCgOwIAAAAAAIAW1Yk5yDJfygV7AICpNTQCAACatBgRxRgAACAinrhuX5tYJy/zIDVqlPM8sNaIUpp9C6s95nlfcxnHXc1823q/AADjZAcAAAAAAIAO1E5fa22v1vQuAHYVAADohh0AAABogbN7AABwprXxmncCaGQrgccPNUW7AAAAsDx2AAAAAAAA6FDt6AA1UZhrBwEAgOWxAwAAAM1aCJkpAACcMoozXrBv8Iv8rWn62/xt7w6wmpnasQAAyMapWQAAAACAMagdPPl8uwCs9pv1tYVjAgCwdgIAAAAAAADOyMV8AIDpIgAAAAAAABiTOrYnP+kwHV7kX8triREAAM5PAAAAAAAAMEa19ePXqXzfWd4TAECXBAAAAAAAANOqgyveq/nm/TR9W9/OAgBAJgIAAAAAAIAxG/cuAC6CAwDkIAAAAAAAAJgAtfMnjuc9iw0AANojAAAAAAAAYCqIBwAAzk0AAAAAAAAwIdrcBWAttwFYzYV3F+sBALo3NAIAAJrnTB8AADC+P40UYwAAesoOAAAAAAAAE6R6vwAArJIAAAAAAAAggwZuA3DO5zZ4pX/Sbg/gdgUAQBYCAAAAAACACTOu69FNXwhv48K6i/UAAGcnAAAAAAAAAACABAQAAAAAAABZtHwbgDW8LAAAHRAAAAAAAABMIBfVzQ4AYKUEAAAAAAAAnFbr6n6vydeZtM8NADAtBAAAAAAAABMqwzVpF9YBALojAAAAAAAAyKQHF9xFBQAAZzY0AgAAGudkHAAAPLE2rpP4tmqUUqzpAQCSsQMAAAAAAABrphkAABg/OwAAANACp/4AAKCptXGNiNLJk5b39FojSvF3FgBgEgkAAAAAAABaJI89x2xajAnW2EAAAEwltwAAAAAAAKBVVQUBANAJAQAAAAAAQA9VV+XPMBMzAACmmwAAAAAAAGDCuS4NAMByCAAAAAAAAGiEUAEAYLwEAAAAAAAAGSW/Gm+7fgCAZxIAAAAAAADwDK6vAwBMHwEAAAAAAAAr4tv3AACTSQAAAAAAAAAAAAkIAAAAAAAApkAbX7qvE/BVfrsJAAA0Z2gEAAA0ayF0pgAAcIqr26cnUSNK6X76xegBgB5xZhYAAAAAAAAAEhAAAAAAAAAAAEACAgAAAAAAAAAASEAAAAAAAACQVe3+6dXUAQDGRgAAAAAAAAAAAAkIAAAAAAAAAAAggaERAADQOHt+AgCA9TEAAJ2zAwAAAAAAACtWhQ0AABNHAAAAAAAAAAAACQgAAAAAAAAAACABAQAAAAAAAFPJbQgAAJ5qaAQAADTPWTgAALA2BgCga3YAAAAAAADosepr9E+bhxkAANNLAAAAAAAAwFi56A4A0AwBAAAAAAAAnXChHwCgXQIAAAAAAAAAAEhAAAAAAAAAMCV8gR4AgHMRAAAAAAAAAABAAkMjAACgab6VBAAAAADQPTsAAAAAAAAAAEACAgAAAAAAAAAASEAAAAAAAABAWm5RBgD0iQAAAAAAACAzV8ABAHpjaAQAADTPGUYAAAAAgK7ZAQAAAAAAAAAAErADAAAAAABAiyZhf6wyBe8RAIC1EwAAANA8Zw8BAOAxoxpRp3uBXOP8AQEAAJPBLQAAAAAAAAAAIAEBAAAAAAAAjbIpGADAeAgAAAAAAAAAACABAQAAAAAAAAAAJCAAAAAAAAAAAIAEBAAAAAAAAAAAkIAAAAAAAAAAAAASGBoBAADNq0YAAADWxgAAdMwOAAAAAAAAAACQgAAAAAAAAAAAABIQAAAAAAAAAABAAgIAAAAAAAAAAEhAAAAAAAAAAAAACQgAAAAAAAAAACABAQAAAAAAAAAAJCAAAAAAAAAAAIAEBAAAAAAAAAAAkIAAAAAAAAAAAAASGBoBAACNq0YAAADWxgAAdE0AAABAC5zlBACA02tjy2MAADriFgAAAAAAAAAAkIAAAAAAAAAAAAASEAAAAAAAAAAAQAICAAAAAAAAAABIQAAAAAAAAAAAAAkIAAAAAAAAAAAgAQEAAAAAAAAAACQgAAAAAAAAAACABAQAAAAAAAAAAJCAAAAAAAAAAAAAEhgaAQAAzVoInSkAAAAAQPecmQUAAAAAAACABAQAAAAAAAAAAJCAAAAAAAAAAAAAEhgaAQAAAABAO+rjvwBgnI4ZAfSGHQAAAAAAAAAAIAEBAAAAAAAAAAAkIAAAAAAAAAAAgASGRgAAQKMWQmYKAACnVCMAAKA7AgAAAAAAgDaJAAAYt2NGAH3hu1kAAAAAAAAAkIAAAAAAAAAAAAAScAsAAABaYI9TAACwNgYAoGt2AAAAAAAAAACABAQAAAAAAAAAAJCAAAAAAAAAAAAAEhAAAAAAAAAAAEACAgAAAAAAAAAASGBoBAAANK0aAQAAWBsDANA5OwAAAAAAAAAAQAICAAAAAAAAAABIQAAAAAAAAAAAAAkIAAAAAAAAAAAgAQEAAAAAAAAAACQwNAIAAJpXjQAAAKyNAQDomB0AAAAAAAAAACABAQAAAAAAAAAAJCAAAAAAAAAAAIAEhkYAAEDj3OYUAAAAAKBzAgAAAAAAgLbUaD6QLat8HwAApOcWAAAAAAAAAACQgAAAAAAAAAAAABIQAAAAAAAAAABAAgIAAAAAAAAAAEhAAAAAAAAAAAAACQyNAACA5lUjAAAAa2MAADpmBwAAAAAAAAAASEAAAAAAAAAAAAAJCAAAAAAAAAAAIAEBAAAAAAAAAAAkMDQCAAAAAID2VCMAAKAjdgAAAAAAAAAAgAQEAAAAAAAAAACQgAAAAAAAAAAAABIQAAAAAAAAAABAAgIAAAAAAAAAAEhAAAAAAAAAAAAACQyNAACA5lUjAAAAAADomAAAAIDmuf4PAADWxgAAdE4AAAAAAADQJhEAAAAdGRgBAAAAAAAAAEw/AQAAAAAAAAAAJCAAAAAAAAAAAIAEBAAAAAAAAAAAkIAAAAAAAAAAAAASEAAAAAAAAAAAQAICAAAAAAAAAABIQAAAAAAAAAAAAAkIAAAAAAAAAAAggaERAADQrMWIKMYAAAAREVGNAACAztgBAAAAAAAAAAASEAAAAAAAAAAAQAICAAAAAAAAAABIQAAAAAAAAAAAAAkIAAAAAAAAAAAgAQEAAAAAAAAAACQgAAAAAAAAAACABAQAAAAAAAAAAJDA0AgAAGhcNQIAALA2BgCgawIAAAAAAIA29TUCKOYBANA1AQAAAC1wRg8AAKyNAQDomgAAAAAAAKBVkxABlCl4jwAArNXACAAAAAAAAABg+gkAAAAAAAAAACABtwAAAKBxNg8FAABrYwAAuicAAAAAAABokQgAAICuuAUAAAAAAAAAACQgAAAAAAAAAACABAQAAAAAAAAAAJCAAAAAAAAAAAAAEhAAAAAAAAAAAEACAgAAAAAAAAAASGBoBAAANK8aAQAAAABAx+wAAAAAAAAAAAAJCAAAAAAAAAAAIAEBAAAAAAAAAAAkIAAAAAAAAAAAgASGRgAAQOOqEQAAAAAAdE0AAAAAAADQJoEsAAAdcQsAAAAAAAAAAEhAAAAAAAAAAAAACQgAAAAAAAAAACABAQAAAAAAAAAAJCAAAAAAAAAAAIAEhkYAAEDzqhEAAIC1MQAAHbMDAAAAAAAAAAAkIAAAAAAAAAAAgAQEAAAAAAAAAACQgAAAAAAAAAAAABIQAAAAAAAAAABAAgIAAAAAAAAAAEhAAAAAAAAAAAAACQgAAAAAAAAAACABAQAAAAAAAAAAJCAAAAAAAAAAAIAEhkYAAECzFkJnCgAAp1QjAACgM87MAgAAAAAAAEACdgAAAKBZixFRjAEAACLCBgAAAHRKAAAAAAAA0JYaIgAAADrjFgAAAAAAAAAAkIAAAAAAAAAAAAAScAsAAAAAAIAWTcMdAMqEf4Yy5fMFAOiKHQAAAAAAAAAAIAEBAAAAAAAAAAAkIAAAAAAAAAAAgAQEAAAAAAAAAACQgAAAAAAAAAAAABIYGgEAAM2rRgAAAAAA0DE7AAAAAAAAAABAAgIAAAAAAAAAAEhAAAAAAAAAAAAACQgAAAAAAAAAACABAQAAAAAAAAAAJCAAAAAAAAAAAIAEBAAAAAAAAAAAkIAAAAAAAAAAAAASEAAAAAAAAAAAQAJDIwAAoHHVCAAAwNoYAICuCQAAAGiBs5wAAHB6bWx5DABAR9wCAAAAAAAAAAASEAAAAAAAAAAAQAJuAQAAQKMWQmUKAACn2P0fAIAuOTcLAAAAAAAAAAkIAAAAAAAAAAAgAQEAAAAAAAAAACQgAAAAAAAAAACABAQAAAAAAAAAAJCAAAAAAAAAAAAAEhAAAAAAAAAAAEACAgAAAAAAAAAASGBoBAAANK8aAQAAWBsDANAxOwAAAAAAAAAAQAICAAAAAAAAAABIQAAAAAAAAAAAAAkIAAAAAAAAAAAgAQEAAAAAAAAAACQgAAAAAAAAAACABIZGAABA46oRAABAREStlscAAHRHAAAAAAAA0CYFAAAAHXELAAAAAAAAAABIQAAAAAAAAAAAAAkIAAAAAAAAAAAggaERAADQPDc5BQAAa2MAALpmBwAAAAAAAAAASEAAAAAAAAAAAAAJCAAAAAAAAAAAIAEBAAAAAAAAAAAkIAAAAAAAAAAAgAQEAAAAAAAAAACQgAAAAAAAAAAAABIQAAAAAAAAAABAAgIAAAAAAAAAAEhAAAAAAAAAAAAACQyNAACAZi2EzhQAAAAAoHvOzAIAAAAAAABAAgIAAAAAAAAAAEhAAAAAAAAAAAAACQyNAACAxlUjAAAAAADomgAAAAAAAKAtNXIEsuUcnw8AgInhFgAAAAAAAAAAkIAAAAAAAAAAAAASEAAAAAAAAAAAQAICAAAAAAAAAABIYGgEAAAAAABtqg0fr0zAewAAYBLZAQAAAAAAAAAAErADAAAALfDtIgAAsDYGAKBrdgAAAAAAAAAAgAQEAAAAAAAAAACQgAAAAAAAAAAAABIQAAAAAAAAAABAAgIAAAAAAAAAAEhAAAAAAAAAAAAACQgAAAAAAAAAACCBoREAAAAAALSnGgEAAB2xAwAAAAAAAAAAJCAAAAAAAAAAAIAE3AIAAIBmLYTMFAAATrH/PwAAHRIAAADQuOosJwAAnF4dAwBAVwQAAAAAAABt0gAAMG7FCKAvbM4KAAAAAAAAAAkIAAAAAAAAAAAgAQEAAAAAAAAAACQgAAAAAAAAAACABAQAAAAAAAAAAJCAAAAA/j97dxOr6XneBfy63/c57znzPeNxbCe24klMnLaEwI6kKkJClIZFpYKUElUskPgoVYuEFJAqFmgk1DhxolTKAqWCBYuuugDEEoSEgC3LsIlI6zqe45gkHn/NzHnPx83CYycljmOPz/ucc/737ycdxXJkZ+Yf2ff9vO//uS4AAAAAAIAACgAAAAAAAAAAEEABAAAAAAAAAAACKAAAAAAAAAAAQIBJBAAAHL8uAgAAAACAmZkAAAAAAAAAAAABFAAAAAAAAAAAIIACAAAAAAAAAAAEUAAAAAAAAAAAgAAKAAAAAAAAAAAQQAEAAAAAAAAAAAIoAAAAAAAAAABAgEkEAAAcuy4CAABwNwYAYG4mAAAAAAAAAABAABMAAAAAAAA2yRQAAE5aEwGMwgQAAAAAAAAAAAhgAgAAABvgFScAAHA3BgBgbiYAAAAAAAAAAEAABQAAAAAAAAAACKAAAAAAAAAAAAABFAAAAAAAAAAAIIACAAAAAAAAAAAEUAAAAAAAAAAAgAAKAAAAAAAAAAAQQAEAAAAAAAAAAAJMIgAAAAAA2JwuAgAAZmICAAAAAAAAAAAEUAAAAAAAAAAAgABWAAAAcMz2S88UAADeYgEAAADz8cksAAAAAAAAAARQAAAAAAAAAACAAAoAAAAAAAAAABBgEgEAAMfOmlMAAAAAgNmZAAAAAAAAAAAAAUwAAAAAAADYpNMwIaudgV8jAAAfmAkAAAAAAAAAABBAAQAAAAAAAAAAAigAAAAAAAAAAEAABQAAAAAAAAAACDCJAACA49dFAAAA7sYAAMzMBAAAAAAAAAAACKAAAAAAAAAAAAABFAAAAAAAAAAAIIACAAAAAAAAAAAEUAAAAAAAAAAAgAAKAAAAAAAAAAAQQAEAAAAAAAAAAAIoAAAAAAAAAABAAAUAAAAAAAAAAAgwiQAAgOPWRQAAAO7GAADMzgQAAAAAAAAAAAhgAgAAABvgPScAAAAAgLkpAAAAcPx8/w8AAO7GAADMTgEAAAAAAGBTeikBAAAwm4UIAAAAAAAAAODsUwAAAAAAAAAAgAAKAAAAAAAAAAAQQAEAAAAAAAAAAAIoAAAAAAAAAABAAAUAAAAAAAAAAAigAAAAAAAAAAAAASYRAAAAAABsRr//AwAAc1AAAABgA3zECQAA7sYAAMzNCgAAAAAAAAAACKAAAAAAAAAAAAABFAAAAAAAAAAAIIACAAAAAAAAAAAEUAAAAAAAAAAAgAAKAAAAAAAAAAAQQAEAAAAAAAAAAAIoAAAAAAAAAABAgEkEAAAcuy4CAABwNwYAYG4mAAAAAAAAAABAABMAAAAAAADOElMFAAD4KRQAAAA4Zgdl0BQAALzFt/UAAMzHJ7MAAAAAAAAAEEABAAAAAAAAAAACKAAAAAAAAAAAQAAFAAAAAAAAAAAIoAAAAAAAAAAAAAEUAAAAAAAAAAAggAIAAAAAAAAAAASYRAAAAAAAcJZ0EQAA8I5MAAAAAAAAAACAAAoAAAAAAAAAABBAAQAAAAAAAAAAAkwiAADg+NlJCgAAAAAwNxMAAAAAAAAAACCAAgAAAAAAAAAABFAAAAAAAAAAAIAACgAAAAAAAAAAEGASAQAAx2q/1EwBAAAAAE6Aj2YBAAAAAAAAIIAJAAAAAAAAm9RFAADAPEwAAAAAAAAAAIAACgAAAAAAAAAAEEABAAAAAAAAAAACTCIAAOD4WXIKAABv3Y0TbsfNzR8A4EwwAQAAAAAAAAAAAigAAAAAAAAAAEAABQAAAAAAAAAACKAAAAAAAAAAAAABFAAAAAAAAAAAIIACAAAAAAAAAAAEUAAAAAAAAAAAgAAKAAAAAAAAAAAQYBIBAADHrYsAAADcjQEAmJ0JAAAAAAAAAAAQQAEAAAAAAAAAAAJYAQAAwAYYdAoAAO7GAADMzQQAAAAAAAAAAAhgAgAAAMfPS04AAOBuDADA7EwAAAAAAAAAAIAAJgAAAAAAAGySKQAAAMzEBAAAAAAAAAAACKAAAAAAAAAAAAABFAAAAAAAAAAAIIACAAAAAAAAAAAEUAAAAAAAAAAAgAAKAAAAAAAAAAAQQAEAAAAAAAAAAAJMIgAA4Ph1EQAAgLsxAAAzMwEAAAAAAAAAAAIoAAAAAAAAAABAAAUAAAAAAAAAAAigAAAAAAAAAAAAARQAAAAAAAAAACCAAgAAAAAAAAAABFAAAAAAAAAAAIAACgAAAAAAAAAAEEABAAAAAAAAAAACTCIAAODYdREAAIC7MQAAc1MAAADgmO2XQVMAAAAAAPNTAACoqv7tb2zvndt/shaHNxa1uNGr36hWj1XVw9XrelVdb9Wv9mqr+3/J1apqkgMA5r209Op1dP+Pj6ofHlY/2q86uv+fh/vVD9fVD/fq6GDvzT/XvXYIACd7fjuOATh57RUZwCgUAIDxnrtvfe3hvdb/cuvtL1arT1fvn17X3ida1VTVqr81m6///8/rvu8HAE5Ya9Vqef+Pl9UWW1W18y4Xn15HB3fqaP9u9f27dbR/p/r6jer9SJYAAAAAgRQAgHh3vvuVJ6a2+OW+aL9Uvf/iuvonW6/2ZgVfPgBAsNZqsXWhFlsXfvTneq+j/Tt1tH79zZ97r1XvB7ICAAAACKAAAMTp/Y+W97733F9dHNbnqvXPVbW/0N/8L4QDANBaLVYXarG6UFWPVvVeh/uv19G9V+vo3it1tH9HRgAAAABnlAIAEKH3m4uD3Yu/2Kt/fr373K8vqh57c2K/sf0AAO+qtVquLtVydanq8uPVD9d1dO92Hd55uQ7Xr8kHAAAA4AxRAADOtHvPf/3PteXR31/v9r9X1R+TCADAB9OWq1peeKSWFx6pvn+3Du58vw7v/KD6kTUBAAAAAKedAgBw5vR+c1q/eP5vtarf7P3gr5XX/AEANqJt7dTWlSdq68pH6vDu7Tp84/t1uGcqAAAAAMBppQAAnBn9pZsX9w/O/8Z6t3+xqp7uIgEAmMmilucequW5h+po/04dvv5SHdz9YVV3IwMAAAA4TRQAgFOvP/fMtfXW4ovrg/bbVXXVC/8AACdnsXW+Ftdu1HTpI3Xw+ot18Mb3q0oRAAAAAOA0UAAATq3+0s2L6/1zv71u7Xer6qpEAABOjzatauvqR2u69FgdvLZbB3d+YCIAAAAAwAlTAABOnd7/YGtv99XfWh/0f1mtrksEAOD0astVbV19sqaLj9b+Ky/U4b3bQgEAAAA4IQoAwKly74Wv/vX17iu/36o+JQ0AgLOjTTu1uv5UHe29Wvu3n6+jg7tCAYCqsioHAIA5KQAAp8Kd737lieWy/evq/VelAQBwdi22L9f2I79QB2+8VAevvlC9HwkFAAAAYCYLEQAnqffe1ree/UfLRftW9fLlPwBAgtZquvhobT/yqVpsX5YHAAAAwEwUAIATc+97z3x8b/dr/71X/UFV+WQYACBMm1a1/fDTtXXtY9UWS4EAAAAAbJgCAHAi9naf/Xw7XP6vVv2XpAEAkG06f722H/mFWq4uCgMAAABggyYRAHPqf/z7V9c7+9+sXn9HGgAA42jL7Vo9/Mk6eG239l/frepdKAAAAADHTAEAmM3erS/93LrW/756/bw0AAAG1Kqmyx+utn2x1i9/p+rwQCYAAAAAx0gBAJjF3gtf/kJV+7dVdUEaAABjW25fqp0P/Xytf/CdOlq/IRAAshl6AwDAjBQAgM0+4/abi/Wtc1+uVv9cGgAAvKUtV7X9oU/W+uU/qcM7PxQIAAAAwDFQAAA2pn/7G9vrW3f/XVV9QdsdAICf1Gp17UYdTDu1/+pueUUSgFiOOAAAZqIAAGzmuXb3Sx9aH939T1X1GWkAAPDTtZoufbhquar9l58r35AAAAAAPDgFAODYvfEnv/fh9dHyv1TVn5cGAADv6eH0/PVaLKZa//D/VO9HAgEgiHIbAADzWYgAOE53d5+5Ma2m/1G+/AcA4P0+oO5cqa3rT1dbLIUBAAAA8AAUAIBjc++Fr3xycdT+Z/V6ShoAADyI5fbFWl3/RLWmBAAAAADwfikAAMfi7q0vf7RV/eeq9rg0AAD4QA+qq4u1evjpas0jKwAAAMD74dMU4AO7892vPLHo7b9V1UelAQDAsTysri7U6vonqloTBgAAAMB7pAAAfCCvvfjVR5at/mtVfUwaAAAc6wPr9qXafugpJQAAAACA90gBAHhg/fmvn1sdHv3HqnpaGgAAbOShdedqbV15UhAAAAAA78EkAuBB9H5zsX5h/YdV9VlpAACw0QfXC9fr6PBuHbz2PWEAAAAAvAsTAIAHsr977tlq9bclAQDAHFaXH6/luWuCAAAAAHgXCgDA+7Z368u/0Xv/oiQAAJhPq9W1G7XYOi8KAAAAgJ9CAQB4X/ae/+qnq9e/kQQAAHNrbVHbDz1VbWGbHQAAAMA7UQAA3rP+3DPXqh3+h6ry2hUAACeiTataXbshCAAAAIB34LUJ4D1bT+2bVfVxSQAAcJKWO1dquvhoHbz+ojAAAAAAfowJAMB7sr71zD+oql+XBAAAp8HqyuO1WF0QBAAAAMCPMQEA+Jnu/emzT/V+9HVJAABwerRaXf1Y7f3f/129H4kDgFOtiwCAE3+CAkahAAC8+wNq/6Pl+tZ3/rCqLkkDAIDTZLG1U1uXn6j17T8VBgAAAEBZAQD8DHu7f/xPquozkgAA4DSaLj5Sy9VFQQAAAACUAgDwLu7e+tqTrfd/JQkAAE6zrYdueLwFAAAAKCsAgHex6PvfrCqvUwEAcLrvrdN2bV1+tPZf3RUGAKdTFwEAAPPwigTwjvZufenXqupzkgAA4CyYLj1WbVoJAgAAABiaAgDwE/q3bq6qt2clAQDAWdHaolZXHhcEAAAAMDQFAOAnrK+u/mlVfUISAACcJctzD9Vy+5IgAAAAgGEpAAB/Rn/+6w9Va/9CEgAAnEVbVx6vqiYIAAAAYEgKAMCfsW57/6x6XZEEAABn8iF3daGWO66zAAAAwJgmEQBv6be+9vC67/+OJAAAOMu2rnykDu+9LAgATokuAgAAZmMCAPC2/dr/3aqyNBUAgLP9oLt1rpbnrgkCAAAAGI4CAFBVVf25Z671Xr8pCQAAEmxd/rAQAAAAgOEoAABVVbXear9VVRclAQBAxMPu1vlabBtuBQAAAIxFAQCo/q2bq6r+O5IAACDJ1qVHhQAAAAAMZRIBsH9l5wvVuxmpAABEWe5cqcXWuTravysMAE5YFwEAALNQAACqt6N/LAUAACIfes9fr/Ur3xUEAAAAMAQrAGBwey/+3qeq6rOSAAAg0fLC9WqtCQIAAAAYggIADK4dtn8oBQAAYu+7i6mW564JAgAAABiCAgAMrH/7G9u96u9KAgCAZNOF60IAAAAAhqAAAAPbO//6r1TVQ5IAACD6wXf7crXFliAAAACAeJMIYFytt89X64IAACD/4ffc1dp//SVBADC/7rMXAADmYwIAjPrs+e1vbNei/6okAAAY4uH33DUhAAAAAPEUAGBQe+df/RvV64okAAAYwXLnUtXSGgAAAAAgmxUAMKq2+JtlAh0AACM9AG9froM7PxAEAPPzGQwAADNRAIBBtaP6FSkAADCSxc6VKgUAAAAAIJgVADCgvVtf+rmq+rgkAAAYyXLnSlVrggAAAABimQAAA+qH/Zd97gkAwGjaYlGL6Xwd7b8hDAAAACCSCQAwoNbaX5ECAABDPgTvXBACAAAAEEsBAIbUPysDAABGtFxdFAIAAAAQSwEABnN395kbVfWEJAAAGJECAAAAAJBMAQBG+4f+6OgzUgAAYFjLrWrLbTkAAAAAkRQAYDx/SQQAAAz9ILx1TggAAABApEkEMJhenxYCAAAjW6zO1eG9lwUBwEy6CAAAmI0JADAeBQAAAMZ+EDYBAAAAAAilAAAD6c89c62qHpcEAABDPwgrAAAAAAChrACAgey3w6eqmiAAABham7arWqvqRjIDsHm9LAEAAGA+JgDASA+ci/qYFAAAoFVbbIkBAAAAiKMAAAPprd2QAgAAVC2mbSEAAAAAcawAgIEsjurJ3gydAwCAtlwJAQAAAIhjAgAMpC/6R6QAAABVtbQCAAAAAMhjAgAMpFddb2IAAIBatGWV4VgAzMF5AwDAjEwAgIG0o3pYCgAAUCYAAAAAAJEUAGAgrdV1KQAAQFVbGIgHAAAA5PGJBwykV12WAgAAVNVCHx6AmfSyBgAAgNkoAMBYtkUAAABV1Rbl2xgAAAAgjVceYBC935z8Mw8AAG9q1YQAAAAAxPFlIIxit1ZCAACAt56GFQAAAACAPAoAMIq7O1tCAACANzWPwwAAAECgSQQwiMW91v0jDwAAVVXVqwsBAAAAiOPbQBiKDzkBAMDtGADnDQAAqcw8BAAAAAAAAIAACgAAAAAAAAAAEEABAAAAAAAAAAACKAAAAAAAAAAAQAAFAAAAAAAAAAAIMIkAAACAMXURAOC8AQAgigkAAAAAAAAAABBAAQAAAAAAAAAAAigAAAAAAAAAAEAABQAAAAAAAAAACDCJAAAAgCF1EQAAAABZFABgKD7hBAAAd2MAAAAglQIAAAAAAMAm6Z0BADCThQgAAAAAAAAA4OxTAAAAAAAAAACAAFYAwEiMmwMAAHdjAAAAIJYJAAAAAAAAAAAQwAQAAAAABmUMAADOGwAAspgAAAAAAAAAAAABFAAAAAAAAAAAIIACAAAAAAAAAAAEmEQAAAAAALA5XQQAAMxEAQA8bgIAgLsxAAAAQAArAAAAAAAAAAAggAIAAAAAAAAAAARQAAAAAAAAAACAAAoAAAAAAAAAABBAAQAAAAAAAAAAAigAAAAAAAAAAECASQQAAACMqYsAAAAAiKIAAAAAwJh8/w+A8wYAgDBWAAAAAAAAAABAABMAAAAAAAA2yRQAAABmYgIAAAAAAAAAAAQwAQCGom4OAADuxgAAAEAqEwAAAAAAAAAAIIACAAAAAAAAAAAEUAAAAAAAAAAAgAAKAAAAAAAAAAAQQAEAAAAAAAAAAAJMIgAAAGBMXQQAOG8AAIhiAgAAAAAAAAAABFAAAAAAAAAAAIAACgAAAAAAAAAAEEABAAAAAAAAAAACTCKAkXQRAACAuzEAAAAQygQAAAAAAAAAAAigAAAAAAAAAAAAARQAAAAAAAAAACDAJAIAAACG1EUAgPMGAIAsJgAAAAAAAAAAQAAFAAAAAAAAAAAIYAUAAAAAgzKTGYA5jpvuyAEAYDYmAAAAAAAAAABAAAUAAAAAAAAAAAhgBQAAAADD6WUaMwDznTkAADAXBQDwxAkAAO7GAAAAAAEUAGAoPuUEAAB3YwCcOgAApFqIAAAAAAAAAADOPgUAAAAAAAAAAAigAAAAAAAAAAAAARQAAAAAAAAAACCAAgAAAAAAAAAABJhEAAAAwHj6/R8AAACAHCYAAAAAAAAAAEAABQAAAAAAAAAACKAAAAAAAAAAAAABJhEAAAAAAGxKv/8DAACbpwAAwz1wAgAA7sYAAABAIgUAAAAAxqQDAIDzBgCAMAsRAAAAAAAAAMDZpwAAAAAAAAAAAAGsAAAAAAAA2KTjXgPQNvBraA/417dj/Gv6A/76+gYys7oBSNNEAKMwAQAAAAAAAAAAAigAAAAAAAAAAEAAKwAAAAAYlNm+ADhvAADIYgIAAAAAAAAAAARQAAAAAAAAAACAAAoAAAAAAAAAABBAAQAAAAAAAAAAAkwigJF0EQAAgLsxAAAAEMoEAAAAAAAAAAAIoAAAAAAAAAAAAAEUAAAAAAAAAAAggAIAAAAAAAAAAARQAAAAAAAAAACAAAoAAAAAAAAAABBgEgEAAABj6iIAwHkDAEAUEwAAAAAAAAAAIIAJAAAAAIynlxcyAQAAgDgmAAAAAAAAAABAABMAYChecQIAAAAAAIBUCgAAAAAAAJvknQwATloTAYxCAQAAAAAA4AzRJwAA4KdZiAAAAAAAAAAAzj4FAAAAAAAAAAAIoAAAAAAAAAAAAAEmEcBALIgDAAB3YwAAACCWAgAAAACD0gIAwHkDAEAWKwAAAAAAAAAAIIACAAAAAAAAAAAEUAAAAAAAAAAAgAAKAAAAAAAAAAAQYBIBjKSLAAAA3I0BAACAUCYAAAAAAAAAAEAABQAAAAAAAAAACKAAAAAAAAAAAAABFAAAAAAAAAAAIIACAAAAAAAAAAAEmEQAAADAkLoIAHDeAACQRQEAAACAQflGBgAAAMhiBQAAAAAAAAAABDABAAAAgCF5/x8Ahw4AAGlMAAAAAAAAAACAACYAwFDUzQEAwN0YAAAASGUCAAAAAAAAAAAEUAAAAAAAAAAAgAAKAAAAAAAAAAAQQAEAAAAAAAAAAAIoAAAAAAAAAABAAAUAAAAAAAAAAAigAAAAAAAAAAAAASYRAAAAMKYuAgCcNwAARDEBAAAAAAAAAAACKAAAAAAAAAAAQAAFAAAAAAAAAAAIMIkARmLnHAAAuBsDAAAAqUwAAAAAAAAAAIAACgAAAAAAAAAAEMAKAAAAAMZkCwAAcxw3PfvIaY5aAIBTxQQAAAAAAAAAAAigAAAAAAAAAAAAAawAAAAAAADYlF5m4QMAMBsFAAAAAAbl2xgAnDcAAGSxAgAAAAAAAAAAAigAAAAAAAAAAEAABQAAAAAAAAAACDCJAEZxu6q2xQAAAFVlHzMAAACQSAEARuIzTgAAcDcGAAAAYlkBAAAAAAAAAAABFAAAAAAAAAAAIIACAAAAAAAAAAAEUAAAAAAAAAAAgAAKAAAAAAAAAAAQQAEAAAAAAAAAAAJMIgAAAGA8/f4PAAAAQA4TAAAAAAAAAAAggAIAAAAAAAAAAASwAgAAAIAx2QAAAAAAhFEAgKH4hBMAANyNAQAAgFRWAAAAAAAAAABAAAUAAAAAAAAAAAhgBQAAAAAAwCbZPAMAwExMAAAAAAAAAACAAAoAAAAAAAAAABBAAQAAAAAAAAAAAigAAAAAAAAAAECASQQAAACMqYsAAOcNAABRTAAAAAAAAAAAgAAKAAAAAAAAAAAQwAoAGIqRcwAA4G4MAAAApDIBAAAAAAAAAAACKAAAAAAAAAAAQAAFAAAAAAAAAAAIoAAAAAAAAAAAAAEmEQAAAAAAbE4XAQAn7LYIYBgmAAAAAAAAAABAAAUAAAAAAAAAAAhgBQAAAABD6t1AZgCcNwAAZFEAgEHcrqodMQAAQFXZxQyAkweA0dwWAQzCCgAAAAAAAAAACGACAAAAAADAJhkAAADATBQAwNMmAAAAAAAAEMAKAAAAAAAAAAAIoAAAAAAAAAAAAAEUAAAAAAAAAAAggAIAAAAAAAAAAARQAAAAAAAAAACAAAoAAAAAAAAAABBgEgEMpIsAAAAAAAAAUikAAAAAMCgNWQCcNwAAZLECAAAAAAAAAAACKAAAAAAAAAAAQAArAGAoRs4BAIC7MQAAAJDKBAAAAAAAAAAACKAAAAAAAAAAAAABFAAAAAAAAAAAIIACAAAAAAAAAAAEmEQAAADAkLoIAHDeAACQxQQAAAAAAAAAAAigAAAAAAAAAAAAAawAAAAAYFBmMgMw03HjyAEAYCYmAAAAAAAAAABAAAUAAAAAAAAAAAigAAAAAAAAAAAAASYRwEgsnAMAAHdjAAAAIJUJAAAAAAAAAAAQQAEAAAAAAAAAAAIoAAAAAAAAAABAAAUAAAAAAAAAAAgwiQAAAAAAYHO6CAAAmIkJAAAAAAAAAAAQQAEAAAAAAAAAAAJYAQAAAMCgDGQGwHkDAEAWEwAAAAAAAAAAIIACAAAAAAAAAAAEsAIAhmLkHAAAuBsDAAAAqUwAAAAAAAAAAIAAJgAAAAAwJkMAAHDeAAAQxgQAAAAAAAAAAAigAAAAAAAAAAAAAawAAAAAAADYJGsAAACYiQkAAAAAAAAAABBAAQAAAAAAAAAAAigAAAAAAAAAAECASQQAAACMyUJmAJw3AABkMQEAAAAAAAAAAAIoAAAAAAAAAABAACsAYChGzgEAgLsxAAAAkMoEAAAAAAAAAAAIYAIAjMRLTgAA4G4MAAAAxDIBAAAAAAAAAAACKAAAAAAAAAAAQAAFAAAAAAAAAAAIoAAAAAAAAAAAAAEmEQAAADCiLgIAnDcAAIRRAAAAAGBAvXwlAwAAAKSxAgAAAAAAAAAAApgAAAAAwHgMAAAAAAACKQDAUHzCCQAA7sYAAABAKisAAAAAAAAAACCACQAAAAAAAJtk8AwAJ+22CGAUJgAAAAAAAAAAQAAFAAAAAAAAAAAIoAAAAAAAAAAAAAEUAAAAAAAAAAAgwCQCAAAAAIDN6cf892un4NcAAMDpZAIAAAAAAAAAAAQwAQAAAIBBeRcSAOcNAABZTAAAAAAAAAAAgAAKAAAAAAAAAAAQwAoAGIqRcwAA4G4MAAAApDIBAAAAAAAAAAACKAAAAAAAAAAAQAAFAAAAAAAAAAAIoAAAAAAAAAAAAAEUAAAAAAAAAAAgwCQCAAAAhtRFAIDzBgCALCYAAAAAAAAAAEAABQAAAAAAAAAACGAFAAAAAIMykxkA5w0AAFkUAAAAAAAANkkHAACAmSgAgKdNAAAAAAAAIMBCBAAAAAAAAABw9ikAAAAAAAAAAEAABQAAAAAAAAAACKAAAAAAAAAAAAABFAAAAAAAAAAAIIACAAAAAAAAAAAEUAAAAAAAAAAAgAAKAAAAAAAAAAAQYBIBDKSLAAAAfnQ3dkEGYLZDBwAAZmECAAAAAAAAAAAEUAAAAAAAAAAAgABWAMBQjJwDAAB3YwAAACCVCQAAAAAAAAAAEEABAAAAAAAAAAACWAEAAADAmGwBAMB5AwBAGBMAAAAAAAAAACCAAgAAAAAAAAAABFAAAAAAAAAAAIAAkwgAAAAAADakV1XvcgAAYBYKAAAAAAAAG9Lv/wAAwBwUAAAAABiUr2MAAACALAsRAAAAAAAAAMDZZwIADMUbTgAA4G4MAAAApDIBAAAAAAAAAAACKAAAAAAAAAAAQAAFAAAAAAAAAAAIoAAAAAAAAAAAAAEUAAAAAAAAAAAgwCQCAAAARtRFAIDzBgCAMCYAAAAAAAAAAEAABQAAAAAAAAAACKAAAAAAAAAAAAABJhEAAAAwJluZAXDeAACQxQQAAAAAAAAAAAhgAgAMReMcAADevhu7HgMAAABhTAAAAAAAAAAAgAAKAAAAAAAAAAAQQAEAAAAAAAAAAAJMIgAAAAAAOEO6CAAAeGcmAAAAAAAAAABAAAUAAAAAAAAAAAigAAAAAAAAAAAAARQAAAAAAAAAACDAJAIAAADG1EUAgPMGAIAoJgAAAAAAAAAAQAATAGAoGucAAOBuDAAAAKQyAQAAAAAAAAAAAigAAAAAAAAAAEAABQAAAAAAAAAACDCJAAZizSkAALgbAwAAALFMAAAAAAAAAACAAAoAAAAAAAAAABBAAQAAAAAAAAAAAigAAAAAAAAAAECASQQAAAAMqYsAAOcNAABZFAAAAAAYUC/fyAAw56kDAABzsAIAAAAAAAAAAAKYAABD0TcHAAB3YwAAACCVAgAAAAAAwCbpnQEAMBMrAAAAAAAAAAAggAIAAAAAAAAAAARQAAAAAAAAAACAAAoAAAAAAAAAABBAAQAAAAAAAAAAAigAAAAAAAAAAEAABQAAAAAAAAAACDCJAAAAgDF1EQDgvAEAIIoJAAAAAAAAAAAQwAQAGMbtqtoWAwAAVJW3MQEAAIBEJgAAAAAAAAAAQAAFAAAAAAAAAAAIoAAAAAAAAAAAAAEUAAAAAAAAAAAggAIAAAAAAAAAAASYRAAAAMCQuggAcN4AAJDFBAAAAAAAAAAACKAAAAAAAAAAAAABFAAAAAAAAAAAIMAkAgAAAMZkKTMAM503p+HIaY5FAIARmAAAAAAAAAAAAAFMAIChqHIDAAAAAABAKhMAAAAAAAAAACCAAgAAAAAAAAAABFAAAAAAAAAAAIAACgAAAAAAAAAAEGASAQAAACPqIgAAAADCmAAAAAAAAAAAAAFMAICBeMMJAADcjQEAAIBcJgAAAAAAAAAAQAAFAAAAAAAAAAAIYAUAjMScUwAA+LG7sQsyALMdOgAAMAsFAPDACQAA7sYA4NQBACCAFQAAAAAAAAAAEMAEAAAAAMbkdUwAnDcAAIQxAQAAAAAAAAAAAigAAAAAAAAAAEAABQAAAAAAAAAACDCJAAAAAABgQ/r9HwAAmIEJAAAAAAAAAAAQQAEAAAAAAAAAAAIoAAAAAAAAAABAgEkEAAAAjMlCZgAAACCLCQAAAAAAAAAAEMAEABiKN5wAAMDdGAAAAEhlAgAAAAAAAAAABFAAAAAAAAAAAIAACgAAAAAAAAAAEEABAAAAAAAAAAACKAAAAAAAAAAAQAAFAAAAAAAAAAAIoAAAAAAAAAAAAAEUAAAAAAAAAAAggAIAAAAAAAAAAASYRAAAAMBwelX1LgcAZjp0AABgHgoA4IETAADcjQEAAAACWAEAAAAAAAAAAAEUAAAAAAAAAAAggBUAAAAAAACbZPMMAAAzMQEAAAAAAAAAAAIoAAAAAAAAAABAAAUAAAAAAAAAAAgwiQAAAAAAYFP6/R8AANg8EwAAAAAAAAAAIIACAAAAAAAAAAAEUAAAAAAAAAAAgACTCAAAABiTfcwAOG8AAMiiAAAeOAEAwN0YAAAAIIACAAAAAADAhvRSOwMAYD4LEQAAAAAAAADA2acAAAAAAAAAAAABFAAAAAAAAAAAIMAkAhiIhXMAAOBuDAAAAMQyAQAAAAAAAAAAApgAAAAAwJhMAQDAeQMAQBgTAAAAAAAAAAAggAIAAAAAAAAAAASwAgAAAIAB9TKTGQAAAEijAABD8QEnAAC4GwPg2HkAzZEKEPnvcSCOFQAAAAAAAAAAEEABAAAAAAAAAAACKAAAAAAAAAAAQIBJBAAAAIzIymIAnDcAAKQxAQAAAAAAAAAAAigAAAAAAAAAAEAABQAAAAAAAAAACKAAAAAAAAAAAAABFAAAAAAAAAAAIIACAAAAAAAAAAAEmEQAAADAmLoIAHDeAAAQRQEAPHACAIC7MQAAAEAAKwAAAAAAAAAAIIACAAAAAAAAAAAEUAAAAAAAAAAAgACTCAAAABhSFwEAzhsAALKYAAAAAAAAAAAAARQAAAAAAAAAACCAAgAAAAAAAAAABJhEAAAAAACwIf3+DwCcpCYCGIUJAAAAAAAAAAAQwAQAAAAABuV1TACcNwAAZFEAAA+cAAAAAAAAQAArAAAAAAAAAAAggAIAAAAAAAAAAASwAgAAAAAAYIMsZQQAYC4mAAAAAAAAAABAAAUAAAAAAAAAAAigAAAAAAAAAAAAARQAAAAAAAAAACCAAgAAAAAAAAAABFAAAAAAAAAAAIAACgAAAAAAAAAAEGASAQAAAGPqIgAAAACiKADASLoPOAEA4O27sesxAAAAEMYKAAAAAAAAAAAIoAAAAAAAAAAAAAEUAAAAAAAAAAAggAIAAAAAAAAAAASYRAAAAAAAsEFdBAAAzMMEAAAAAAAAAAAIoAAAAAAAAAAAAAEUAAAAAAAAAAAggAIAAAAAAAAAAARQAAAAAAAAAACAAJMIAAAAGFMXAQDOGwAAoigAgAdOAABwNwYAAAAIYAUAAAAAAAAAAARQAAAAAAAAAACAAAoAAAAAAAAAABBAAQAAAAAAAAAAAigAAAAAAAAAAEAABQAAAAAAAAAACKAAAAAAAAAAAAABJhEAAAAwpC4CAJw3AABkMQEAAAAAAAAAAAKYAAAAAMCgvJIJgPMGAIAsCgDggRMAANyNAQAAAAJYAQAAAAAAAAAAAUwAAAAAYDi9zAAAYL4zx6EDAMBcTAAAAAAAAAAAgAAmAAAAAAAAbNBpGADQTuDX2Gb632pn5P8DAIA5mAAAAAAAAAAAAAEUAAAAAAAAAAAggAIAAAAAAAAAAARQAAAAAAAAAACAAAoAAAAAAAAAABBAAQAAAAAAAAAAAkwiAAAAYExdBAA4bwAAiKIAAB44AQDA3RgAAAAggBUAAAAAAAAAABBAAQAAAAAAAAAAAigAAAAAAAAAAEAABQAAAAAAAAAACDCJAAAAgCF1EQDgvAEAIIsCAHjgBAAAAAAAAAJYAQAAAAAAAAAAARQAAAAAAAAAACCAAgAAAAAAAAAABJhEAAAAAACwQV0EAADMQwEAPG0CAMCgd2P3YwAAACCLFQAAAAAAAAAAEEABAAAAAAAAAAACKAAAAAAAAAAAQAAFAAAAAAAAAAAIMIkAAAAAAGCTuggAAJiFCQAAAAAAAAAAEEABAAAAAAAAAAACKAAAAAAAAAAAQAAFAAAAAAAAAAAIoAAAAAAAAAAAAAEmEQAAADCefv8HAOY4cwAAYB4KAOCBEwAA3I0BAAAAAlgBAAAAAAAAAAABTAAAAABgTIYAAAAAAGFMAAAAAAAAAACAAAoAAAAAAAAAABDACgAAAAAAgA2ydQaAk9ZEAMMwAQAAAAAAAAAAApgAAAAAAACwKb3GHQHQ3iUTAAA2wgQAAAAAAAAAAAigAAAAAAAAAAAAARQAAAAAAAAAACDAJAIYiQVrAADgfgyA8wYAgFQmAAAAAAAAAABAAAUAAAAAAAAAAAigAAAAAAAAAAAAARQAAAAAAAAAACCAAgAAAAAAAAAABFAAAAAAAAAAAIAACgAAAAAAAAAAEEABAAAAAAAAAAACKAAAAAAAAAAAQAAFAAAAAAAAAAAIMIkAAACA4fT7PwAwx5kDAAAzUQCAYdyuqm0xAABAVWkAAAAAAIkUAGAUt6tqRwwAAFBVVd3X/wAAAECehQgAAAAAAAAA4OxTAAAAAAAAAACAAFYAwECMOAUAAHdjABw8AADkMgEAAAAAAAAAAAIoAAAAAAAAAABAAAUAAAAAAAAAAAigAAAAAAAAAAAAARQAAAAAAAAAACCAAgAAAAAAAAAABJhEACPpIgAAgLfvxu7HAMx15gAAwDxMAAAAAAAAAACAAAoAAAAAAAAAABBAAQAAAAAAAAAAAigAAAAAAAAAAEAABQAAAAAAAAAACKAAAAAAAAAAAAABJhEAAAAwpC4CAGY4brojB4CT10QAwzABAAAAAAAAAAACKAAAAAAAAAAAQAAFAAAAAAAAAAAIoAAAAAAAAAAAAAEmEcBIuggAAODtu7H7MQAznTnHfeS0Bzz6AACIZwIAAAAAAAAAAARQAAAAAAAAAACAAAoAAAAAAAAAABBAAQAAAAAAAAAAAigAAAAAAAAAAEAABQAAAAAAAAAACKAAAAAAAAAAAAABFAAAAAAAAAAAIIACAAAAAAAAAAAEUAAAAAAAAAAAgACTCGAkXQQAAPD23dj9GIC5zhwAAJiHCQAAAAAAAAAAEEABAAAAAAAAAAACKAAAAAAAAAAAQIBJBAAAAAzJSmYAnDcAAIQxAQAAAAAAAAAAAigAAAAAAAAAAEAABQAAAAAAAAAACDCJAAZi5xwAALgbAwAAALEUAAAAAAAANqWX4hkAJ++2CGAUVgAAAAAAAAAAQAAFAAAAAAAAAAAIYAUADMW8OQAA+NHd2P0YAAAAyGICAAAAAAAAAAAEUAAAAAAAAAAAgAAKAAAAAAAAAAAQQAEAAAAAAAAAAAIoAAAAAAAAAABAAAUAAAAAAAAAAAigAAAAAAAAAAAAASYRAAAAAABsThcBAAAzMQEAAAAAAAAAAAIoAAAAAAAAAABAACsAYCgGzgEAwFt3Y7djAOY5cQAAYD4KAAAAAAyoV3VfyQAw05kDAAAzsQIAAAAAAAAAAAIoAAAAAAAAAABAAAUAAAAAAAAAAAigAAAAAAAAAAAAASYRAAAAAABsUBcBAADzMAEAAAAAAAAAAAIoAAAAAAAAAABAAAUAAAAAAAAAAAigAAAAAAAAAAAAARQAAAAAAAAAACDAJAIYSRcBAAC4HwPgvAEAIJQJAAAAAAAAAAAQQAEAAAAAAAAAAAIoAAAAAAAAAABAgEkEAAAAAACb1EUAAMAsTAAAAAAAAAAAgAAKAAAAAAAAAAAQQAEAAAAAAAAAAAIoAAAAAAAAAABAgEkEAAAADKmLAADnDQAAWUwAAAAAAAAAAIAAJgDAUFTOAQDA3RgAAABIpQAAAADAoJQAAAAAgCxWAAAAAAAAAABAABMAYCRecAIAAHdjAJw7AADEMgEAAAAAAAAAAAIoAAAAAAAAAABAAAUAAAAAAAAAAAigAAAAAAAAAAAAARQAAAAAAAAAACCAAgAAAAAAAAAABJhEAAAAAACwOV0EAADMxAQAAAAAAAAAAAhgAgAMRd8cAADcjQEAAIBUCgAAAAAMSgkAAOcNAABZrAAAAAAAAAAAgAAKAAAAAAAAAAAQQAEAAAAAAAAAAAIoAAAAAAAAAABAgEkEAAAADKmLAADnDQAAWUwAAAAAAAAAAIAACgAAAAAAAAAAEEABAAAAAAAAAAACKAAAAAAAAAAAQIBJBDCSLgIAAHA3BsCxAwBAKAUAAAAABuXbGACcNwAAZLECAAAAAAAAAAACKAAAAAAAAAAAQAAFAAAAAAAAAAAIoAAAAAAAAAAAAAEUAAAAAAAAAAAggAIAAAAAAAAAAARQAAAAAAAAAACAAAoAAAAAAAAAABBAAQAAAAAAAAAAAkwiAAAAYERdBAA4bwAACKMAAB45AQDA3RgAAAAggAIAAAAAg1ICAMB5AwBAFgUAAAAAxuT7GAAAACDMQgQAAAAAAAAAcPYpAAAAAAAAAABAAAUAAAAAAAAAAAigAAAAAAAAAAAAARQAAAAAAAAAACDAJAIAAAAAgA3p939Ou/Yefh8AAJx6CgAw2gMnAADgbgwAAABEsgIAAAAAAAAAAAKYAABD8ZoTAAC4GwMw94nj1AEAYC4mAAAAAAAAAABAABMAAAAAGJT3MQEAAIAsJgAAAAAAAAAAQAAFAAAAAAAAAAAIoAAAAAAAAAAAAAEUAAAAAAAAAAAggAIAAAAAAAAAAARQAAAAAAAAAACAAAoAAAAAAAAAABBAAQAAAAAAAAAAAkwiAAAAYDj9/g8AzHHmAADATBQAwBMnAAC4GwMAAAAEUAAAAABgQEYAADDnmQMAAPNYiAAAAAAAAAAAzj4FAAAAAAAAAAAIoAAAAAAAAAAAAAEmEQAAAAAAbFAXAQAA8zABAAAAAAAAAAACKAAAAAAAAAAAQAAFAAAAAAAAAAAIoAAAAAAAAAAAAAEUAAAAAAAAAAAgwCQCGEkXAQAAAAAAAIQyAQAAAAAAAAAAApgAAAAAwKBMyALAeQMAQBYTAAAAAAAAAAAggAIAAAAAAAAAAARQAAAAAAAAAACAAAoAAAAAAAAAABBAAQAAAAAAAAAAAkwiAAAAYEhdBAA4bwAAyGICAAAAAAAAAAAEUAAAAAAAAAAAgAAKAAAAAAAAAAAQYBIBjMTSOQAAcDcGAAAAUikAAAAAMCglAACcOAAAZFEAAAAAAADYJA0AAABmshABAAAAAAAAAJx9JgDASLTNAQDA3RgAAACIZQIAAAAAAAAAAARQAAAAAAAAAACAAAoAAAAAAAAAABBAAQAAAAAAAAAAAkwiAAAAYERdBAA4bwAACGMCAAAAAAAAAAAEMAEAhqJzDgAA7sYAAABAKhMAAAAAAAAAACCACQAAAAAMyhQAAJw3AABkUQAAj5sAAAAAbJRPZQAAmIcVAAAAAAAAAAAQwAQAAAAAxuRlTACcNwAAhDEBAAAAAAAAAAACKAAAAAAAAAAAQAAFAAAAAAAAAAAIoAAAAAAAAAAAAAEmEQAAAAAAbEi//wMAADMwAQAAAAAAAAAAApgAAMO4XVXbYgAAgKryKiYAAACQyAQAAAAAAAAAAAhgAgAAAACDMgUAAOcNAABZTAAAAAAAAAAAgAAKAAAAAAAAAAAQQAEAAAAAAAAAAAIoAAAAAAAAAABAAAUAAAAAAAAAAAigAAAAAAAAAAAAARQAAAAAAAAAACCAAgAAAAAAAAAABJhEACPpIgAAAHdjAAAAIJQJAAAAAAAAAAAQwAQAAAAAxtRNAQBglgPnTMydaT/zdwEAwFlgAgAAAAAAAAAABFAAAAAAAAAAAIAACgAAAAAAAAAAEEABAAAAAAAAAAACTCIAAAAAADhDeujvqw34ewY4Df+OBaKYAAAAAAAAAAAAARQAAAAAAAAAACCAAgAAAAAAAAAABJhEAAOxKw0AANyNAQAAgFgKADAUn3ICAIC7MQAAAJDKCgAAAAAAAAAACGACAAAAAIMyBQAAAADIYgIAAAAAAAAAAARQAAAAAAAAAACAAAoAAAAAAAAAABBAAQAAAAAAAAAAAigAAAAAAAAAAEAABQAAAAAAAAAACDCJAAAAgCF1EQDgvAEAIIsJAAAAAAAAAAAQwAQAGIrKOQAAuBsDAAAAqUwAAAAAAAAAAIAACgAAAAAAAAAAEMAKAAAAAAbUyxoAAOY7cwAAYB4KAAAAAAAAm6QDAMBJayKAUVgBAAAAAAAAAAABFAAAAAAAAAAAIIACAAAAAAAAAAAEUAAAAAAAAAAAgACTCAAA4P+1d/cxllf1GcCfc+fuAu7uCG7SaKINWo2JCIXdQZTqH9iiFnkxRW3TatqoaSlJrSZNNDY2mzSmL4nWl9oqNVptsbJTMLUvijRKK6LCDqsgWVFeFsFKlYXdmd0WmNl7+kexRWRhZ3fmzsw5n8//u7+ZJ7lzzr3nud8D9KiKAAAAAGiMCQAAAAAAAAAA0AAFAAAAAAAAAABogCsAoCuGnAIAAAAAAECrTAAAAAAAAAAAgAaYAAAAAECnTMgCwHoDAEBbFAAAAAAAAJZJjQoAACtvrwigG64AAAAAAAAAAIAGKAAAAAAAAAAAQANcAQAAAECfzGMGwHoDAEBjTAAAAAAAAAAAgAYoAAAAAAAAAABAAxQAAAAAAAAAAKABCgAAAAAAAAAA0IChCKAnVQQAAGBvDAAAADRKAQAAAAAAYDnpnQEAMCauAAAAAAAAAACABpgAAAAAQKd8HRMAAABoiwkAAAAAAAAAANAABQAAAAAAAAAAaIArAKAnJpwCAIC9MQAAANAsEwAAAAAAAAAAoAEKAAAAAAAAAADQAAUAAAAAAAAAAGiAAgAAAAAAAAAANEABAAAAAAAAAAAaMBQB9KSKAAAA7I0BAACARpkAAAAAAAAAAAANUAAAAAAAAAAAgAa4AgAAAIA+VdcAADCWBUcEAACMjQkAAAAAAAAAANAABQAAAAAAAAAAaIACAAAAAAAAAAA0QAEAAAAAAAAAABqgAAAAAAAAAAAADRiKAAAAAABgGVURAAAwHiYAAAAAAAAAAEADTACArqibAwCAvTEAAADQKhMAAAAAAAAAAKABCgAAAAAAAAAA0ABXAAAAANAp1wAAYL0BAKAtJgAAAAAAAAAAQANMAAAAAAAAWEZmAAAAMC4mAAAAAAAAAABAAxQAAAAAAAAAAKABCgAAAAAAAAAA0AAFAAAAAAAAAABogAIAAAAAAAAAADRAAQAAAAAAAAAAGjAUAfSkigAAAJKkVttjAMa05ogAAIDxUQAAAAAAAFg2NVoAAACMiysAAAAAAAAAAKABJgAAAADQKd/GBAAAANpiAgAAAAAAAAAANEABAAAAAAAAAAAa4AoAAAAAAIDlUtP2rTPlCX53AADGSgEAAACALjmTAMB6AwBAa1wBAAAAAAAAAAANUAAAAAAAAAAAgAYoAAAAAAAAAABAA4YigJ64dQ4AAOyNAQAAgFYpAEBPfMYJAAAAAAAAzXIFAAAAAAAAAAA0wAQAAAAAOmVEFgDWGwAA2mICAAAAAAAAAAA0QAEAAAAAAAAAABqgAAAAAAAAAAAADVAAAAAAAAAAAIAGKAAAAAAAAAAAQAOGIgAAAKBLVQQAWG8AAGiLCQAAAAAAAAAA0AAFAAAAAAAAAABogCsAoCtmzgEAgL0xAAAA0CoTAAAAAAAAAACgAQoAAAAAAAAAANAAVwAAAADQoRrXAAAwtjXHkgMAwJiYAAAAAAAAAAAADVAAAAAAAAAAAIAGuAIAAAAAAGAZuQEAAIBxMQEAAAAAAAAAABqgAAAAAAAAAAAADVAAAAAAAAAAAIAGKAAAAAAAAAAAQAOGIoCeVBEAAAAAAABAo0wAAAAAAAAAAIAGKAAAAAAAAAAAQAMUAAAAAAAAAACgAUMRAAAA0KcqAgCsNwAANEUBAAAAgD45jwHAegMAQGNcAQAAAAAAAAAADVAAAAAAAAAAAIAGKAAAAAAAAAAAQAMUAAAAAAAAAACgAQoAAAAAAAAAANAABQAAAAAAAAAAaMBQBNCTKgIAALA3BqDHZadYGgEAemACAAAAAAAAAAA0QAEAAAAAAAAAABrgCgAAAAA6ZdYxAAAA0BYTAAAAAAAAAACgAQoAAAAAAAAAANAABQAAAAAAAAAAaMBQBNARV5wCAIC9MQAAANAsEwAAAAAAAAAAoAEKAAAAAAAAAADQAAUAAAAAAAAAAGjAUATQExedAgCAvTEAAADQKhMAAAAAAAAAAKABJgAAAADQJ0MAAAAAgMaYAAAAAAAAAAAADTABAAAAgE4ZAQCA9QYAgLaYAAAAAAAAAAAADVAAAAAAAAAAAIAGuAIAAACA7tQYyAzA+NYcAAAYFwUAAAAAAIA1RKkAAIBDUQAAAAAAAFguxs4AADBGAxEAAAAAAAAAwNqnAAAAAAAAAAAADXAFAHTFvDkAALA3BgAAAFqlAACdqAfnap1YLwgAAIjjfwAAoC8bD3gbBL1wBQB04oRkXgoAAAAAANCf4YY8KAXogwIA9GJu00NCAAAAAACA/vzbiXFGAJ1wBQB0opx19cLczheNovgDAAAPMwETAOsNAF1Y2LYtIzFAHxwEQl+M+AEAAAAAgL44G4COKABAT0r2CQEAAAAAALqyVwTQDwUA6EnNvUIAAAAAAICuOBuAjigAQF/2iAAAAAAAAPpRnQ1AVxQAoCelavkBAAAAAEBHSoqzAejIUATQkVruEQIAAPxofywCAKw3AHSxFv2nEKAfCgDQkZLR7poiCAAAcBoDAAB0opTRHVKAfrgCADpSa3ZLAQAAAAAA+jEqUQCAjigAQFcv+LpbCgAAAAAA0I9B8eVA6Oo1LwLox/xw/W1SAAAAAACAbtRScrsYoB9DEUA/jj/lmvvnbnjhXSl5hjQAAKCKAAAAaN3ucy7NrBigHwoA0JlSyo01VQEAAAAAYFx0zgBYuTXoJiFAX1wBAN0Z3SgDAAAAAABoXx0UZwLQGQUA6G2xr7HYAwAAAABAB0r1pUDojQIAdGY4WnetFAAAAAAAoH2DYb4iBejsdS8C6MtxU9d8NzV3SQIAAAAAAJq2+5xLc7cYoC8KANAnUwAAAAAAAKBlpVwjBOiPAgB0+cq36AMAAAAAQMvqaPRlKUB/hiKADhf9HPx8SREEAABd74oBAABaNlFylRSgPyYAQIcmT73u20m9TRIAAAAAANCemtxyzmVxDgAdMgEAejUqV6bkYkEAANAlAwAAAICGDVI+540P9Pr6B7o0GtR/kQIAAAAAALSn1tFnpQB9MgEAOjW5/sBV+x/ceH+SE6QBAECffBsGAOsNAE26/79qvigG6JMJANCpctLND9XkHyUBAAAAAADtqCmXv3Y6D0kC+qQAAD1vAkrdLgUAAAAAAGjHYDDy2T90zBUA0LGHrwHYk2SzNAAA6I6JzABYbwBobdmp+cGG7xv/Dz0zAQA6Vk66+aHU/K0kAAAAAACgAaV8/KyrsyAI6JcJAGA38OGk/q4cAAAAAJaHIQAAjEvJ6GNSgL6ZAACd27T1q7uSeq0kAAAAAABgTfvSuZdllxigbyYAACkpH6qpZ0oCAIB++C4mAADQ3PucD8sAUAAAsmG08Kn9g4l3JXmGNAAAAACWmuIZAMu+1Nz9tOOzXRCAAgCQMjUzP3vDCz5Ykj+WBgAAAMASc/4PwDIryXunLsm8JICBCIAkmX+o/GWSWUkAAAAAAMCaMntMzUfEACQKAMDDNr/wa7Olxv1AAAAAAACwhtTkz8+ezj5JAIkrAIBHGC3kT8owF6VkkzQAAGhbjXnMAIxvzQGAZbNvfc27xQD8iAkAwP+ZPOO6PRnk/ZIAAAAAAIA14c9eMZ37xAD8iAIA8GMOTqx/d5K9kgAAAAAAgFXtvmNr3isG4JEUAIAfc/wp19xfkj+UBAAAAAAArF6lZNvZ09knCeCRFACAn7BhdPADqblFEgAAAAAAsCrteuqT8yExAI+mAK1C3pAAAAdQSURBVAD8hDI1M1+T35MEAAAAAACsPiV569QlmZcE8GgKAMBjmtx63T+Vmn+WBAAAAAAArCqfPnd7rhQD8FiGIgAOZaIevHghg2+mZJM0AAAAAABgxc1OLOTNYgAOxQQA4JCOm5r5bkr5fUkAAAAAAMCq8LZzrsjdYgAORQEAeFwbT7vug0mulQQAAAAAAKygmi/NPC+XCAJ4PAoAwOMqJaODB/P6JLPSAAAAAACAFbF/lLxh27aMRAE8nqEIgCdy/OnX3z47c/pbSslHpQEAQDNqlQEA41hwRADA0Su56ILtuVUQwBNRAAAOy+TW6z82d8PpL0vyK9IAAKAFjmMAAIA1Yvq8y3KpGIDD4QoA4LAtlPnfToqGIQAAAAAAjMctE+vyJjEAh0sBADhsJ5z29b11dPC81MxJAwAAAAAAltX+OpELz7k0s6IADpcCALAok1Mz30qpvykJAAAAAABYNrUmbzz/73KzKIDFUAAAFm3Tlh2fKqX+qSQAAAAAAGDp1eSPzt+e7ZIAFmsoAuBIbDh1x9v37zz96Ul+VRoAAAAAj6OKAIDDV2q2zzw/75QEcCQUAIAj24CU1PrFDW/c/+T9JyY5UyIAAKwtTmIAAIBV6ZoNG/Pr27ZlJArgSLgCADhi5ayrH6ijekGSXdIAAAAAAICjcvP8Ql511l/nAVEAR0oBADgqk1Mz904M1p2dktulAQAAAAAAR+S20URe9kufzh5RAEdDAQA4ak869SvfGx6sZ9XkTmkAAAAAAMCi3F2Tsy/4VP5DFMDRUgAAlsRxUzPfzWDwsiR3SwMAAAAAAA7LXRnlpedP5w5RAEthKAJgqUyeet23//uG0168kIl/TfJsiQAAsLpVEQAAACvpjjLKL5x7uSt2gaVjAgCwpI7bsvPOslBekuQmaQAAAAAAwGPaleQlDv+BpaYAACy5jS+4/p46qi9N8mVpAAAAAADA/6vJv69LXnzedL4nDWCpKQAAy2JyaubejZv2/nxSPikNAAAAAABIUjK9aUNe/orp3CcMYDkMRQAs2z7mObc+WGted2Dn1jtrLW9PUqQCAMCqUEUAAACM+V1IybvO3Z4/KN6RAMvIBABgWZWSunHLzDtqyauS7JMIAAAAAACdmUvy2vO2550O/4HlZgIAMBaTW3Z8Zvb6qTPKoF6RlOdJBAAAAOhBjZOeRyuPkxVAg27JKBeef3luFgUwDgoAwNhMnr7jlj1fPeNF69ct/EWSX5MIAAArplanDACMac0RAUCvSs3HRw/ldy74TOakAYyLAgAwVptf+LXZJK+b27H1H1Ly4SQnSAUAAAAAgIbMlpqLz/v7XCoKYNwGIgBWwqapmelhGZ2WkqulAQAAAABAI75QkpMd/gMrxQQAYMUct2XnnbXmpQd2Tr2+1vqeJJulAgAAAADAGrQ3ydvOm85fFRfAACtIAQBYUaWkJjs+cWDH1qtGpX4gKRdKBQCA8fCZHAAAsCQum0je8srp3CMKYKUpAACrwoapme8nefXcjq1npeS9SU6RCgAAAAAAq9iuQclbz92eK0UBrBYDEQCryaapmS9uvO1ZW1JzcZIfSgQAAAAAgFXmB6m56IHkZIf/wGpTRACsVvd845QNG+fXvamWvCPJT0kEAIClcvCBB3PfTd8UBADLbt8Pk+/MrPzPUZ7gk+CyDP9vWeyzypH9fIf1sy/yF/TBOXAI99XkA+uOyXvOuTSz4gBWI/sYYPXvqHZsffK6Ut+SUt6cmqdIBACAo6UAAMC4KAAs4lkKAMDqdW9N3r/umLzPwT+w2tnHAGtG/c6zjzkwd/wv11rfkeS5EgEA4EgpAAAwLgoAi3iWAgCw+txRS9537LH5yMv/JgfEAawFAxEAa0V5zq0Pbtyy4xMbb3vWSSnl1Uk+n2QkGQAAAAAAlsiollxZkwtveH6efcF03ufwH1hLFBmBNW3vN0555sT8ujck+Y2U+nSJAABwOP53AsDNggBg2ZkAsIhnmQAArKSau5J8bKLmo6+8IncKBFir7GOANvZmNYO5ma1nlsHoNanlNUmeJhUAAA5FAQCAcVEAWMSzFACA8bs3NZ8dJZ/4+sn5wrZtJs4Ca599DNCcuv01E3M/c9uZg1J/sdbyiiSn+nsHAMAjKQAAMC4KAIt4lgIAsPxqSnam5nOl5LMzJ+Vah/5Aa+xjgObtv+70p2a4cHat5cWp5edS6vP8/QMA6JsCAADjogCwiGcpAABLb5RkV5JrUvLlieSqV07nHrEALbOPAfp7433ti54yPPaBMw6OBj9bklNS6slJnptknXQAAPqgAADAuCgALOJZCgDA0fydS+aTfKvW3JSSG5PcOFifr577ydwvHaCzv4cA1B1b1+1Lfno4GJ04Gg2eWUo9sSRPq7VsTqmbk2xOMpnkSQ//k8kkE5IDAFibFAAAGBcFgEU8SwEAeNS2PclsktTkQKmZS8meJHtSc28t+X4p2V1qdpeaO763OXf91iWZFxvQu/8BpCADzsvaqoQAAAAldEVYdGRhdGU6Y3JlYXRlADIwMjEtMDUtMDNUMTk6MjY6MDgrMDA6MDBw8VcFAAAAJXRFWHRkYXRlOm1vZGlmeQAyMDIxLTA1LTAzVDE5OjI2OjA4KzAwOjAwAazvuQAAAABJRU5ErkJggg==;" vertex="1" parent="1">
          <mxGeometry x="2437" y="1040" width="110" height="110" as="geometry" />
        </mxCell>
        <mxCell id="7eZKOLOASio0npsbyuK4-18" value="&lt;h1&gt;Power BI Reports&lt;br&gt;&lt;/h1&gt;" style="text;html=1;strokeColor=default;fillColor=none;spacing=5;spacingTop=-20;whiteSpace=wrap;overflow=hidden;rounded=0;perimeterSpacing=2;dashed=1;" vertex="1" parent="1">
          <mxGeometry x="2393" y="684.5" width="213" height="50" as="geometry" />
        </mxCell>
        <mxCell id="7eZKOLOASio0npsbyuK4-19" value="&lt;h1&gt;Power BI Reports&lt;br&gt;&lt;/h1&gt;" style="text;html=1;strokeColor=default;fillColor=none;spacing=5;spacingTop=-20;whiteSpace=wrap;overflow=hidden;rounded=0;perimeterSpacing=2;dashed=1;" vertex="1" parent="1">
          <mxGeometry x="2389" y="1160" width="213" height="50" as="geometry" />
        </mxCell>
        <mxCell id="7eZKOLOASio0npsbyuK4-22" value="&lt;font style=&quot;font-size: 72px;&quot;&gt;Storage Layer&lt;br&gt;&lt;/font&gt;" style="text;html=1;strokeColor=none;fillColor=none;align=center;verticalAlign=middle;whiteSpace=wrap;rounded=0;" vertex="1" parent="1">
          <mxGeometry x="1327" y="159" width="482" height="73" as="geometry" />
        </mxCell>
        <mxCell id="7eZKOLOASio0npsbyuK4-23" value="&lt;font style=&quot;font-size: 72px;&quot;&gt;Business Layer&lt;br&gt;&lt;/font&gt;" style="text;html=1;strokeColor=none;fillColor=none;align=center;verticalAlign=middle;whiteSpace=wrap;rounded=0;" vertex="1" parent="1">
          <mxGeometry x="2236" y="149" width="527.5" height="73" as="geometry" />
        </mxCell>
        <mxCell id="7eZKOLOASio0npsbyuK4-24" value="" style="verticalLabelPosition=bottom;verticalAlign=top;html=1;shape=mxgraph.infographic.shadedTriangle;fillColor=#10739E;strokeColor=none;" vertex="1" parent="1">
          <mxGeometry x="228" y="660" width="120" height="109.5" as="geometry" />
        </mxCell>
        <mxCell id="7eZKOLOASio0npsbyuK4-25" value="&lt;h1&gt;Client&#39;s Management Software&lt;br&gt;&lt;/h1&gt;&lt;p&gt;&lt;br&gt;&lt;/p&gt;" style="text;html=1;strokeColor=default;fillColor=none;spacing=5;spacingTop=-20;whiteSpace=wrap;overflow=hidden;rounded=0;perimeterSpacing=2;dashed=1;" vertex="1" parent="1">
          <mxGeometry x="191" y="797" width="200" height="130" as="geometry" />
        </mxCell>
        <mxCell id="7eZKOLOASio0npsbyuK4-26" style="edgeStyle=orthogonalEdgeStyle;rounded=0;orthogonalLoop=1;jettySize=auto;html=1;exitX=1;exitY=0.5;exitDx=0;exitDy=0;entryX=-0.002;entryY=0.564;entryDx=0;entryDy=0;entryPerimeter=0;fillColor=#e3c800;strokeColor=#B09500;strokeWidth=3;" edge="1" parent="1" source="7eZKOLOASio0npsbyuK4-25" target="kBLxzkw_PutFiRmcld1j-3">
          <mxGeometry relative="1" as="geometry" />
        </mxCell>
        <mxCell id="7eZKOLOASio0npsbyuK4-27" value="" style="rounded=0;whiteSpace=wrap;html=1;strokeWidth=3;fillStyle=cross-hatch;fillColor=#bac8d3;strokeColor=#23445d;fillOpacity=30;strokeOpacity=50;" vertex="1" parent="1">
          <mxGeometry x="133" y="260" width="653" height="1114" as="geometry" />
        </mxCell>
        <mxCell id="7eZKOLOASio0npsbyuK4-28" value="&lt;font style=&quot;font-size: 72px;&quot;&gt;Source Layer&lt;br&gt;&lt;/font&gt;" style="text;html=1;strokeColor=none;fillColor=none;align=center;verticalAlign=middle;whiteSpace=wrap;rounded=0;" vertex="1" parent="1">
          <mxGeometry x="218.5" y="149" width="482" height="73" as="geometry" />
        </mxCell>
      </root>
    </mxGraphModel>
  </diagram>
</mxfile>
